BasicallyAMono-Thin.ufo
<glyph name="exclam" format="2">
  <advance width="980"/>
  <unicode hex="0021"/>
  <outline>
    <contour>
      <point x="475.0" y="321.0" type="line"/>
      <point x="505.0" y="321.0" type="line"/>
      <point x="505.0" y="1125.0" type="line"/>
      <point x="475.0" y="1125.0" type="line"/>
    </contour>
    <contour>
      <point x="565.0" y="120.0" type="curve" smooth="yes"/>
      <point x="565.0" y="161.3936265"/>
      <point x="531.3936265" y="195.0"/>
      <point x="490.0" y="195.0" type="curve" smooth="yes"/>
      <point x="448.6063735" y="195.0"/>
      <point x="415.0" y="161.3936265"/>
      <point x="415.0" y="120.0" type="curve" smooth="yes"/>
      <point x="415.0" y="78.6063735"/>
      <point x="448.6063735" y="45.0"/>
      <point x="490.0" y="45.0" type="curve" smooth="yes"/>
      <point x="531.3936265" y="44.999999999999986"/>
      <point x="565.0" y="78.60637349999999"/>
    </contour>
  </outline>
</glyph>
<glyph name="quotedbl" format="2">
  <advance width="1020"/>
  <unicode hex="0022"/>
  <outline>
    <contour>
      <point x="596.66667" y="1007.5" type="line"/>
      <point x="629.16667" y="1007.5" type="line"/>
      <point x="629.16667" y="1300.0" type="line"/>
      <point x="596.66667" y="1300.0" type="line"/>
    </contour>
    <contour>
      <point x="390.83333" y="1007.5" type="line"/>
      <point x="423.33333" y="1007.5" type="line"/>
      <point x="423.33333" y="1300.0" type="line"/>
      <point x="390.83333" y="1300.0" type="line"/>
    </contour>
  </outline>
</glyph>
<glyph name="numbersign" format="2">
  <advance width="980"/>
  <unicode hex="0023"/>
  <outline>
    <contour>
      <point x="209.7538833618164" y="45" type="line"/>
      <point x="240.3153839111328" y="45" type="line"/>
      <point x="307.3765869140625" y="390" type="line"/>
      <point x="596.8150863647461" y="390" type="line"/>
      <point x="529.7538833618164" y="45" type="line"/>
      <point x="560.3153839111328" y="45" type="line"/>
      <point x="627.3765869140625" y="390" type="line"/>
      <point x="795" y="390" type="line"/>
      <point x="795" y="420" type="line"/>
      <point x="633.2080001831055" y="420" type="line"/>
      <point x="697.3535003662109" y="750" type="line"/>
      <point x="875" y="750" type="line"/>
      <point x="875" y="780" type="line"/>
      <point x="703.1849136352539" y="780" type="line"/>
      <point x="770.2461166381836" y="1125" type="line"/>
      <point x="739.6846160888672" y="1125" type="line"/>
      <point x="672.6234130859375" y="780" type="line"/>
      <point x="383.1849136352539" y="780" type="line"/>
      <point x="450.2461166381836" y="1125" type="line"/>
      <point x="419.6846160888672" y="1125" type="line"/>
      <point x="352.6234130859375" y="780" type="line"/>
      <point x="185" y="780" type="line"/>
      <point x="185" y="750" type="line"/>
      <point x="346.79199981689453" y="750" type="line"/>
      <point x="282.64649963378906" y="420" type="line"/>
      <point x="105" y="420" type="line"/>
      <point x="105" y="390" type="line"/>
      <point x="276.8150863647461" y="390" type="line"/>
    </contour>
    <contour>
      <point x="313.20800018310547" y="420" type="line"/>
      <point x="377.35350036621094" y="750" type="line"/>
      <point x="666.7919998168945" y="750" type="line"/>
      <point x="602.6464996337891" y="420" type="line"/>
    </contour>
  </outline>
</glyph>
<glyph name="dollar" format="2">
  <advance width="1020"/>
  <unicode hex="0024"/>
  <outline>
    <contour>
      <point x="436.01515197753906" y="636.8299026489258" type="line"/>
      <point x="291.0968777576269" y="664.6760494634027"/>
      <point x="182.72727272727275" y="769.4619516993645"/>
      <point x="182.7272727272728" y="895.2272727272726" type="curve"/>
      <point x="182.72727272727275" y="1037.387041145998"/>
      <point x="321.03384911937803" y="1153.5743050826468"/>
      <point x="494.4545440673828" y="1160.1488952636719" type="curve"/>
      <point x="494.4545440673828" y="625.6007308959961" type="line"/>
    </contour>
    <contour>
      <point x="117.2727279663086" y="299.3181838989258" type="line"/>
      <point x="117.27272727272731" y="130.00782501280636"/>
      <point x="284.89628889854055" y="-8.215723063160311"/>
      <point x="494.4545440673828" y="-14.748291015625" type="curve"/>
      <point x="494.4545440673828" y="-130.90908813476562" type="line"/>
      <point x="525.5454559326172" y="-130.90908813476562" type="line"/>
      <point x="525.5454559326172" y="-14.748275756835938" type="line"/>
      <point x="735.1037111014597" y="-8.21572306316029"/>
      <point x="902.7272727272729" y="130.00782501280628"/>
      <point x="902.727272727273" y="299.31818181818176" type="curve"/>
      <point x="902.7272727272727" y="447.90030121384694"/>
      <point x="773.5271894066682" y="571.97672473385"/>
      <point x="600.3965065696023" y="605.2439075816761" type="curve"/>
      <point x="525.5454559326172" y="619.6265869140625" type="line"/>
      <point x="525.5454559326172" y="1160.1486587524414" type="line"/>
      <point x="698.9661508806221" y="1153.5743050826466"/>
      <point x="837.2727272727273" y="1037.3870411459977"/>
      <point x="837.2727272727273" y="895.2272727272726" type="curve"/>
      <point x="870" y="895.2272720336914" type="line"/>
      <point x="870.0" y="1055.362249418716"/>
      <point x="717.0354363827739" y="1186.1612204050161"/>
      <point x="525.5454559326172" y="1192.906021118164" type="curve"/>
      <point x="525.5454559326172" y="1309.0909118652344" type="line"/>
      <point x="494.4545440673828" y="1309.0909118652344" type="line"/>
      <point x="494.4545440673828" y="1192.898193359375" type="line"/>
      <point x="302.96456361722613" y="1186.1612204050161"/>
      <point x="150.00000000000003" y="1055.362249418716"/>
      <point x="149.9999999999999" y="895.2272727272725" type="curve"/>
      <point x="150.00000000000003" y="753.614789388706"/>
      <point x="269.720622241615" y="635.4472158389725"/>
      <point x="429.7304243607955" y="604.7226645729758" type="curve"/>
      <point x="494.4545440673828" y="592.2945556640625" type="line"/>
      <point x="494.4545440673828" y="17.995933532714844" type="line"/>
      <point x="302.9645636172262" y="24.36229991679031"/>
      <point x="150.00000000000009" y="147.9778033889689"/>
      <point x="150.00000000000006" y="299.3181818181818" type="curve"/>
    </contour>
    <contour>
      <point x="870.0" y="299.3181818181818" type="curve"/>
      <point x="870.0" y="147.9778033889688"/>
      <point x="717.0354363827739" y="24.362299916790306"/>
      <point x="525.5454559326172" y="17.99121856689453" type="curve"/>
      <point x="525.5454559326172" y="586.324577331543" type="line"/>
      <point x="594.1159362792969" y="573.1579055786133" type="line"/>
      <point x="752.1556070566671" y="542.8116508476475"/>
      <point x="870.0" y="432.0794080511766"/>
    </contour>
  </outline>
</glyph>
<glyph name="percent" format="2">
  <advance width="1020"/>
  <unicode hex="0025"/>
  <outline>
    <contour>
      <point x="607.5" y="938.125" type="curve" smooth="yes"/>
      <point x="607.5" y="1077.1386"/>
      <point x="494.6386" y="1190.0"/>
      <point x="355.625" y="1190.0" type="curve" smooth="yes"/>
      <point x="216.6114" y="1190.0"/>
      <point x="103.75" y="1077.1386"/>
      <point x="103.75" y="938.125" type="curve" smooth="yes"/>
      <point x="103.75" y="799.1114"/>
      <point x="216.6114" y="686.25"/>
      <point x="355.625" y="686.25" type="curve" smooth="yes"/>
      <point x="494.6386" y="686.25"/>
      <point x="607.5" y="799.1114"/>
    </contour>
    <contour>
      <point x="575.0" y="938.125" type="curve" smooth="yes"/>
      <point x="575.0" y="817.04864"/>
      <point x="476.70136" y="718.75"/>
      <point x="355.625" y="718.75" type="curve" smooth="yes"/>
      <point x="234.54864" y="718.75"/>
      <point x="136.25" y="817.04864"/>
      <point x="136.25" y="938.125" type="curve" smooth="yes"/>
      <point x="136.25" y="1059.20136"/>
      <point x="234.54864" y="1157.5"/>
      <point x="355.625" y="1157.5" type="curve" smooth="yes"/>
      <point x="476.70136" y="1157.5"/>
      <point x="575.0" y="1059.20136"/>
    </contour>
    <contour>
      <point x="103.75" y="373.75" type="line"/>
      <point x="916.25" y="760.26008" type="line"/>
      <point x="916.25" y="796.25" type="line"/>
      <point x="103.75" y="409.73992" type="line"/>
    </contour>
    <contour>
      <point x="916.25" y="231.875" type="curve" smooth="yes"/>
      <point x="916.25" y="370.8886"/>
      <point x="803.3886" y="483.75"/>
      <point x="664.375" y="483.75" type="curve" smooth="yes"/>
      <point x="525.3614" y="483.75"/>
      <point x="412.5" y="370.8886"/>
      <point x="412.5" y="231.875" type="curve" smooth="yes"/>
      <point x="412.5" y="92.8614"/>
      <point x="525.3614" y="-20.0"/>
      <point x="664.375" y="-20.0" type="curve" smooth="yes"/>
      <point x="803.3886" y="-20.0"/>
      <point x="916.25" y="92.8614"/>
    </contour>
    <contour>
      <point x="883.75" y="231.875" type="curve" smooth="yes"/>
      <point x="883.75" y="110.79864"/>
      <point x="785.45136" y="12.5"/>
      <point x="664.375" y="12.5" type="curve" smooth="yes"/>
      <point x="543.29864" y="12.5"/>
      <point x="445.0" y="110.79864"/>
      <point x="445.0" y="231.875" type="curve" smooth="yes"/>
      <point x="445.0" y="352.95136"/>
      <point x="543.29864" y="451.25"/>
      <point x="664.375" y="451.25" type="curve" smooth="yes"/>
      <point x="785.45136" y="451.25"/>
      <point x="883.75" y="352.95136"/>
    </contour>
  </outline>
</glyph>
<glyph name="ampersand" format="2">
  <advance width="1020"/>
  <unicode hex="0026"/>
  <outline>
    <contour>
      <point x="301.9571304321289" y="850.7017517089844" type="line"/>
      <point x="275.08479639323383" y="884.4849052152165"/>
      <point x="260.45505133895216" y="926.378061346122"/>
      <point x="260.45505133895216" y="969.5454545454545" type="curve"/>
      <point x="260.45505133895216" y="1074.9110492727273"/>
      <point x="345.99854752077033" y="1160.4545454545453"/>
      <point x="451.3641422480431" y="1160.4545454545453" type="curve" smooth="yes"/>
      <point x="556.7297369753157" y="1160.4545454545453"/>
      <point x="642.273233157134" y="1074.9110492727273"/>
      <point x="642.273233157134" y="969.5454545454545" type="curve"/>
      <point x="642.273233157134" y="907.5006393413809"/>
      <point x="612.121824853122" y="849.3256243638746"/>
      <point x="561.4257634898377" y="813.5559660490713" type="curve"/>
      <point x="414.15686798095703" y="709.647346496582" type="line"/>
    </contour>
    <contour>
      <point x="248.82751103343014" y="552.9422238100043" type="curve"/>
      <point x="407.77848052978516" y="665.093376159668" type="line"/>
      <point x="789.278450012207" y="185.48219299316406" type="line"/>
      <point x="705.22014248186" y="83.08844334066578"/>
      <point x="577.6830539800967" y="17.727272727272734"/>
      <point x="435.00050588440683" y="17.72727272727272" type="curve"/>
      <point x="263.4051087571339" y="17.727272727272727"/>
      <point x="124.09141497531581" y="149.70866683636365"/>
      <point x="124.09141497531581" y="312.2727272727273" type="curve"/>
      <point x="124.09141497531587" y="407.999013587584"/>
      <point x="170.610730644363" y="497.7547509814507"/>
    </contour>
    <contour>
      <point x="451.3641422480431" y="1193.181818181818" type="curve" smooth="yes"/>
      <point x="327.93587413895216" y="1193.181818181818"/>
      <point x="227.72777861167944" y="1092.9737226545453"/>
      <point x="227.72777861167944" y="969.5454545454545" type="curve"/>
      <point x="227.72777861167944" y="918.977936797665"/>
      <point x="244.8654799609808" y="869.9030967586043"/>
      <point x="276.34449989741233" y="830.3285448974051" type="curve"/>
      <point x="387.3715515136719" y="690.748405456543" type="line"/>
      <point x="229.95980072021484" y="579.6832809448242" type="line"/>
      <point x="143.05227076920664" y="518.3638647268643"/>
      <point x="91.3641422480431" y="418.63526762256805"/>
      <point x="91.3641422480431" y="312.27272727272737" type="curve"/>
      <point x="91.3641422480431" y="131.6459934545455"/>
      <point x="245.34243537531577" y="-14.999999999999998"/>
      <point x="435.00050588440666" y="-14.999999999999998" type="curve"/>
      <point x="585.3470643586754" y="-14.999999999999998"/>
      <point x="719.998507814073" y="52.73324270440989"/>
      <point x="810.0785140991211" y="159.3329315185547" type="curve"/>
      <point x="936.8176498413086" y="0" type="line"/>
      <point x="978.635856628418" y="0" type="line"/>
      <point x="830.8956832885742" y="185.73485565185547" type="line"/>
      <point x="890.6182341176016" y="267.0382997533395"/>
      <point x="925.9095967934976" y="367.384846383084"/>
      <point x="925.9095967934976" y="475.9090909090909" type="curve"/>
      <point x="893.1823272705078" y="475.9090881347656" type="line"/>
      <point x="893.1823240662249" y="377.82602891946414"/>
      <point x="862.2960060142938" y="286.89992996569885"/>
      <point x="809.727424621582" y="212.34700775146484" type="curve"/>
      <point x="434.56380462646484" y="683.992317199707" type="line"/>
      <point x="580.2934722900391" y="786.8149108886719" type="line"/>
      <point x="639.6802847282784" y="828.7165106184609"/>
      <point x="675.0005058844067" y="896.8643853063967"/>
      <point x="675.0005058844067" y="969.5454545454545" type="curve"/>
      <point x="675.0005058844067" y="1092.9737226545453"/>
      <point x="574.792410357134" y="1193.181818181818"/>
    </contour>
  </outline>
</glyph>
<glyph name="quotesingle" format="2">
  <advance width="1020"/>
  <unicode hex="0027"/>
  <outline>
    <contour>
      <point x="493.6363636363636" y="1014.5454545454545" type="line"/>
      <point x="526.3636363636364" y="1014.5454545454545" type="line"/>
      <point x="526.3636363636364" y="1309.090909090909" type="line"/>
      <point x="493.6363636363636" y="1309.090909090909" type="line"/>
    </contour>
  </outline>
</glyph>
<glyph name="parenleft" format="2">
  <advance width="1020"/>
  <unicode hex="0028"/>
  <outline>
    <contour>
      <point x="635.7026134058822" y="-32.5" type="line"/>
      <point x="486.07295009282814" y="365.57008644370376"/>
      <point x="486.0729500928279" y="804.4299135562952"/>
      <point x="635.7026110354752" y="1202.4999999999993" type="curve"/>
      <point x="601.0278220698226" y="1202.5" type="line"/>
      <point x="454.29738659411777" y="803.9154916190796"/>
      <point x="454.2978797497031" y="366.0802015824189"/>
      <point x="601.0293015365788" y="-32.5" type="curve"/>
    </contour>
  </outline>
</glyph>
<glyph name="parenright" format="2">
  <advance width="1020"/>
  <unicode hex="0029"/>
  <outline>
    <contour>
      <point x="388.28791" y="-16.25" type="curve"/>
      <point x="422.83726" y="-16.25" type="line"/>
      <point x="561.7114" y="372.5435"/>
      <point x="561.71209" y="797.45042"/>
      <point x="422.8393" y="1186.25" type="curve"/>
      <point x="388.28792" y="1186.25" type="line"/>
      <point x="529.8952" y="797.9235"/>
      <point x="529.8952" y="372.0765"/>
    </contour>
  </outline>
</glyph>
<glyph name="asterisk" format="2">
  <advance width="980"/>
  <unicode hex="002A"/>
  <outline>
    <contour>
      <point x="183.7212371826172" y="330.4903793334961" type="line"/>
      <point x="198.7212371826172" y="304.5096206665039" type="line"/>
      <point x="475" y="464.0192413330078" type="line"/>
      <point x="475" y="145" type="line"/>
      <point x="505" y="145" type="line"/>
      <point x="505" y="464.0192413330078" type="line"/>
      <point x="781.2787628173828" y="304.5096206665039" type="line"/>
      <point x="796.2787628173828" y="330.4903793334961" type="line"/>
      <point x="520" y="490" type="line"/>
      <point x="796.2787628173828" y="649.5096206665039" type="line"/>
      <point x="781.2787628173828" y="675.4903793334961" type="line"/>
      <point x="505" y="515.9807586669922" type="line"/>
      <point x="505" y="835" type="line"/>
      <point x="475" y="835" type="line"/>
      <point x="475" y="515.9807586669922" type="line"/>
      <point x="198.7212371826172" y="675.4903793334961" type="line"/>
      <point x="183.7212371826172" y="649.5096206665039" type="line"/>
      <point x="460" y="490" type="line"/>
    </contour>
  </outline>
</glyph>
<glyph name="plus" format="2">
  <advance width="1020"/>
  <unicode hex="002B"/>
  <outline>
    <contour>
      <point x="120" y="465.83333587646484" type="line"/>
      <point x="493.75" y="465.83333587646484" type="line"/>
      <point x="493.75" y="92.08333587646484" type="line"/>
      <point x="526.25" y="92.08333587646484" type="line"/>
      <point x="526.25" y="465.83333587646484" type="line"/>
      <point x="900" y="465.83333587646484" type="line"/>
      <point x="900" y="498.33333587646484" type="line"/>
      <point x="526.25" y="498.33333587646484" type="line"/>
      <point x="526.25" y="872.0833358764648" type="line"/>
      <point x="493.75" y="872.0833358764648" type="line"/>
      <point x="493.75" y="498.33333587646484" type="line"/>
      <point x="120" y="498.33333587646484" type="line"/>
    </contour>
  </outline>
</glyph>
<glyph name="comma" format="2">
  <advance width="1020"/>
  <unicode hex="002C"/>
  <outline>
    <contour>
      <point x="437.4963150024414" y="-327.2727279663086" type="line"/>
      <point x="506.4343522546318" y="-207.8685479050252"/>
      <point x="542.7272727272727" y="-72.42152474607273"/>
      <point x="542.7272727272727" y="65.45454545454545" type="curve"/>
      <point x="542.7272720336914" y="212.7272720336914" type="line"/>
      <point x="477.2727279663086" y="212.7272720336914" type="line"/>
      <point x="477.2727279663086" y="65.45454406738281" type="line"/>
      <point x="477.27272727272725" y="-60.93185222935454"/>
      <point x="444.0042168394731" y="-185.09162345839434"/>
      <point x="380.8110179975231" y="-294.54545454545445" type="curve"/>
    </contour>
  </outline>
</glyph>
<glyph name="hyphen" format="2">
  <advance width="1020"/>
  <unicode hex="002D"/>
  <outline>
    <contour>
      <point x="117.27272727272731" y="469.09090909090907" type="line"/>
      <point x="902.7272727272727" y="469.09090909090907" type="line"/>
      <point x="902.7272727272727" y="501.81818181818176" type="line"/>
      <point x="117.27272727272731" y="501.81818181818176" type="line"/>
    </contour>
  </outline>
</glyph>
<glyph name="period" format="2">
  <advance width="980"/>
  <unicode hex="002E"/>
  <outline>
    <contour>
      <point x="565.0" y="120.0" type="curve" smooth="yes"/>
      <point x="565.0" y="161.3936265"/>
      <point x="531.3936265" y="195.0"/>
      <point x="490.0" y="195.0" type="curve" smooth="yes"/>
      <point x="448.6063735" y="195.0"/>
      <point x="415.0" y="161.3936265"/>
      <point x="415.0" y="120.0" type="curve" smooth="yes"/>
      <point x="415.0" y="78.6063735"/>
      <point x="448.6063735" y="45.0"/>
      <point x="490.0" y="45.0" type="curve" smooth="yes"/>
      <point x="531.3936265" y="44.999999999999986"/>
      <point x="565.0" y="78.60637349999999"/>
    </contour>
  </outline>
</glyph>
<glyph name="slash" format="2">
  <advance width="1020"/>
  <unicode hex="002F"/>
  <outline>
    <contour>
      <point x="288.87001" y="0.0" type="line"/>
      <point x="323.45579" y="0.0" type="line"/>
      <point x="761.12999" y="1202.5" type="line"/>
      <point x="726.54421" y="1202.5" type="line"/>
    </contour>
  </outline>
</glyph>
<glyph name="zero" format="2">
  <advance width="1020"/>
  <unicode hex="0030"/>
  <outline>
    <contour>
      <point x="510.0" y="1157.5" type="curve" smooth="yes"/>
      <point x="658.44016677596" y="1157.5"/>
      <point x="784.7628816297341" y="1062.0507616732907"/>
      <point x="830.8883056640625" y="929.202880859375" type="curve"/>
      <point x="178.8759307861328" y="276.5361022949219" type="line"/>
      <point x="173.34020575763256" y="300.8031321942306"/>
      <point x="170.41666999999998" y="326.10451094232"/>
      <point x="170.41666999999998" y="352.08333000000005" type="curve"/>
      <point x="170.4166717529297" y="817.9166717529297" type="line"/>
      <point x="170.41667" y="1005.33781"/>
      <point x="322.57886" y="1157.5"/>
    </contour>
    <contour>
      <point x="849.5833282470703" y="352.0833282470703" type="line"/>
      <point x="849.58333" y="164.66219"/>
      <point x="697.42114" y="12.5"/>
      <point x="510.0" y="12.5" type="curve" smooth="yes"/>
      <point x="361.55983322404" y="12.5"/>
      <point x="235.237118370266" y="107.94923832670924"/>
      <point x="189.1116943359375" y="240.797119140625" type="curve"/>
      <point x="841.1240692138672" y="893.4638977050781" type="line"/>
      <point x="846.6597942423675" y="869.1968678057693"/>
      <point x="849.58333" y="843.8954890576799"/>
      <point x="849.58333" y="817.91667" type="curve"/>
    </contour>
    <contour>
      <point x="137.9166717529297" y="352.0833282470703" type="line"/>
      <point x="137.91667" y="146.72495"/>
      <point x="304.64162" y="-20.0"/>
      <point x="510.0" y="-20.0" type="curve" smooth="yes"/>
      <point x="715.35838" y="-20.0"/>
      <point x="882.08333" y="146.72495"/>
      <point x="882.08333" y="352.08333" type="curve"/>
      <point x="882.0833282470703" y="817.9166717529297" type="line"/>
      <point x="882.08333" y="1023.27505"/>
      <point x="715.35838" y="1190.0"/>
      <point x="510.0" y="1190.0" type="curve" smooth="yes"/>
      <point x="304.64162" y="1190.0"/>
      <point x="137.91667" y="1023.27505"/>
      <point x="137.91667" y="817.91667" type="curve"/>
    </contour>
  </outline>
</glyph>
<glyph name="one" format="2">
  <advance width="980"/>
  <unicode hex="0031"/>
  <outline>
    <contour>
      <point x="190" y="45" type="line"/>
      <point x="840" y="45" type="line"/>
      <point x="840" y="75" type="line"/>
      <point x="530" y="75" type="line"/>
      <point x="530" y="1125" type="line"/>
      <point x="500" y="1125" type="line"/>
      <point x="190" y="948.1791229248047" type="line"/>
      <point x="190" y="913.6420364379883" type="line"/>
      <point x="500" y="1090.4629135131836" type="line"/>
      <point x="500" y="75" type="line"/>
      <point x="190" y="75" type="line"/>
    </contour>
  </outline>
</glyph>
<glyph name="two" format="2">
  <advance width="980"/>
  <unicode hex="0032"/>
  <outline>
    <contour>
      <point x="155" y="45" type="line"/>
      <point x="805" y="45" type="line"/>
      <point x="805" y="75" type="line"/>
      <point x="198.1408462524414" y="75" type="line"/>
      <point x="706.0039215087891" y="566.4465179443359" type="line"/>
      <point x="769.2766615874466" y="627.673984703358"/>
      <point x="805.0" y="711.953180141492"/>
      <point x="805.0" y="800.0" type="curve"/>
      <point x="805.0" y="979.3723815000001"/>
      <point x="659.3723815000001" y="1125.0"/>
      <point x="480.0" y="1125.0" type="curve" smooth="yes"/>
      <point x="300.62761850000004" y="1125.0"/>
      <point x="155.0" y="979.3723815000001"/>
      <point x="155.0" y="800.0" type="curve"/>
      <point x="185" y="800" type="line"/>
      <point x="185.0" y="962.8149309"/>
      <point x="317.1850691" y="1095.0"/>
      <point x="480.0" y="1095.0" type="curve" smooth="yes"/>
      <point x="642.8149309" y="1095.0"/>
      <point x="775.0" y="962.8149309"/>
      <point x="775.0" y="800.0" type="curve"/>
      <point x="775.0" y="720.080578897662"/>
      <point x="742.5742005178361" y="643.5810014999711"/>
      <point x="685.1420189790238" y="588.0053018370273" type="curve"/>
      <point x="155" y="75" type="line"/>
    </contour>
  </outline>
</glyph>
<glyph name="three" format="2">
  <advance width="1020"/>
  <unicode hex="0033"/>
  <outline>
    <contour>
      <point x="142.3333282470703" y="297.6126022338867" type="line"/>
      <point x="142.33333" y="122.45093"/>
      <point x="306.54426" y="-20.0"/>
      <point x="509.0" y="-20.0" type="curve" smooth="yes"/>
      <point x="711.45574" y="-20.0"/>
      <point x="875.66667" y="122.45093"/>
      <point x="875.66667" y="297.6126" type="curve"/>
      <point x="875.66667" y="438.14813591273"/>
      <point x="769.9615034781929" y="557.6272523852222"/>
      <point x="623.6082992553711" y="599.3634262084961" type="curve"/>
      <point x="760.863690070433" y="640.5527561838169"/>
      <point x="859.41667" y="753.63454271076"/>
      <point x="859.41667" y="886.3626" type="curve"/>
      <point x="859.41667" y="1053.81702"/>
      <point x="702.54753" y="1190.0"/>
      <point x="509.0" y="1190.0" type="curve" smooth="yes"/>
      <point x="315.45247" y="1190.0"/>
      <point x="158.58333" y="1053.81702"/>
      <point x="158.58333" y="886.3626" type="curve"/>
      <point x="191.0833282470703" y="886.3626022338867" type="line"/>
      <point x="191.08333" y="1035.88079"/>
      <point x="333.38851" y="1157.5"/>
      <point x="509.0" y="1157.5" type="curve" smooth="yes"/>
      <point x="684.61149" y="1157.5"/>
      <point x="826.91667" y="1035.88079"/>
      <point x="826.91667" y="886.3626" type="curve"/>
      <point x="826.91667" y="771.3681224170119"/>
      <point x="742.7173319485651" y="615.2252129920992"/>
      <point x="466.25000000000006" y="615.2251976235727" type="curve"/>
      <point x="452.125" y="615.2251968383789" type="line"/>
      <point x="452.125" y="582.7251968383789" type="line"/>
      <point x="466.25" y="582.7251968383789" type="line"/>
      <point x="752.8399299003732" y="582.7251968383789"/>
      <point x="843.16667" y="419.2471681595899"/>
      <point x="843.16667" y="297.6126" type="curve"/>
      <point x="843.16667" y="140.38746999999995"/>
      <point x="693.5872900000002" y="12.5"/>
      <point x="509.0" y="12.5" type="curve" smooth="yes"/>
      <point x="324.41271" y="12.5"/>
      <point x="174.83333" y="140.38747"/>
      <point x="174.83333" y="297.6126" type="curve"/>
    </contour>
  </outline>
</glyph>
<glyph name="four" format="2">
  <advance width="1020"/>
  <unicode hex="0034"/>
  <outline>
    <contour>
      <point x="135.35940551757812" y="351.0089874267578" type="line"/>
      <point x="710.9090881347656" y="1123.4086456298828" type="line"/>
      <point x="710.9090881347656" y="351.0089874267578" type="line"/>
    </contour>
    <contour>
      <point x="94.54545593261719" y="318.2817153930664" type="line"/>
      <point x="710.9090881347656" y="318.2817153930664" type="line"/>
      <point x="710.9090881347656" y="0" type="line"/>
      <point x="743.636360168457" y="0" type="line"/>
      <point x="743.636360168457" y="318.2817153930664" type="line"/>
      <point x="945.4545440673828" y="318.2817153930664" type="line"/>
      <point x="945.4545440673828" y="351.0089874267578" type="line"/>
      <point x="743.636360168457" y="351.0089874267578" type="line"/>
      <point x="743.636360168457" y="1178.1818161010742" type="line"/>
      <point x="710.9090881347656" y="1178.1818161010742" type="line"/>
      <point x="94.54545593261719" y="351.0089874267578" type="line"/>
    </contour>
  </outline>
</glyph>
<glyph name="five" format="2">
  <advance width="1020"/>
  <unicode hex="0035"/>
  <outline>
    <contour>
      <point x="872.6641152121804" y="361.36363636363626" type="curve" smooth="yes"/>
      <point x="872.6641152121804" y="569.0843802545454"/>
      <point x="704.0212227394532" y="737.7272727272726"/>
      <point x="496.3004788485441" y="737.7272727272726" type="curve" smooth="yes"/>
      <point x="374.31810862494814" y="737.7272727272726"/>
      <point x="265.8118647600772" y="679.5702132681145"/>
      <point x="197.02025604248047" y="589.4772796630859" type="curve"/>
      <point x="255.45582580566406" y="1145.4545440673828" type="line"/>
      <point x="843.8867340087891" y="1145.4545440673828" type="line"/>
      <point x="843.8867340087891" y="1178.1818161010742" type="line"/>
      <point x="225.9880599975586" y="1178.1818161010742" type="line"/>
      <point x="157.33588409423828" y="525" type="line"/>
      <point x="194.11370849609375" y="525" type="line"/>
      <point x="252.31852157229707" y="632.1786354174225"/>
      <point x="365.8724341013718" y="705.0"/>
      <point x="496.30047884854406" y="705.0000000000001" type="curve" smooth="yes"/>
      <point x="685.9585493576351" y="705.0"/>
      <point x="839.9368424849076" y="551.0217068727271"/>
      <point x="839.9368424849076" y="361.36363636363626" type="curve" smooth="yes"/>
      <point x="839.9368424849076" y="171.70556585454537"/>
      <point x="685.9585493576349" y="17.727272727272727"/>
      <point x="496.300478848544" y="17.727272727272727" type="curve" smooth="yes"/>
      <point x="365.8728134175127" y="17.727272727272727"/>
      <point x="252.31918205664743" y="90.54821374636157"/>
      <point x="194.11434104225856" y="197.72727272727272" type="curve"/>
      <point x="157.33588409423828" y="197.7272720336914" type="line"/>
      <point x="218.25967515348958" y="71.87166378650761"/>
      <point x="347.2151465431607" y="-14.999999999999984"/>
      <point x="496.30047884854395" y="-14.999999999999968" type="curve" smooth="yes"/>
      <point x="704.0212227394532" y="-14.999999999999998"/>
      <point x="872.6641152121804" y="153.6428924727272"/>
    </contour>
  </outline>
</glyph>
<glyph name="six" format="2">
  <advance width="1020"/>
  <unicode hex="0036"/>
  <outline>
    <contour>
      <point x="889.090909090909" y="364.09090909090907" type="curve" smooth="yes"/>
      <point x="889.090909090909" y="573.3168757636364"/>
      <point x="719.2259666727273" y="743.1818181818181"/>
      <point x="510.0" y="743.1818181818181" type="curve" smooth="yes"/>
      <point x="430.2520582209233" y="743.1818181818181"/>
      <point x="356.2225119706462" y="718.5037274659302"/>
      <point x="295.13809967041016" y="676.3668899536133" type="curve"/>
      <point x="602.6506881713867" y="1178.1818161010742" type="line"/>
      <point x="564.2672348022461" y="1178.1818161010742" type="line"/>
      <point x="186.77186584472656" y="562.1653671264648" type="line"/>
      <point x="186.7843246459961" y="562.1577301025391" type="line"/>
      <point x="151.350100425897" y="504.51362988680603"/>
      <point x="130.9090909090909" y="436.6705600258114"/>
      <point x="130.9090909090909" y="364.09090909090907" type="curve" smooth="yes"/>
      <point x="130.90909090909093" y="154.8649424181818"/>
      <point x="300.7740333272727" y="-14.999999999999998"/>
      <point x="509.99999999999994" y="-14.999999999999998" type="curve" smooth="yes"/>
      <point x="719.2259666727273" y="-15.00000000000006"/>
      <point x="889.090909090909" y="154.86494241818173"/>
    </contour>
    <contour>
      <point x="856.3636363636363" y="364.09090909090907" type="curve" smooth="yes"/>
      <point x="856.3636363636363" y="172.92761579999993"/>
      <point x="701.163293290909" y="17.727272727272663"/>
      <point x="509.99999999999994" y="17.727272727272727" type="curve" smooth="yes"/>
      <point x="318.8367067090909" y="17.727272727272727"/>
      <point x="163.63636363636365" y="172.9276158"/>
      <point x="163.63636363636365" y="364.09090909090907" type="curve" smooth="yes"/>
      <point x="163.63636363636365" y="555.2542023818181"/>
      <point x="318.83670670909095" y="710.4545454545454"/>
      <point x="510.0" y="710.4545454545454" type="curve" smooth="yes"/>
      <point x="701.163293290909" y="710.4545454545454"/>
      <point x="856.3636363636363" y="555.2542023818181"/>
    </contour>
  </outline>
</glyph>
<glyph name="seven" format="2">
  <advance width="1020"/>
  <unicode hex="0037"/>
  <outline>
    <contour>
      <point x="356.2337646484375" y="0" type="line"/>
      <point x="392.0035858154297" y="0" type="line"/>
      <point x="897.2727279663086" y="1145.4545440673828" type="line"/>
      <point x="897.2727279663086" y="1178.1818161010742" type="line"/>
      <point x="122.7272720336914" y="1178.1818161010742" type="line"/>
      <point x="122.7272720336914" y="1145.4545440673828" type="line"/>
      <point x="861.5029067993164" y="1145.4545440673828" type="line"/>
    </contour>
  </outline>
</glyph>
<glyph name="eight" format="2">
  <advance width="1020"/>
  <unicode hex="0038"/>
  <outline>
    <contour>
      <point x="891.8181818181818" y="301.95697432338653" type="curve" smooth="yes"/>
      <point x="891.8181818181818" y="442.1231674917543"/>
      <point x="781.9786945584981" y="561.1610468324483"/>
      <point x="629.9155120849609" y="602.9385452270508" type="curve"/>
      <point x="772.7908080804272" y="644.1819986143962"/>
      <point x="875.4545454545454" y="757.0550650700261"/>
      <point x="875.4545454545454" y="889.6842470506592" type="curve" smooth="yes"/>
      <point x="875.4545454545455" y="1057.1891150914644"/>
      <point x="711.6998527636363" y="1193.181818181818"/>
      <point x="510.0" y="1193.181818181818" type="curve" smooth="yes"/>
      <point x="308.30014723636367" y="1193.181818181818"/>
      <point x="144.54545454545456" y="1057.1891150914644"/>
      <point x="144.54545454545456" y="889.6842470506592" type="curve" smooth="yes"/>
      <point x="144.54545454545456" y="757.0508774483251"/>
      <point x="247.21567501288888" y="644.1748709462705"/>
      <point x="390.0980987548828" y="602.935432434082" type="curve"/>
      <point x="238.0278855868351" y="561.1681778993618"/>
      <point x="128.18181818181824" y="442.1273658913101"/>
      <point x="128.18181818181824" y="301.9569743233865" type="curve" smooth="yes"/>
      <point x="128.1818181818182" y="127.0236595005552"/>
      <point x="299.26881054545447" y="-14.999999999999998"/>
      <point x="509.99999999999994" y="-14.999999999999998" type="curve" smooth="yes"/>
      <point x="720.7311894545453" y="-15.00000000000006"/>
      <point x="891.8181818181818" y="127.02365950055507"/>
    </contour>
    <contour>
      <point x="842.7272727272727" y="889.6842470506592" type="curve" smooth="yes"/>
      <point x="842.7272727272727" y="740.2420523916725"/>
      <point x="693.637179381818" y="618.9139486467731"/>
      <point x="509.99999999999994" y="618.9139486467732" type="curve" smooth="yes"/>
      <point x="326.3628206181818" y="618.9139486467732"/>
      <point x="177.27272727272728" y="740.2420523916725"/>
      <point x="177.27272727272728" y="889.6842470506592" type="curve" smooth="yes"/>
      <point x="177.27272727272728" y="1039.126441709646"/>
      <point x="326.3628206181818" y="1160.4545454545453"/>
      <point x="510.0" y="1160.4545454545453" type="curve" smooth="yes"/>
      <point x="693.6371793818182" y="1160.4545454545453"/>
      <point x="842.7272727272727" y="1039.126441709646"/>
    </contour>
    <contour>
      <point x="859.090909090909" y="301.95697432338653" type="curve" smooth="yes"/>
      <point x="859.090909090909" y="145.08633288237326"/>
      <point x="702.6685160727272" y="17.727272727272663"/>
      <point x="509.99999999999994" y="17.727272727272727" type="curve" smooth="yes"/>
      <point x="317.33148392727264" y="17.727272727272727"/>
      <point x="160.9090909090909" y="145.08633288237334"/>
      <point x="160.9090909090909" y="301.95697432338653" type="curve" smooth="yes"/>
      <point x="160.9090909090909" y="458.82761576439975"/>
      <point x="317.33148392727276" y="586.1866759195003"/>
      <point x="510.0" y="586.1866759195003" type="curve" smooth="yes"/>
      <point x="702.6685160727272" y="586.1866759195003"/>
      <point x="859.090909090909" y="458.82761576439975"/>
    </contour>
  </outline>
</glyph>
<glyph name="nine" format="2">
  <advance width="1020"/>
  <unicode hex="0039"/>
  <outline>
    <contour>
      <point x="886.4583333333334" y="808.5416666666666" type="curve" smooth="yes"/>
      <point x="886.4583333333333" y="1016.3146752375"/>
      <point x="717.7730085708333" y="1184.9999999999998"/>
      <point x="510.0" y="1184.9999999999998" type="curve" smooth="yes"/>
      <point x="302.2269914291667" y="1184.9999999999998"/>
      <point x="133.54166666666669" y="1016.3146752375"/>
      <point x="133.54166666666669" y="808.5416666666666" type="curve" smooth="yes"/>
      <point x="133.54166666666669" y="600.7686580958332"/>
      <point x="302.2269914291666" y="432.08333333333326"/>
      <point x="509.99999999999994" y="432.08333333333326" type="curve" smooth="yes"/>
      <point x="589.1957988119017" y="432.08333333333326"/>
      <point x="662.7126747958545" y="456.59107715952285"/>
      <point x="723.3735885620117" y="498.4404525756836" type="curve"/>
      <point x="417.9288864135742" y="0" type="line"/>
      <point x="456.04579162597656" y="0" type="line"/>
      <point x="830.9834976196289" y="611.8427276611328" type="line"/>
      <point x="830.97265625" y="611.8493728637695" type="line"/>
      <point x="866.1598604299321" y="669.0960457915257"/>
      <point x="886.4583333333334" y="736.4670799505217"/>
    </contour>
    <contour>
      <point x="853.9583333333333" y="808.5416666666666" type="curve" smooth="yes"/>
      <point x="853.9583333333333" y="618.7058962458333"/>
      <point x="699.8357704208333" y="464.5833333333332"/>
      <point x="509.99999999999994" y="464.58333333333326" type="curve" smooth="yes"/>
      <point x="320.16422957916666" y="464.58333333333326"/>
      <point x="166.04166666666669" y="618.7058962458333"/>
      <point x="166.04166666666669" y="808.5416666666666" type="curve" smooth="yes"/>
      <point x="166.04166666666669" y="998.3774370874999"/>
      <point x="320.16422957916666" y="1152.4999999999998"/>
      <point x="510.0" y="1152.4999999999998" type="curve" smooth="yes"/>
      <point x="699.8357704208333" y="1152.4999999999998"/>
      <point x="853.9583333333333" y="998.3774370874999"/>
    </contour>
  </outline>
</glyph>
<glyph name="colon" format="2">
  <advance width="980"/>
  <unicode hex="003A"/>
  <outline>
    <contour>
      <point x="565.0" y="660.0" type="curve" smooth="yes"/>
      <point x="565.0" y="701.3936265"/>
      <point x="531.3936265" y="735.0"/>
      <point x="490.0" y="735.0" type="curve" smooth="yes"/>
      <point x="448.6063735" y="735.0"/>
      <point x="415.0" y="701.3936265"/>
      <point x="415.0" y="660.0" type="curve" smooth="yes"/>
      <point x="415.0" y="618.6063735"/>
      <point x="448.6063735" y="585.0"/>
      <point x="490.0" y="585.0" type="curve" smooth="yes"/>
      <point x="531.3936265" y="585.0"/>
      <point x="565.0" y="618.6063735"/>
    </contour>
    <contour>
      <point x="565.0" y="120.0" type="curve" smooth="yes"/>
      <point x="565.0" y="161.3936265"/>
      <point x="531.3936265" y="195.0"/>
      <point x="490.0" y="195.0" type="curve" smooth="yes"/>
      <point x="448.6063735" y="195.0"/>
      <point x="415.0" y="161.3936265"/>
      <point x="415.0" y="120.0" type="curve" smooth="yes"/>
      <point x="415.0" y="78.6063735"/>
      <point x="448.6063735" y="45.0"/>
      <point x="490.0" y="45.0" type="curve" smooth="yes"/>
      <point x="531.3936265" y="44.999999999999986"/>
      <point x="565.0" y="78.60637349999999"/>
    </contour>
  </outline>
</glyph>
<glyph name="semicolon" format="2">
  <advance width="1020"/>
  <unicode hex="003B"/>
  <outline>
    <contour>
      <point x="591.25" y="698.75" type="curve" smooth="yes"/>
      <point x="591.25" y="743.593095375"/>
      <point x="554.843095375" y="780.0"/>
      <point x="510.0" y="780.0" type="curve" smooth="yes"/>
      <point x="465.156904625" y="780.0"/>
      <point x="428.75" y="743.593095375"/>
      <point x="428.75" y="698.75" type="curve" smooth="yes"/>
      <point x="428.75" y="653.9069046249999"/>
      <point x="465.156904625" y="617.5"/>
      <point x="510.0" y="617.5" type="curve" smooth="yes"/>
      <point x="554.843095375" y="617.5"/>
      <point x="591.25" y="653.9069046249999"/>
    </contour>
    <contour>
      <point x="437.99981689453125" y="-325" type="line"/>
      <point x="506.459113697308" y="-206.4250163223514"/>
      <point x="542.5" y="-71.91859749089167"/>
      <point x="542.5" y="65.0" type="curve"/>
      <point x="542.5" y="211.25" type="line"/>
      <point x="477.5" y="211.25" type="line"/>
      <point x="477.5" y="65" type="line"/>
      <point x="477.5" y="-60.508714366650686"/>
      <point x="444.46252088919897" y="-183.80626496215547"/>
      <point x="381.70816370587363" y="-292.49999999999994" type="curve"/>
    </contour>
  </outline>
</glyph>
<glyph name="less" format="2">
  <advance width="1020"/>
  <unicode hex="003C"/>
  <outline>
    <contour>
      <point x="117.5" y="499.87586975097656" type="line"/>
      <point x="117.5" y="464.2908020019531" type="line"/>
      <point x="897.5" y="116.45832824707031" type="line"/>
      <point x="897.5" y="152.0434112548828" type="line"/>
      <point x="157.3990249633789" y="482.08333587646484" type="line"/>
      <point x="897.5" y="812.1232604980469" type="line"/>
      <point x="897.5" y="847.7083282470703" type="line"/>
    </contour>
  </outline>
</glyph>
<glyph name="equal" format="2">
  <advance width="1020"/>
  <unicode hex="003D"/>
  <outline>
    <contour>
      <point x="120.0" y="579.5833333333333" type="line"/>
      <point x="900.0" y="579.5833333333333" type="line"/>
      <point x="900.0" y="612.0833333333333" type="line"/>
      <point x="120.0" y="612.0833333333333" type="line"/>
    </contour>
    <contour>
      <point x="120.0" y="352.0833333333333" type="line"/>
      <point x="900.0" y="352.0833333333333" type="line"/>
      <point x="900.0" y="384.5833333333333" type="line"/>
      <point x="120.0" y="384.5833333333333" type="line"/>
    </contour>
  </outline>
</glyph>
<glyph name="greater" format="2">
  <advance width="980"/>
  <unicode hex="003E"/>
  <outline>
    <contour>
      <point x="835" y="506.61214447021484" type="line"/>
      <point x="145" y="835" type="line"/>
      <point x="145" y="801.7757034301758" type="line"/>
      <point x="800.0949935913086" y="490" type="line"/>
      <point x="145" y="178.22429656982422" type="line"/>
      <point x="145" y="145" type="line"/>
      <point x="835" y="473.38785552978516" type="line"/>
    </contour>
  </outline>
</glyph>
<glyph name="question" format="2">
  <advance width="1020"/>
  <unicode hex="003F"/>
  <outline>
    <contour>
      <point x="488.75" y="299" type="line"/>
      <point x="521.25" y="299" type="line"/>
      <point x="521.25" y="518.7236099243164" type="line"/>
      <point x="699.0673865139677" y="527.2093803036701"/>
      <point x="840.8333300000002" y="674.26306011232"/>
      <point x="840.8333300000002" y="854.1666700000001" type="curve"/>
      <point x="840.83333" y="1039.51813"/>
      <point x="690.35146" y="1190.0"/>
      <point x="505.0" y="1190.0" type="curve" smooth="yes"/>
      <point x="319.64854" y="1190.0"/>
      <point x="169.16667" y="1039.51813"/>
      <point x="169.16667" y="854.16667" type="curve"/>
      <point x="201.6666717529297" y="854.1666717529297" type="line"/>
      <point x="201.66667" y="1021.58089"/>
      <point x="337.58578" y="1157.5"/>
      <point x="505.0" y="1157.5" type="curve" smooth="yes"/>
      <point x="672.4142200000001" y="1157.5"/>
      <point x="808.33333" y="1021.5808900000001"/>
      <point x="808.33333" y="854.16667" type="curve"/>
      <point x="808.33333" y="704.7801771361356"/>
      <point x="694.3211112944218" y="550.8333504225603"/>
      <point x="494.3125" y="550.8333288471116" type="curve"/>
      <point x="488.75" y="550.8333282470703" type="line"/>
    </contour>
    <contour>
      <point x="586.25" y="81.25" type="curve" smooth="yes"/>
      <point x="586.25" y="126.0931"/>
      <point x="549.8431" y="162.5"/>
      <point x="505.0" y="162.5" type="curve" smooth="yes"/>
      <point x="460.1569" y="162.5"/>
      <point x="423.75" y="126.0931"/>
      <point x="423.75" y="81.25" type="curve" smooth="yes"/>
      <point x="423.75" y="36.4069"/>
      <point x="460.1569" y="0.0"/>
      <point x="505.0" y="0.0" type="curve" smooth="yes"/>
      <point x="549.8431" y="-0.0"/>
      <point x="586.25" y="36.4069"/>
    </contour>
  </outline>
</glyph>
<glyph name="at" format="2">
  <advance width="1020"/>
  <unicode hex="0040"/>
  <outline>
    <contour>
      <point x="120" y="370" type="line"/>
      <point x="120.0" y="154.75314"/>
      <point x="294.75314" y="-20.0"/>
      <point x="510.0" y="-20.0" type="curve" smooth="yes"/>
      <point x="674.95744" y="-20.0"/>
      <point x="816.13237" y="82.63493"/>
      <point x="873.09523" y="227.5" type="curve"/>
      <point x="837.9234771728516" y="227.5" type="line"/>
      <point x="782.82587" y="101.01389"/>
      <point x="656.66813" y="12.5"/>
      <point x="510.0" y="12.5" type="curve" smooth="yes"/>
      <point x="312.69038" y="12.5"/>
      <point x="152.5" y="172.69038"/>
      <point x="152.5" y="370.0" type="curve"/>
      <point x="152.5" y="800" type="line"/>
      <point x="152.5" y="997.30962"/>
      <point x="312.69038" y="1157.5"/>
      <point x="510.0" y="1157.5" type="curve" smooth="yes"/>
      <point x="707.30962" y="1157.5"/>
      <point x="867.5" y="997.30962"/>
      <point x="867.5" y="800.0" type="curve"/>
      <point x="867.5" y="581.25" type="line"/>
      <point x="867.5" y="455.68933"/>
      <point x="765.56067" y="353.75"/>
      <point x="640.0" y="353.75" type="curve"/>
      <point x="555.8995895385742" y="353.75" type="line"/>
      <point x="557.7446270136871" y="358.68852130024925"/>
      <point x="558.75" y="364.22777823076"/>
      <point x="558.75" y="370.00000000000006" type="curve" smooth="yes"/>
      <point x="558.75" y="800" type="line"/>
      <point x="558.75" y="826.90586"/>
      <point x="536.90586" y="848.75"/>
      <point x="510.0" y="848.75" type="curve" smooth="yes"/>
      <point x="483.09414" y="848.75"/>
      <point x="461.25" y="826.90586"/>
      <point x="461.25" y="800.0" type="curve" smooth="yes"/>
      <point x="461.25" y="370" type="line"/>
      <point x="461.25" y="343.09414"/>
      <point x="483.09414" y="321.25"/>
      <point x="510.0" y="321.25" type="curve" smooth="yes"/>
      <point x="640" y="321.25" type="line"/>
      <point x="783.49791" y="321.25"/>
      <point x="900.0" y="437.75209"/>
      <point x="900.0" y="581.25" type="curve"/>
      <point x="900" y="800" type="line"/>
      <point x="900.0" y="1015.24686"/>
      <point x="725.24686" y="1190.0"/>
      <point x="510.0" y="1190.0" type="curve" smooth="yes"/>
      <point x="294.75314" y="1190.0"/>
      <point x="120.0" y="1015.24686"/>
      <point x="120.0" y="800.0" type="curve"/>
    </contour>
  </outline>
</glyph>
<glyph name="B" format="2">
  <advance width="1020"/>
  <unicode hex="0042"/>
  <outline>
    <contour>
      <point x="135" y="0" type="line"/>
      <point x="614.375" y="0" type="line"/>
      <point x="780.2944528875" y="0.0"/>
      <point x="915.0" y="134.7055471125"/>
      <point x="915.0" y="300.625" type="curve" smooth="yes"/>
      <point x="915.0" y="442.51384076744466"/>
      <point x="816.4884058021927" y="561.5756214401232"/>
      <point x="684.1880874633789" y="593.0822830200195" type="curve"/>
      <point x="791.2232982310419" y="639.1077810130646"/>
      <point x="866.25" y="745.5488145516999"/>
      <point x="866.2499999999999" y="869.3749999999999" type="curve" smooth="yes"/>
      <point x="866.25" y="1035.2944528874998"/>
      <point x="731.5444528874999" y="1170.0"/>
      <point x="565.625" y="1170.0" type="curve"/>
      <point x="135" y="1170" type="line"/>
    </contour>
    <contour>
      <point x="565.625" y="1137.5" type="line"/>
      <point x="713.6072147375" y="1137.5"/>
      <point x="833.75" y="1017.3572147374999"/>
      <point x="833.75" y="869.3749999999999" type="curve" smooth="yes"/>
      <point x="833.75" y="721.3927852625001"/>
      <point x="713.6072147375" y="601.25"/>
      <point x="565.625" y="601.25" type="curve"/>
      <point x="167.5" y="601.25" type="line"/>
      <point x="167.5" y="1137.5" type="line"/>
    </contour>
    <contour>
      <point x="614.375" y="568.75" type="line"/>
      <point x="762.3572147375" y="568.75"/>
      <point x="882.5" y="448.6072147375"/>
      <point x="882.5" y="300.625" type="curve" smooth="yes"/>
      <point x="882.5" y="152.6427852625"/>
      <point x="762.3572147375" y="32.5"/>
      <point x="614.375" y="32.5" type="curve"/>
      <point x="167.5" y="32.5" type="line"/>
      <point x="167.5" y="568.75" type="line"/>
    </contour>
  </outline>
</glyph>
<glyph name="D" format="2">
  <advance width="1020"/>
  <unicode hex="0044"/>
  <outline>
    <contour>
      <point x="145.25" y="0" type="line"/>
      <point x="502.75" y="0" type="line"/>
      <point x="717.99686" y="0.0"/>
      <point x="892.75" y="174.75314"/>
      <point x="892.75" y="390.0" type="curve"/>
      <point x="892.75" y="780" type="line"/>
      <point x="892.75" y="995.24686"/>
      <point x="717.99686" y="1170.0"/>
      <point x="502.75" y="1170.0" type="curve"/>
      <point x="145.25" y="1170" type="line"/>
    </contour>
    <contour>
      <point x="860.25" y="390" type="line"/>
      <point x="860.25" y="192.69038"/>
      <point x="700.05962" y="32.5"/>
      <point x="502.75" y="32.5" type="curve"/>
      <point x="177.75" y="32.5" type="line"/>
      <point x="177.75" y="1137.5" type="line"/>
      <point x="502.75" y="1137.5" type="line"/>
      <point x="700.05962" y="1137.5"/>
      <point x="860.25" y="977.30962"/>
      <point x="860.25" y="780.0" type="curve"/>
    </contour>
  </outline>
</glyph>
<glyph name="E" format="2">
  <advance width="980"/>
  <unicode hex="0045"/>
  <outline>
    <contour>
      <point x="160" y="45" type="line"/>
      <point x="850" y="45" type="line"/>
      <point x="850" y="75" type="line"/>
      <point x="190" y="75" type="line"/>
      <point x="190" y="570" type="line"/>
      <point x="790" y="570" type="line"/>
      <point x="790" y="600" type="line"/>
      <point x="190" y="600" type="line"/>
      <point x="190" y="1095" type="line"/>
      <point x="850" y="1095" type="line"/>
      <point x="850" y="1125" type="line"/>
      <point x="160" y="1125" type="line"/>
    </contour>
  </outline>
</glyph>
<glyph name="F" format="2">
  <advance width="1020"/>
  <unicode hex="0046"/>
  <outline>
    <contour>
      <point x="157.5" y="0" type="line"/>
      <point x="190" y="0" type="line"/>
      <point x="190" y="568.75" type="line"/>
      <point x="807.5" y="568.75" type="line"/>
      <point x="807.5" y="601.25" type="line"/>
      <point x="190" y="601.25" type="line"/>
      <point x="190" y="1137.5" type="line"/>
      <point x="872.5" y="1137.5" type="line"/>
      <point x="872.5" y="1170" type="line"/>
      <point x="157.5" y="1170" type="line"/>
    </contour>
  </outline>
</glyph>
<glyph name="G" format="2">
  <advance width="980"/>
  <unicode hex="0047"/>
  <outline>
    <contour>
      <point x="145" y="390" type="line"/>
      <point x="145.0" y="199.5893181"/>
      <point x="299.58931809999996" y="45.0"/>
      <point x="489.99999999999994" y="45.0" type="curve" smooth="yes"/>
      <point x="680.4106819" y="45.0"/>
      <point x="835.0" y="199.58931809999993"/>
      <point x="835.0" y="389.99999999999994" type="curve"/>
      <point x="835" y="555" type="line"/>
      <point x="490" y="555" type="line"/>
      <point x="490" y="525" type="line"/>
      <point x="805" y="525" type="line"/>
      <point x="805" y="390" type="line"/>
      <point x="805.0" y="216.14676869999994"/>
      <point x="663.8532313" y="75.0"/>
      <point x="489.99999999999994" y="75.0" type="curve" smooth="yes"/>
      <point x="316.14676869999994" y="75.0"/>
      <point x="175.0" y="216.14676870000002"/>
      <point x="175.0" y="390.00000000000006" type="curve"/>
      <point x="175" y="780" type="line"/>
      <point x="175.0" y="953.8532313000001"/>
      <point x="316.14676870000005" y="1095.0"/>
      <point x="490.0" y="1095.0" type="curve" smooth="yes"/>
      <point x="663.8532313000001" y="1095.0"/>
      <point x="805.0" y="953.8532313000001"/>
      <point x="805.0" y="780.0" type="curve"/>
      <point x="835" y="780" type="line"/>
      <point x="835.0" y="970.4106819"/>
      <point x="680.4106819" y="1125.0"/>
      <point x="490.0" y="1125.0" type="curve" smooth="yes"/>
      <point x="299.5893181" y="1125.0"/>
      <point x="145.0" y="970.4106819000001"/>
      <point x="145.0" y="780.0" type="curve"/>
    </contour>
  </outline>
</glyph>
<glyph name="H" format="2">
  <advance width="1020"/>
  <unicode hex="0048"/>
  <outline>
    <contour>
      <point x="133.63636016845703" y="0" type="line"/>
      <point x="166.36363983154297" y="0" type="line"/>
      <point x="166.36363983154297" y="572.7272720336914" type="line"/>
      <point x="853.636360168457" y="572.7272720336914" type="line"/>
      <point x="853.636360168457" y="0" type="line"/>
      <point x="886.363639831543" y="0" type="line"/>
      <point x="886.363639831543" y="1178.1818161010742" type="line"/>
      <point x="853.636360168457" y="1178.1818161010742" type="line"/>
      <point x="853.636360168457" y="605.4545440673828" type="line"/>
      <point x="166.36363983154297" y="605.4545440673828" type="line"/>
      <point x="166.36363983154297" y="1178.1818161010742" type="line"/>
      <point x="133.63636016845703" y="1178.1818161010742" type="line"/>
    </contour>
  </outline>
</glyph>
<glyph name="I" format="2">
  <advance width="980"/>
  <unicode hex="0049"/>
  <outline>
    <contour>
      <point x="175" y="45" type="line"/>
      <point x="805" y="45" type="line"/>
      <point x="805" y="75" type="line"/>
      <point x="505" y="75" type="line"/>
      <point x="505" y="1095" type="line"/>
      <point x="805" y="1095" type="line"/>
      <point x="805" y="1125" type="line"/>
      <point x="175" y="1125" type="line"/>
      <point x="175" y="1095" type="line"/>
      <point x="475" y="1095" type="line"/>
      <point x="475" y="75" type="line"/>
      <point x="175" y="75" type="line"/>
    </contour>
  </outline>
</glyph>
<glyph name="J" format="2">
  <advance width="1020"/>
  <unicode hex="004A"/>
  <outline>
    <contour>
      <point x="131.25" y="358.75" type="line"/>
      <point x="131.25" y="152.47176127499998"/>
      <point x="298.72176127499995" y="-15.000000000000023"/>
      <point x="504.9999999999999" y="-15.000000000000023" type="curve" smooth="yes"/>
      <point x="711.2782387249999" y="-15.000000000000023"/>
      <point x="878.75" y="152.4717612749999"/>
      <point x="878.75" y="358.7499999999999" type="curve"/>
      <point x="878.75" y="1170" type="line"/>
      <point x="846.25" y="1170" type="line"/>
      <point x="846.25" y="358.75" type="line"/>
      <point x="846.25" y="170.4089994249999"/>
      <point x="693.341000575" y="17.499999999999975"/>
      <point x="504.9999999999999" y="17.499999999999975" type="curve" smooth="yes"/>
      <point x="316.65899942499993" y="17.499999999999975"/>
      <point x="163.75" y="170.408999425"/>
      <point x="163.75" y="358.75" type="curve"/>
    </contour>
  </outline>
</glyph>
<glyph name="K" format="2">
  <advance width="1020"/>
  <unicode hex="004B"/>
  <outline>
    <contour>
      <point x="188.125" y="0" type="line"/>
      <point x="220.625" y="0" type="line"/>
      <point x="220.625" y="570.9166717529297" type="line"/>
      <point x="901.3015594482422" y="0" type="line"/>
      <point x="951.875" y="0" type="line"/>
      <point x="251.8243408203125" y="587.1666717529297" type="line"/>
      <point x="946.7085800170898" y="1170" type="line"/>
      <point x="896.135139465332" y="1170" type="line"/>
      <point x="220.625" y="603.4166717529297" type="line"/>
      <point x="220.625" y="1170" type="line"/>
      <point x="188.125" y="1170" type="line"/>
    </contour>
  </outline>
</glyph>
<glyph name="L" format="2">
  <advance width="980"/>
  <unicode hex="004C"/>
  <outline>
    <contour>
      <point x="185" y="45" type="line"/>
      <point x="875" y="45" type="line"/>
      <point x="875" y="75" type="line"/>
      <point x="215" y="75" type="line"/>
      <point x="215" y="1125" type="line"/>
      <point x="185" y="1125" type="line"/>
    </contour>
  </outline>
</glyph>
<glyph name="M" format="2">
  <advance width="1020"/>
  <unicode hex="004D"/>
  <outline>
    <contour>
      <point x="103.75" y="0" type="line"/>
      <point x="136.25" y="0" type="line"/>
      <point x="136.25" y="1109.46875" type="line"/>
      <point x="493.75" y="443.625" type="line"/>
      <point x="526.25" y="443.625" type="line"/>
      <point x="883.75" y="1109.46875" type="line"/>
      <point x="883.75" y="0" type="line"/>
      <point x="916.25" y="0" type="line"/>
      <point x="916.25" y="1170" type="line"/>
      <point x="879.3617782592773" y="1170" type="line"/>
      <point x="510" y="482.0636901855469" type="line"/>
      <point x="140.63822174072266" y="1170" type="line"/>
      <point x="103.75" y="1170" type="line"/>
    </contour>
  </outline>
</glyph>
<glyph name="N" format="2">
  <advance width="1020"/>
  <unicode hex="004E"/>
  <outline>
    <contour>
      <point x="136.25" y="0" type="line"/>
      <point x="168.75" y="0" type="line"/>
      <point x="168.75" y="1108.0304794311523" type="line"/>
      <point x="851.25" y="0" type="line"/>
      <point x="883.75" y="0" type="line"/>
      <point x="883.75" y="1170" type="line"/>
      <point x="851.25" y="1170" type="line"/>
      <point x="851.25" y="61.969520568847656" type="line"/>
      <point x="168.75" y="1170" type="line"/>
      <point x="136.25" y="1170" type="line"/>
    </contour>
  </outline>
</glyph>
<glyph name="P" format="2">
  <advance width="1020"/>
  <unicode hex="0050"/>
  <outline>
    <contour>
      <point x="143.125" y="0" type="line"/>
      <point x="175.625" y="0" type="line"/>
      <point x="175.625" y="422.5" type="line"/>
      <point x="533.125" y="422.5" type="line"/>
      <point x="739.403238725" y="422.49999999999994"/>
      <point x="906.875" y="589.971761275"/>
      <point x="906.875" y="796.25" type="curve" smooth="yes"/>
      <point x="906.875" y="1002.5282387249999"/>
      <point x="739.4032387249999" y="1170.0"/>
      <point x="533.125" y="1170.0" type="curve"/>
      <point x="143.125" y="1170" type="line"/>
    </contour>
    <contour>
      <point x="533.125" y="1137.5" type="line"/>
      <point x="721.4660005750001" y="1137.5"/>
      <point x="874.375" y="984.591000575"/>
      <point x="874.375" y="796.25" type="curve" smooth="yes"/>
      <point x="874.375" y="607.908999425"/>
      <point x="721.4660005750001" y="454.99999999999994"/>
      <point x="533.125" y="454.99999999999994" type="curve"/>
      <point x="175.625" y="455" type="line"/>
      <point x="175.625" y="1137.5" type="line"/>
    </contour>
  </outline>
</glyph>
<glyph name="Q" format="2">
  <advance width="1020"/>
  <unicode hex="0051"/>
  <outline>
    <contour>
      <point x="870" y="377.7272720336914" type="line"/>
      <point x="870.0" y="295.04128509514226"/>
      <point x="842.0631590413846" y="218.82880905942085"/>
      <point x="795.1215591430664" y="158.0359115600586" type="curve"/>
      <point x="612.3846893310547" y="474.5454559326172" type="line"/>
      <point x="574.5944900512695" y="474.5454559326172" type="line"/>
      <point x="772.604736328125" y="131.58164978027344" type="line"/>
      <point x="706.9054241010391" y="61.52164982976663"/>
      <point x="613.5267182427457" y="17.72727272727277"/>
      <point x="510.0000000000001" y="17.727272727272776" type="curve" smooth="yes"/>
      <point x="311.3105928" y="17.727272727272727"/>
      <point x="150.00000000000003" y="179.03786552727271"/>
      <point x="150.00000000000003" y="377.72727272727275" type="curve"/>
      <point x="150" y="800.4545440673828" type="line"/>
      <point x="150.00000000000003" y="999.1439526545455"/>
      <point x="311.3105928" y="1160.4545454545453"/>
      <point x="510.0" y="1160.4545454545453" type="curve" smooth="yes"/>
      <point x="708.6894072" y="1160.4545454545453"/>
      <point x="870.0" y="999.1439526545454"/>
      <point x="870.0" y="800.4545454545454" type="curve"/>
    </contour>
    <contour>
      <point x="117.2727279663086" y="377.7272720336914" type="line"/>
      <point x="117.27272727272731" y="160.9751921454546"/>
      <point x="293.24791941818177" y="-14.999999999999998"/>
      <point x="509.99999999999994" y="-14.999999999999998" type="curve" smooth="yes"/>
      <point x="619.3884892593067" y="-14.999999999999998"/>
      <point x="718.3913978836572" y="29.819617628027267"/>
      <point x="789.6308975219727" y="102.09148406982422" type="curve"/>
      <point x="848.5734405517578" y="0" type="line"/>
      <point x="886.363639831543" y="0" type="line"/>
      <point x="812.6880111694336" y="127.60992431640625" type="line"/>
      <point x="868.9192204392226" y="195.55074924869905"/>
      <point x="902.7272727272727" y="282.7220180312142"/>
      <point x="902.7272727272726" y="377.7272727272727" type="curve"/>
      <point x="902.7272720336914" y="800.4545440673828" type="line"/>
      <point x="902.7272727272727" y="1017.2066260363636"/>
      <point x="726.7520805818183" y="1193.181818181818"/>
      <point x="510.0" y="1193.181818181818" type="curve" smooth="yes"/>
      <point x="293.2479194181819" y="1193.181818181818"/>
      <point x="117.27272727272731" y="1017.2066260363636"/>
      <point x="117.27272727272731" y="800.4545454545454" type="curve"/>
    </contour>
  </outline>
</glyph>
<glyph name="R" format="2">
  <advance width="1020"/>
  <unicode hex="0052"/>
  <outline>
    <contour>
      <point x="140.4545440673828" y="0" type="line"/>
      <point x="173.18181610107422" y="0" type="line"/>
      <point x="173.18181610107422" y="425.4545440673828" type="line"/>
      <point x="533.1818161010742" y="425.4545440673828" type="line"/>
      <point x="534.8462524414062" y="425.46666717529297" type="line"/>
      <point x="867.9797134399414" y="0" type="line"/>
      <point x="909.5454559326172" y="0" type="line"/>
      <point x="574.6424789428711" y="427.7266311645508" type="line"/>
      <point x="762.8858760773836" y="448.3829415467685"/>
      <point x="909.5454545454089" y="608.1086175442024"/>
      <point x="909.5454545454089" y="801.8181818181818" type="curve" smooth="yes"/>
      <point x="909.5454545454087" y="1009.5389257090908"/>
      <point x="740.9025620726815" y="1178.181818181818"/>
      <point x="533.1818181817723" y="1178.181818181818" type="curve"/>
      <point x="140.4545440673828" y="1178.1818161010742" type="line"/>
    </contour>
    <contour>
      <point x="533.1818161010742" y="1145.4545440673828" type="line"/>
      <point x="722.8398886908633" y="1145.4545454545453"/>
      <point x="876.8181818181359" y="991.4762523272727"/>
      <point x="876.8181818181359" y="801.8181818181818" type="curve" smooth="yes"/>
      <point x="876.8181818181359" y="612.1601113090909"/>
      <point x="722.8398886908633" y="458.18181818181813"/>
      <point x="533.1818181817723" y="458.18181818181813" type="curve"/>
      <point x="173.18181610107422" y="458.1818161010742" type="line"/>
      <point x="173.18181610107422" y="1145.4545440673828" type="line"/>
    </contour>
  </outline>
</glyph>
<glyph name="S" format="2">
  <advance width="1020"/>
  <unicode hex="0053"/>
  <outline>
    <contour>
      <point x="120" y="297.1875" type="line"/>
      <point x="120.0" y="124.88652969375002"/>
      <point x="294.75314219999996" y="-15.000000000000023"/>
      <point x="509.9999999999999" y="-15.000000000000023" type="curve" smooth="yes"/>
      <point x="725.2468577999999" y="-15.000000000000023"/>
      <point x="900.0" y="124.88652969374986"/>
      <point x="900.0" y="297.1874999999999" type="curve"/>
      <point x="900.0" y="444.76431487312493"/>
      <point x="771.6938067276958" y="568.000874674973"/>
      <point x="599.7617359161377" y="601.0407174428303" type="curve"/>
      <point x="436.53643798828125" y="632.4073944091797" type="line"/>
      <point x="292.620822839249" y="660.0633734705057"/>
      <point x="185.0" y="764.1436714842085"/>
      <point x="185.0" y="889.0624999999999" type="curve"/>
      <point x="185.0" y="1034.45761308125"/>
      <point x="330.62761850000004" y="1152.4999999999998"/>
      <point x="510.0" y="1152.4999999999998" type="curve" smooth="yes"/>
      <point x="689.3723815" y="1152.4999999999998"/>
      <point x="835.0" y="1034.45761308125"/>
      <point x="835.0" y="889.0624999999999" type="curve"/>
      <point x="867.5" y="889.0625" type="line"/>
      <point x="867.5" y="1052.39485123125"/>
      <point x="707.30961965" y="1184.9999999999998"/>
      <point x="510.0" y="1184.9999999999998" type="curve" smooth="yes"/>
      <point x="312.69038035" y="1184.9999999999998"/>
      <point x="152.5" y="1052.39485123125"/>
      <point x="152.5" y="889.0624999999999" type="curve"/>
      <point x="152.5" y="748.4065590842918"/>
      <point x="271.39299010637154" y="631.0382881088099"/>
      <point x="430.2948443094889" y="600.5234743754069" type="curve"/>
      <point x="593.5242156982422" y="569.1776275634766" type="line"/>
      <point x="750.4700512482337" y="539.0384347527674"/>
      <point x="867.5" y="429.05349001313726"/>
      <point x="867.5" y="297.1875" type="curve"/>
      <point x="867.5" y="142.82376784374986"/>
      <point x="707.30961965" y="17.499999999999975"/>
      <point x="509.9999999999999" y="17.499999999999975" type="curve" smooth="yes"/>
      <point x="312.69038034999994" y="17.499999999999975"/>
      <point x="152.5" y="142.82376784374998"/>
      <point x="152.5" y="297.1875" type="curve"/>
    </contour>
  </outline>
</glyph>
<glyph name="T" format="2">
  <advance width="980"/>
  <unicode hex="0054"/>
  <outline>
    <contour>
      <point x="475" y="45" type="line"/>
      <point x="505" y="45" type="line"/>
      <point x="505" y="1095" type="line"/>
      <point x="835" y="1095" type="line"/>
      <point x="835" y="1125" type="line"/>
      <point x="145" y="1125" type="line"/>
      <point x="145" y="1095" type="line"/>
      <point x="475" y="1095" type="line"/>
    </contour>
  </outline>
</glyph>
<glyph name="U" format="2">
  <advance width="1020"/>
  <unicode hex="0055"/>
  <outline>
    <contour>
      <point x="125.41667175292969" y="364.5833282470703" type="line"/>
      <point x="125.41667" y="152.32602"/>
      <point x="297.74268" y="-20.0"/>
      <point x="510.0" y="-20.0" type="curve" smooth="yes"/>
      <point x="722.25732" y="-20.0"/>
      <point x="894.58333" y="152.32602"/>
      <point x="894.58333" y="364.58333" type="curve"/>
      <point x="894.5833282470703" y="1170" type="line"/>
      <point x="862.0833282470703" y="1170" type="line"/>
      <point x="862.0833282470703" y="364.5833282470703" type="line"/>
      <point x="862.08333" y="170.26325"/>
      <point x="704.32008" y="12.5"/>
      <point x="510.0" y="12.5" type="curve" smooth="yes"/>
      <point x="315.67992" y="12.5"/>
      <point x="157.91667" y="170.26325"/>
      <point x="157.91667" y="364.58333" type="curve"/>
      <point x="157.9166717529297" y="1170" type="line"/>
      <point x="125.41667175292969" y="1170" type="line"/>
    </contour>
  </outline>
</glyph>
<glyph name="V" format="2">
  <advance width="980"/>
  <unicode hex="0056"/>
  <outline>
    <contour>
      <point x="474.19215393066406" y="45" type="line"/>
      <point x="505.80784606933594" y="45" type="line"/>
      <point x="865" y="1125" type="line"/>
      <point x="833.3843154907227" y="1125" type="line"/>
      <point x="490" y="92.53019714355469" type="line"/>
      <point x="146.61568450927734" y="1125" type="line"/>
      <point x="115" y="1125" type="line"/>
    </contour>
  </outline>
</glyph>
<glyph name="W" format="2">
  <advance width="1020"/>
  <unicode hex="0057"/>
  <outline>
    <contour>
      <point x="286.43624114990234" y="0" type="line"/>
      <point x="319.44127655029297" y="0" type="line"/>
      <point x="510" y="1076.7524871826172" type="line"/>
      <point x="700.558723449707" y="0" type="line"/>
      <point x="733.5637588500977" y="0" type="line"/>
      <point x="940.625" y="1170" type="line"/>
      <point x="907.6199722290039" y="1170" type="line"/>
      <point x="717.0612411499023" y="93.24751281738281" type="line"/>
      <point x="526.5025177001953" y="1170" type="line"/>
      <point x="493.4974822998047" y="1170" type="line"/>
      <point x="302.93875885009766" y="93.24751281738281" type="line"/>
      <point x="112.3800277709961" y="1170" type="line"/>
      <point x="79.375" y="1170" type="line"/>
    </contour>
  </outline>
</glyph>
<glyph name="X" format="2">
  <advance width="1020"/>
  <unicode hex="0058"/>
  <outline>
    <contour>
      <point x="91.5625" y="0" type="line"/>
      <point x="130.89502716064453" y="0" type="line"/>
      <point x="510" y="556.1494598388672" type="line"/>
      <point x="889.1049728393555" y="0" type="line"/>
      <point x="928.4375" y="0" type="line"/>
      <point x="529.6662673950195" y="585" type="line"/>
      <point x="928.4375" y="1170" type="line"/>
      <point x="889.1049728393555" y="1170" type="line"/>
      <point x="510" y="613.8505401611328" type="line"/>
      <point x="130.89502716064453" y="1170" type="line"/>
      <point x="91.5625" y="1170" type="line"/>
      <point x="490.333740234375" y="585" type="line"/>
    </contour>
  </outline>
</glyph>
<glyph name="Y" format="2">
  <advance width="1020"/>
  <unicode hex="0059"/>
  <outline>
    <contour>
      <point x="493.75" y="0" type="line"/>
      <point x="526.25" y="0" type="line"/>
      <point x="526.25" y="520" type="line"/>
      <point x="908.125" y="1170" type="line"/>
      <point x="870.4312210083008" y="1170" type="line"/>
      <point x="510" y="556.5000457763672" type="line"/>
      <point x="149.56877899169922" y="1170" type="line"/>
      <point x="111.875" y="1170" type="line"/>
      <point x="493.75" y="520" type="line"/>
    </contour>
  </outline>
</glyph>
<glyph name="Z" format="2">
  <advance width="1020"/>
  <unicode hex="005A"/>
  <outline>
    <contour>
      <point x="152.5" y="0" type="line"/>
      <point x="867.5" y="0" type="line"/>
      <point x="867.5" y="32.5" type="line"/>
      <point x="190.6129379272461" y="32.5" type="line"/>
      <point x="867.5" y="1137.5" type="line"/>
      <point x="867.5" y="1170" type="line"/>
      <point x="152.5" y="1170" type="line"/>
      <point x="152.5" y="1137.5" type="line"/>
      <point x="829.3870620727539" y="1137.5" type="line"/>
      <point x="152.5" y="32.5" type="line"/>
    </contour>
  </outline>
</glyph>
<glyph name="bracketleft" format="2">
  <advance width="1020"/>
  <unicode hex="005B"/>
  <outline>
    <contour>
      <point x="333.75" y="-16.25" type="line"/>
      <point x="756.25" y="-16.25" type="line"/>
      <point x="756.25" y="16.25" type="line"/>
      <point x="366.25" y="16.25" type="line"/>
      <point x="366.25" y="1153.75" type="line"/>
      <point x="756.25" y="1153.75" type="line"/>
      <point x="756.25" y="1186.25" type="line"/>
      <point x="333.75" y="1186.25" type="line"/>
    </contour>
  </outline>
</glyph>
<glyph name="backslash" format="2">
  <advance width="1020"/>
  <unicode hex="005C"/>
  <outline>
    <contour>
      <point x="731.1299921552877" y="0.0" type="line"/>
      <point x="293.4557854501793" y="1202.5" type="line"/>
      <point x="258.8700078447122" y="1202.5" type="line"/>
      <point x="696.5442145498207" y="0.0" type="line"/>
    </contour>
  </outline>
</glyph>
<glyph name="bracketright" format="2">
  <advance width="1020"/>
  <unicode hex="005D"/>
  <outline>
    <contour>
      <point x="686.25" y="-16.25" type="line"/>
      <point x="686.25" y="1186.25" type="line"/>
      <point x="263.75" y="1186.25" type="line"/>
      <point x="263.75" y="1153.75" type="line"/>
      <point x="653.75" y="1153.75" type="line"/>
      <point x="653.75" y="16.25" type="line"/>
      <point x="263.75" y="16.25" type="line"/>
      <point x="263.75" y="-16.25" type="line"/>
    </contour>
  </outline>
</glyph>
<glyph name="asciicircum" format="2">
  <advance width="980"/>
  <unicode hex="005E"/>
  <outline>
    <contour>
      <point x="306.25" y="735" type="line"/>
      <point x="338.89762115478516" y="735" type="line"/>
      <point x="490" y="1086.975570678711" type="line"/>
      <point x="641.1023788452148" y="735" type="line"/>
      <point x="673.75" y="735" type="line"/>
      <point x="506.3238067626953" y="1125" type="line"/>
      <point x="473.6761932373047" y="1125" type="line"/>
    </contour>
  </outline>
</glyph>
<glyph name="underscore" format="2">
  <advance width="980"/>
  <unicode hex="005F"/>
  <outline>
    <contour>
      <point x="145.0" y="-90.0" type="line"/>
      <point x="835.0" y="-90.0" type="line"/>
      <point x="835.0" y="-60.0" type="line"/>
      <point x="145.0" y="-60.0" type="line"/>
    </contour>
  </outline>
</glyph>
<glyph name="grave" format="2">
  <advance width="980"/>
  <unicode hex="0060"/>
  <outline>
    <contour>
      <point x="580.7847942881814" y="985.0" type="line"/>
      <point x="433.6838719593611" y="1245.0" type="line"/>
      <point x="399.2152057118186" y="1245.0" type="line"/>
      <point x="546.3161280406389" y="985.0" type="line"/>
    </contour>
  </outline>
</glyph>
<glyph name="b" format="2">
  <advance width="980"/>
  <unicode hex="0062"/>
  <outline>
    <contour>
      <point x="155" y="45" type="line"/>
      <point x="185" y="45" type="line"/>
      <point x="185" y="249.18489837646484" type="line"/>
      <point x="238.91472202324601" y="128.882697816602"/>
      <point x="359.73873144541244" y="45.000000000000014"/>
      <point x="499.99999999999994" y="45.00000000000003" type="curve" smooth="yes"/>
      <point x="690.4106819" y="44.99999999999994"/>
      <point x="845.0" y="199.58931809999993"/>
      <point x="845.0" y="390.0" type="curve" smooth="yes"/>
      <point x="845.0" y="580.4106819"/>
      <point x="690.4106819" y="735.0"/>
      <point x="500.0" y="735.0" type="curve" smooth="yes"/>
      <point x="359.73873144541255" y="735.0"/>
      <point x="238.9147220232461" y="651.1173021833981"/>
      <point x="185" y="530.8054351806641" type="curve"/>
      <point x="185" y="1125" type="line"/>
      <point x="155" y="1125" type="line"/>
    </contour>
    <contour>
      <point x="815.0" y="390.0" type="curve" smooth="yes"/>
      <point x="815.0" y="216.14676869999994"/>
      <point x="673.8532313" y="74.99999999999994"/>
      <point x="499.99999999999994" y="75.0" type="curve" smooth="yes"/>
      <point x="326.14676869999994" y="75.0"/>
      <point x="185.0" y="216.14676870000002"/>
      <point x="185.0" y="390.0" type="curve" smooth="yes"/>
      <point x="185.0" y="563.8532313000001"/>
      <point x="326.14676870000005" y="705.0"/>
      <point x="500.0" y="705.0" type="curve" smooth="yes"/>
      <point x="673.8532313000001" y="705.0"/>
      <point x="815.0" y="563.8532313000001"/>
    </contour>
  </outline>
</glyph>
<glyph name="c" format="2">
  <advance width="1020"/>
  <unicode hex="0063"/>
  <outline>
    <contour>
      <point x="531.7621" y="12.5" type="curve" smooth="yes"/>
      <point x="323.41418" y="12.5"/>
      <point x="154.2621" y="181.65208"/>
      <point x="154.2621" y="390.0" type="curve" smooth="yes"/>
      <point x="154.2621" y="598.34792"/>
      <point x="323.41418" y="767.5"/>
      <point x="531.7621" y="767.5" type="curve" smooth="yes"/>
      <point x="681.93699" y="767.5"/>
      <point x="811.7482" y="679.61927"/>
      <point x="872.53025" y="552.5" type="curve"/>
      <point x="908.2379" y="552.5" type="line"/>
      <point x="845.25893" y="698.06214"/>
      <point x="700.32101" y="800.0"/>
      <point x="531.7621" y="800.0" type="curve" smooth="yes"/>
      <point x="305.47695" y="800.0"/>
      <point x="121.7621" y="616.28516"/>
      <point x="121.7621" y="390.0" type="curve" smooth="yes"/>
      <point x="121.7621" y="163.71484"/>
      <point x="305.47695" y="-20.0"/>
      <point x="531.7621" y="-20.0" type="curve" smooth="yes"/>
      <point x="700.32079" y="-20.0"/>
      <point x="845.25854" y="81.93759"/>
      <point x="908.23763" y="227.5" type="curve"/>
      <point x="872.53383" y="227.5" type="line"/>
      <point x="811.75324" y="100.38414"/>
      <point x="681.93991" y="12.5"/>
    </contour>
  </outline>
</glyph>
<glyph name="d" format="2">
  <advance width="1020"/>
  <unicode hex="0064"/>
  <outline>
    <contour>
      <point x="875" y="0" type="line"/>
      <point x="907.7272720336914" y="0" type="line"/>
      <point x="907.7272720336914" y="1178.1818161010742" type="line"/>
      <point x="875" y="1178.1818161010742" type="line"/>
      <point x="875" y="552.9094543457031" type="line"/>
      <point x="812.700339055724" y="698.4184528477692"/>
      <point x="668.1720471288534" y="800.4545454545454"/>
      <point x="500.0" y="800.4545454545455" type="curve" smooth="yes"/>
      <point x="274.96919411818186" y="800.4545454545454"/>
      <point x="92.27272727272731" y="617.758078609091"/>
      <point x="92.27272727272731" y="392.7272727272727" type="curve" smooth="yes"/>
      <point x="92.27272727272731" y="167.69646684545458"/>
      <point x="274.96919411818175" y="-14.999999999999998"/>
      <point x="499.99999999999994" y="-14.999999999999998" type="curve" smooth="yes"/>
      <point x="668.1720471288534" y="-15.000000000000044"/>
      <point x="812.700339055724" y="87.03609260677612"/>
      <point x="875" y="232.53833770751953" type="curve"/>
    </contour>
    <contour>
      <point x="875.0" y="392.7272727272727" type="curve" smooth="yes"/>
      <point x="875.0" y="185.75914022727264"/>
      <point x="706.9681324999999" y="17.727272727272663"/>
      <point x="499.99999999999994" y="17.727272727272727" type="curve" smooth="yes"/>
      <point x="293.0318675" y="17.727272727272727"/>
      <point x="125.00000000000003" y="185.75914022727272"/>
      <point x="125.00000000000003" y="392.7272727272727" type="curve" smooth="yes"/>
      <point x="125.00000000000003" y="599.6954052272727"/>
      <point x="293.03186750000003" y="767.7272727272726"/>
      <point x="500.0" y="767.7272727272726" type="curve" smooth="yes"/>
      <point x="706.9681324999999" y="767.7272727272726"/>
      <point x="875.0" y="599.6954052272727"/>
    </contour>
  </outline>
</glyph>
<glyph name="f" format="2">
  <advance width="980"/>
  <unicode hex="0066"/>
  <outline>
    <contour>
      <point x="395" y="45" type="line"/>
      <point x="425" y="45" type="line"/>
      <point x="425" y="705" type="line"/>
      <point x="835" y="705" type="line"/>
      <point x="835" y="735" type="line"/>
      <point x="425" y="735" type="line"/>
      <point x="425" y="840" type="line"/>
      <point x="425.0" y="980.7383301"/>
      <point x="539.2616699" y="1095.0"/>
      <point x="680.0" y="1095.0" type="curve"/>
      <point x="835" y="1095" type="line"/>
      <point x="835" y="1125" type="line"/>
      <point x="680" y="1125" type="line"/>
      <point x="522.7042193" y="1125.0"/>
      <point x="395.0" y="997.2957807"/>
      <point x="395.0" y="840.0" type="curve"/>
      <point x="395" y="735" type="line"/>
      <point x="145" y="735" type="line"/>
      <point x="145" y="705" type="line"/>
      <point x="395" y="705" type="line"/>
    </contour>
  </outline>
</glyph>
<glyph name="g" format="2">
  <advance width="1020"/>
  <unicode hex="0067"/>
  <outline>
    <contour>
      <point x="105.83333587646484" y="-80.41666412353516" type="line"/>
      <point x="105.83333333333333" y="-300.95271007499997"/>
      <point x="284.88062325833323" y="-480.0"/>
      <point x="505.41666666666663" y="-480.0" type="curve" smooth="yes"/>
      <point x="725.952710075" y="-480.0"/>
      <point x="905.0" y="-300.9527100750001"/>
      <point x="905.0" y="-80.41666666666673" type="curve"/>
      <point x="905" y="780" type="line"/>
      <point x="872.5" y="780" type="line"/>
      <point x="872.5" y="549.0947189331055" type="line"/>
      <point x="810.6217607110386" y="693.6372006186234"/>
      <point x="667.0547503623652" y="794.9999999999999"/>
      <point x="500.0" y="794.9999999999999" type="curve" smooth="yes"/>
      <point x="276.4744169" y="794.9999999999999"/>
      <point x="95.0" y="613.5255831000001"/>
      <point x="95.0" y="390.0" type="curve" smooth="yes"/>
      <point x="95.0" y="166.47441690000002"/>
      <point x="276.47441689999994" y="-15.000000000000023"/>
      <point x="499.99999999999994" y="-15.000000000000023" type="curve" smooth="yes"/>
      <point x="667.0547503623652" y="-15.000000000000068"/>
      <point x="810.6217607110386" y="86.3627993813765"/>
      <point x="872.5" y="230.90777587890625" type="curve"/>
      <point x="872.5" y="-80.41666412353516" type="line"/>
      <point x="872.5" y="-283.01547192500004"/>
      <point x="708.0154719249999" y="-447.5"/>
      <point x="505.41666666666663" y="-447.5" type="curve" smooth="yes"/>
      <point x="302.81786140833333" y="-447.5"/>
      <point x="138.33333333333331" y="-283.01547192499993"/>
      <point x="138.33333333333331" y="-80.41666666666661" type="curve"/>
    </contour>
    <contour>
      <point x="872.5" y="390.0" type="curve" smooth="yes"/>
      <point x="872.4999999999999" y="184.4116550499999"/>
      <point x="705.58834495" y="17.499999999999915"/>
      <point x="499.99999999999994" y="17.499999999999975" type="curve" smooth="yes"/>
      <point x="294.4116550499999" y="17.499999999999975"/>
      <point x="127.5" y="184.41165504999998"/>
      <point x="127.5" y="390.0" type="curve" smooth="yes"/>
      <point x="127.5" y="595.58834495"/>
      <point x="294.41165505000004" y="762.4999999999999"/>
      <point x="500.0" y="762.4999999999999" type="curve" smooth="yes"/>
      <point x="705.5883449500001" y="762.4999999999999"/>
      <point x="872.5" y="595.58834495"/>
    </contour>
  </outline>
</glyph>
<glyph name="h" format="2">
  <advance width="980"/>
  <unicode hex="0068"/>
  <outline>
    <contour>
      <point x="155" y="45" type="line"/>
      <point x="185" y="45" type="line"/>
      <point x="185" y="390" type="line"/>
      <point x="185.0" y="563.8532313000001"/>
      <point x="326.14676870000005" y="705.0"/>
      <point x="500.0" y="705.0" type="curve" smooth="yes"/>
      <point x="673.8532313000001" y="705.0"/>
      <point x="815.0" y="563.8532313000001"/>
      <point x="815.0" y="390.0" type="curve"/>
      <point x="815" y="45" type="line"/>
      <point x="845" y="45" type="line"/>
      <point x="845" y="390" type="line"/>
      <point x="845.0" y="580.4106819"/>
      <point x="690.4106819" y="735.0"/>
      <point x="500.0" y="735.0" type="curve" smooth="yes"/>
      <point x="359.73873144541255" y="735.0"/>
      <point x="238.9147220232461" y="651.1173021833981"/>
      <point x="185" y="530.8054351806641" type="curve"/>
      <point x="185" y="1125" type="line"/>
      <point x="155" y="1125" type="line"/>
    </contour>
  </outline>
</glyph>
<glyph name="i" format="2">
  <advance width="1020"/>
  <unicode hex="0069"/>
  <outline>
    <contour>
      <point x="595.6363636363636" y="971.9999999999999" type="curve" smooth="yes"/>
      <point x="595.6363636363636" y="1002.7065447490908"/>
      <point x="570.7065447490909" y="1027.6363636363635"/>
      <point x="540.0" y="1027.6363636363635" type="curve" smooth="yes"/>
      <point x="509.2934552509091" y="1027.6363636363635"/>
      <point x="484.3636363636364" y="1002.7065447490908"/>
      <point x="484.3636363636364" y="971.9999999999999" type="curve" smooth="yes"/>
      <point x="484.3636363636364" y="941.293455250909"/>
      <point x="509.29345525090906" y="916.3636363636363"/>
      <point x="540.0" y="916.3636363636363" type="curve" smooth="yes"/>
      <point x="570.7065447490909" y="916.3636363636363"/>
      <point x="595.6363636363636" y="941.293455250909"/>
    </contour>
    <contour>
      <point x="196.36363983154297" y="0" type="line"/>
      <point x="883.636360168457" y="0" type="line"/>
      <point x="883.636360168457" y="32.727272033691406" type="line"/>
      <point x="589.0909118652344" y="32.727272033691406" type="line"/>
      <point x="589.0909118652344" y="785.4545440673828" type="line"/>
      <point x="229.09091186523438" y="785.4545440673828" type="line"/>
      <point x="229.09091186523438" y="752.7272720336914" type="line"/>
      <point x="556.363639831543" y="752.7272720336914" type="line"/>
      <point x="556.363639831543" y="32.727272033691406" type="line"/>
      <point x="196.36363983154297" y="32.727272033691406" type="line"/>
    </contour>
  </outline>
</glyph>
<glyph name="j" format="2">
  <advance width="980"/>
  <unicode hex="006A"/>
  <outline>
    <contour>
      <point x="673.0" y="906.0" type="curve" smooth="yes"/>
      <point x="673.0" y="934.14766602"/>
      <point x="650.14766602" y="957.0"/>
      <point x="622.0" y="957.0" type="curve" smooth="yes"/>
      <point x="593.85233398" y="957.0"/>
      <point x="571.0" y="934.14766602"/>
      <point x="571.0" y="906.0" type="curve" smooth="yes"/>
      <point x="571.0" y="877.85233398"/>
      <point x="593.8523339799999" y="855.0"/>
      <point x="622.0" y="855.0" type="curve" smooth="yes"/>
      <point x="650.14766602" y="855.0"/>
      <point x="673.0" y="877.85233398"/>
    </contour>
    <contour>
      <point x="197" y="-220" type="line"/>
      <point x="372" y="-220" type="line"/>
      <point x="518.2574803" y="-220.0"/>
      <point x="637.0" y="-101.25748029999997"/>
      <point x="637.0" y="45.000000000000014" type="curve"/>
      <point x="637" y="735" type="line"/>
      <point x="317" y="735" type="line"/>
      <point x="317" y="705" type="line"/>
      <point x="607" y="705" type="line"/>
      <point x="607" y="45" type="line"/>
      <point x="607.0" y="-84.70002969999999"/>
      <point x="501.7000297000001" y="-190.0"/>
      <point x="372.0" y="-190.0" type="curve"/>
      <point x="197" y="-190" type="line"/>
    </contour>
  </outline>
</glyph>
<glyph name="k" format="2">
  <advance width="1020"/>
  <unicode hex="006B"/>
  <outline>
    <contour>
      <point x="213.18181610107422" y="0" type="line"/>
      <point x="245.90908813476562" y="0" type="line"/>
      <point x="245.90908813476562" y="376.36363983154297" type="line"/>
      <point x="854.5886306762695" y="0" type="line"/>
      <point x="916.8181838989258" y="0" type="line"/>
      <point x="281.67431640625" y="392.7272720336914" type="line"/>
      <point x="916.8181838989258" y="785.4545440673828" type="line"/>
      <point x="854.5886306762695" y="785.4545440673828" type="line"/>
      <point x="245.90908813476562" y="409.09090423583984" type="line"/>
      <point x="245.90908813476562" y="1178.1818161010742" type="line"/>
      <point x="213.18181610107422" y="1178.1818161010742" type="line"/>
    </contour>
  </outline>
</glyph>
<glyph name="l" format="2">
  <advance width="980"/>
  <unicode hex="006C"/>
  <outline>
    <contour>
      <point x="195" y="45" type="line"/>
      <point x="805" y="45" type="line"/>
      <point x="805" y="75" type="line"/>
      <point x="545" y="75" type="line"/>
      <point x="545" y="1125" type="line"/>
      <point x="215" y="1125" type="line"/>
      <point x="215" y="1095" type="line"/>
      <point x="515" y="1095" type="line"/>
      <point x="515" y="75" type="line"/>
      <point x="195" y="75" type="line"/>
    </contour>
  </outline>
</glyph>
<glyph name="m" format="2">
  <advance width="980"/>
  <unicode hex="006D"/>
  <outline>
    <contour>
      <point x="120" y="45" type="line"/>
      <point x="150" y="45" type="line"/>
      <point x="150" y="540" type="line"/>
      <point x="150.0" y="631.0659783"/>
      <point x="223.93402170000002" y="705.0"/>
      <point x="315.0" y="705.0" type="curve" smooth="yes"/>
      <point x="406.0659783" y="705.0"/>
      <point x="480.0" y="631.0659783"/>
      <point x="480.0" y="540.0" type="curve"/>
      <point x="480" y="45" type="line"/>
      <point x="510" y="45" type="line"/>
      <point x="510" y="540" type="line"/>
      <point x="510.0" y="631.0659783"/>
      <point x="583.9340217" y="705.0"/>
      <point x="675.0" y="705.0" type="curve" smooth="yes"/>
      <point x="766.0659783" y="705.0"/>
      <point x="840.0" y="631.0659783"/>
      <point x="840.0" y="540.0" type="curve"/>
      <point x="840" y="45" type="line"/>
      <point x="870" y="45" type="line"/>
      <point x="870" y="540" type="line"/>
      <point x="870.0" y="647.6234289"/>
      <point x="782.6234289" y="735.0"/>
      <point x="675.0" y="735.0" type="curve" smooth="yes"/>
      <point x="593.9792531257887" y="735.0"/>
      <point x="524.4330775304286" y="685.4807756792482"/>
      <point x="495.00215911865234" y="615.0367736816406" type="curve"/>
      <point x="465.5737586543646" y="685.4759079455883"/>
      <point x="396.02472894108064" y="735.0"/>
      <point x="315.0" y="735.0" type="curve" smooth="yes"/>
      <point x="245.5616865440067" y="735.0"/>
      <point x="184.5517182239914" y="698.6269536091115"/>
      <point x="150" y="643.8860321044922" type="curve"/>
      <point x="150" y="735" type="line"/>
      <point x="120" y="735" type="line"/>
    </contour>
  </outline>
</glyph>
<glyph name="n" format="2">
  <advance width="980"/>
  <unicode hex="006E"/>
  <outline>
    <contour>
      <point x="180" y="45" type="line"/>
      <point x="210" y="45" type="line"/>
      <point x="210" y="420" type="line"/>
      <point x="210.0" y="577.2957807"/>
      <point x="337.7042193" y="705.0"/>
      <point x="495.0" y="705.0" type="curve" smooth="yes"/>
      <point x="652.2957807" y="705.0"/>
      <point x="780.0" y="577.2957807"/>
      <point x="780.0" y="420.0" type="curve"/>
      <point x="780" y="45" type="line"/>
      <point x="810" y="45" type="line"/>
      <point x="810" y="420" type="line"/>
      <point x="810.0" y="593.8532313000001"/>
      <point x="668.8532313000001" y="735.0"/>
      <point x="495.0" y="735.0" type="curve" smooth="yes"/>
      <point x="369.15007980716825" y="735.0"/>
      <point x="260.4387038580129" y="661.0375489149683"/>
      <point x="210" y="554.2212066650391" type="curve"/>
      <point x="210" y="735" type="line"/>
      <point x="180" y="735" type="line"/>
    </contour>
  </outline>
</glyph>
<glyph name="o" format="2">
  <advance width="1020"/>
  <unicode hex="006F"/>
  <outline>
    <contour>
      <point x="920.0" y="390.0" type="curve" smooth="yes"/>
      <point x="920.0" y="616.28516"/>
      <point x="736.28516" y="800.0"/>
      <point x="510.0" y="800.0" type="curve" smooth="yes"/>
      <point x="283.71484" y="800.0"/>
      <point x="100.0" y="616.28516"/>
      <point x="100.0" y="390.0" type="curve" smooth="yes"/>
      <point x="100.0" y="163.71484"/>
      <point x="283.71484" y="-20.0"/>
      <point x="510.0" y="-20.0" type="curve" smooth="yes"/>
      <point x="736.28516" y="-20.0"/>
      <point x="920.0" y="163.71484"/>
    </contour>
    <contour>
      <point x="887.5" y="390.0" type="curve" smooth="yes"/>
      <point x="887.5" y="181.65208"/>
      <point x="718.34792" y="12.5"/>
      <point x="510.0" y="12.5" type="curve" smooth="yes"/>
      <point x="301.65208" y="12.5"/>
      <point x="132.5" y="181.65208"/>
      <point x="132.5" y="390.0" type="curve" smooth="yes"/>
      <point x="132.5" y="598.34792"/>
      <point x="301.65208" y="767.5"/>
      <point x="510.0" y="767.5" type="curve" smooth="yes"/>
      <point x="718.34792" y="767.5"/>
      <point x="887.5" y="598.34792"/>
    </contour>
  </outline>
</glyph>
<glyph name="q" format="2">
  <advance width="1020"/>
  <unicode hex="0071"/>
  <outline>
    <contour>
      <point x="872.5" y="-480" type="line"/>
      <point x="905" y="-480" type="line"/>
      <point x="905" y="780" type="line"/>
      <point x="872.5" y="780" type="line"/>
      <point x="872.5" y="549.0947189331055" type="line"/>
      <point x="810.6217607110386" y="693.6372006186234"/>
      <point x="667.0547503623652" y="794.9999999999999"/>
      <point x="500.0" y="794.9999999999999" type="curve" smooth="yes"/>
      <point x="276.4744169" y="794.9999999999999"/>
      <point x="95.0" y="613.5255831000001"/>
      <point x="95.0" y="390.0" type="curve" smooth="yes"/>
      <point x="95.0" y="166.47441690000002"/>
      <point x="276.47441689999994" y="-15.000000000000023"/>
      <point x="499.99999999999994" y="-15.000000000000023" type="curve" smooth="yes"/>
      <point x="667.0547503623652" y="-15.000000000000068"/>
      <point x="810.6217607110386" y="86.3627993813765"/>
      <point x="872.5" y="230.90777587890625" type="curve"/>
    </contour>
    <contour>
      <point x="872.5" y="390.0" type="curve" smooth="yes"/>
      <point x="872.4999999999999" y="184.4116550499999"/>
      <point x="705.58834495" y="17.499999999999915"/>
      <point x="499.99999999999994" y="17.499999999999975" type="curve" smooth="yes"/>
      <point x="294.4116550499999" y="17.499999999999975"/>
      <point x="127.5" y="184.41165504999998"/>
      <point x="127.5" y="390.0" type="curve" smooth="yes"/>
      <point x="127.5" y="595.58834495"/>
      <point x="294.41165505000004" y="762.4999999999999"/>
      <point x="500.0" y="762.4999999999999" type="curve" smooth="yes"/>
      <point x="705.5883449500001" y="762.4999999999999"/>
      <point x="872.5" y="595.58834495"/>
    </contour>
  </outline>
</glyph>
<glyph name="r" format="2">
  <advance width="1020"/>
  <unicode hex="0072"/>
  <outline>
    <contour>
      <point x="134.09091186523438" y="0" type="line"/>
      <point x="657.7272720336914" y="0" type="line"/>
      <point x="657.7272720336914" y="32.727272033691406" type="line"/>
      <point x="363.1818161010742" y="32.727272033691406" type="line"/>
      <point x="363.1818161010742" y="336.62337493896484" type="line"/>
      <point x="363.1818181818182" y="566.2773667636363"/>
      <point x="549.6317241454547" y="752.7272727272726"/>
      <point x="779.2857142857143" y="752.7272727272726" type="curve"/>
      <point x="935.9090881347656" y="752.7272720336914" type="line"/>
      <point x="935.9090881347656" y="785.4545440673828" type="line"/>
      <point x="779.2857131958008" y="785.4545440673828" type="line"/>
      <point x="591.1253387242779" y="785.4545454545454"/>
      <point x="429.8525563533922" y="669.4194687365159"/>
      <point x="363.1818161010742" y="505.05909729003906" type="curve"/>
      <point x="363.1818161010742" y="785.4545440673828" type="line"/>
      <point x="134.09091186523438" y="785.4545440673828" type="line"/>
      <point x="134.09091186523438" y="752.7272720336914" type="line"/>
      <point x="330.4545440673828" y="752.7272720336914" type="line"/>
      <point x="330.4545440673828" y="32.727272033691406" type="line"/>
      <point x="134.09091186523438" y="32.727272033691406" type="line"/>
    </contour>
  </outline>
</glyph>
<glyph name="s" format="2">
  <advance width="1020"/>
  <unicode hex="0073"/>
  <outline>
    <contour>
      <point x="124.375" y="198.33333587646484" type="line"/>
      <point x="124.375" y="80.59146240000003"/>
      <point x="294.9273455125" y="-14.999999999999961"/>
      <point x="505.0" y="-14.999999999999991" type="curve" smooth="yes"/>
      <point x="885.625" y="299.72156484525226"/>
      <point x="759.1475283323572" y="384.5891626317973"/>
      <point x="589.8949508666992" y="406.322857538859" type="curve"/>
      <point x="427.1489486694336" y="427.2210464477539" type="line"/>
      <point x="281.5821863027794" y="445.91324760157215"/>
      <point x="173.125" y="512.4065669445173"/>
      <point x="173.12500000000003" y="592.5000000000001" type="curve"/>
      <point x="173.125" y="686.3255534000001"/>
      <point x="321.8332027375001" y="762.5"/>
      <point x="505.0" y="762.5" type="curve" smooth="yes"/>
      <point x="688.1667972624999" y="762.5"/>
      <point x="836.875" y="686.3255534000001"/>
      <point x="836.875" y="592.5000000000001" type="curve"/>
      <point x="869.375" y="592.5" type="line"/>
      <point x="869.375" y="704.26279155"/>
      <point x="706.1040354125" y="795.0"/>
      <point x="505.0" y="795.0" type="curve" smooth="yes"/>
      <point x="303.89596458750003" y="795.0"/>
      <point x="140.625" y="704.2627915500002"/>
      <point x="140.625" y="592.5000000000001" type="curve"/>
      <point x="140.625" y="496.3907050344931"/>
      <point x="261.37391692887576" y="415.9121703970388"/>
      <point x="423.07096544901526" y="395.1491972605387" type="curve"/>
      <point x="585.8170394897461" y="374.25152587890625" type="line"/>
      <point x="738.9439774707453" y="354.58900817127596"/>
      <point x="853.125" y="283.68795196839733"/>
      <point x="853.125" y="198.33333333333334" type="curve"/>
      <point x="853.125" y="98.52870054999993"/>
      <point x="697.1354163375" y="17.499999999999975"/>
      <point x="505.0" y="17.500000000000007" type="curve" smooth="yes"/>
      <point x="312.86458366249997" y="17.500000000000036"/>
      <point x="156.875" y="98.52870055000004"/>
      <point x="156.875" y="198.33333333333337" type="curve"/>
    </contour>
  </outline>
</glyph>
<glyph name="t" format="2">
  <advance width="1020"/>
  <unicode hex="0074"/>
  <outline>
    <contour>
      <point x="355.9375" y="287.0833282470703" type="line"/>
      <point x="355.9375" y="128.63773"/>
      <point x="484.57523" y="0.0"/>
      <point x="643.02083" y="0.0" type="curve"/>
      <point x="851.5625" y="0" type="line"/>
      <point x="851.5625" y="32.5" type="line"/>
      <point x="643.0208282470703" y="32.5" type="line"/>
      <point x="502.51247" y="32.5"/>
      <point x="388.4375" y="146.57497"/>
      <point x="388.4375" y="287.08333" type="curve"/>
      <point x="388.4375" y="747.5" type="line"/>
      <point x="851.5625" y="747.5" type="line"/>
      <point x="851.5625" y="780" type="line"/>
      <point x="388.4375" y="780" type="line"/>
      <point x="388.4375" y="1021.4285736083984" type="line"/>
      <point x="355.9375" y="1021.4285736083984" type="line"/>
      <point x="355.9375" y="780" type="line"/>
      <point x="128.4375" y="780" type="line"/>
      <point x="128.4375" y="747.5" type="line"/>
      <point x="355.9375" y="747.5" type="line"/>
    </contour>
  </outline>
</glyph>
<glyph name="u" format="2">
  <advance width="980"/>
  <unicode hex="0075"/>
  <outline>
    <contour>
      <point x="140" y="390" type="line"/>
      <point x="140.0" y="199.5893181"/>
      <point x="294.58931809999996" y="45.0"/>
      <point x="484.99999999999994" y="45.0" type="curve" smooth="yes"/>
      <point x="625.2612685545874" y="45.0"/>
      <point x="746.0852779767539" y="128.88269781660193"/>
      <point x="800" y="249.19456481933594" type="curve"/>
      <point x="800" y="45" type="line"/>
      <point x="830" y="45" type="line"/>
      <point x="830" y="735" type="line"/>
      <point x="800" y="735" type="line"/>
      <point x="800" y="390" type="line"/>
      <point x="800.0" y="216.14676869999994"/>
      <point x="658.8532313" y="75.0"/>
      <point x="484.99999999999994" y="75.0" type="curve" smooth="yes"/>
      <point x="311.14676869999994" y="75.0"/>
      <point x="170.0" y="216.14676870000002"/>
      <point x="170.0" y="390.00000000000006" type="curve"/>
      <point x="170" y="735" type="line"/>
      <point x="140" y="735" type="line"/>
    </contour>
  </outline>
</glyph>
<glyph name="v" format="2">
  <advance width="1020"/>
  <unicode hex="0076"/>
  <outline>
    <contour>
      <point x="491.8706588745117" y="0" type="line"/>
      <point x="528.1293411254883" y="0" type="line"/>
      <point x="902.7272720336914" y="785.4545440673828" type="line"/>
      <point x="866.4685974121094" y="785.4545440673828" type="line"/>
      <point x="510" y="38.01348876953125" type="line"/>
      <point x="153.53140258789062" y="785.4545440673828" type="line"/>
      <point x="117.2727279663086" y="785.4545440673828" type="line"/>
    </contour>
  </outline>
</glyph>
<glyph name="w" format="2">
  <advance width="1020"/>
  <unicode hex="0077"/>
  <outline>
    <contour>
      <point x="286.28150177001953" y="0" type="line"/>
      <point x="319.90550231933594" y="0" type="line"/>
      <point x="510" y="716.6217956542969" type="line"/>
      <point x="700.0944976806641" y="0" type="line"/>
      <point x="733.7184982299805" y="0" type="line"/>
      <point x="940.625" y="780" type="line"/>
      <point x="907.0009994506836" y="780" type="line"/>
      <point x="716.9065017700195" y="63.378196716308594" type="line"/>
      <point x="526.8120040893555" y="780" type="line"/>
      <point x="493.18799591064453" y="780" type="line"/>
      <point x="303.09349822998047" y="63.378196716308594" type="line"/>
      <point x="112.9990005493164" y="780" type="line"/>
      <point x="79.375" y="780" type="line"/>
    </contour>
  </outline>
</glyph>
<glyph name="x" format="2">
  <advance width="1020"/>
  <unicode hex="0078"/>
  <outline>
    <contour>
      <point x="136.25" y="0" type="line"/>
      <point x="180.0224609375" y="0" type="line"/>
      <point x="510" y="365.74166107177734" type="line"/>
      <point x="839.9775390625" y="0" type="line"/>
      <point x="883.75" y="0" type="line"/>
      <point x="531.88623046875" y="390" type="line"/>
      <point x="883.75" y="780" type="line"/>
      <point x="839.9775390625" y="780" type="line"/>
      <point x="510" y="414.25833892822266" type="line"/>
      <point x="180.0224609375" y="780" type="line"/>
      <point x="136.25" y="780" type="line"/>
      <point x="488.11376953125" y="390" type="line"/>
    </contour>
  </outline>
</glyph>
<glyph name="y" format="2">
  <advance width="1020"/>
  <unicode hex="0079"/>
  <outline>
    <contour>
      <point x="263.07559967041016" y="-480" type="line"/>
      <point x="299.08248138427734" y="-480" type="line"/>
      <point x="900" y="780" type="line"/>
      <point x="863.9931182861328" y="780" type="line"/>
      <point x="510" y="37.74949645996094" type="line"/>
      <point x="156.0068817138672" y="780" type="line"/>
      <point x="120" y="780" type="line"/>
      <point x="491.9965591430664" y="0" type="line"/>
    </contour>
  </outline>
</glyph>
<glyph name="z" format="2">
  <advance width="1020"/>
  <unicode hex="007A"/>
  <outline>
    <contour>
      <point x="155.68181610107422" y="0" type="line"/>
      <point x="859.3181838989258" y="0" type="line"/>
      <point x="859.3181838989258" y="32.727272033691406" type="line"/>
      <point x="200.05594635009766" y="32.727272033691406" type="line"/>
      <point x="859.3181838989258" y="752.7272720336914" type="line"/>
      <point x="859.3181838989258" y="785.4545440673828" type="line"/>
      <point x="155.68181610107422" y="785.4545440673828" type="line"/>
      <point x="155.68181610107422" y="752.7272720336914" type="line"/>
      <point x="814.9440536499023" y="752.7272720336914" type="line"/>
      <point x="155.68181610107422" y="32.727272033691406" type="line"/>
    </contour>
  </outline>
</glyph>
<glyph name="braceleft" format="2">
  <advance width="1020"/>
  <unicode hex="007B"/>
  <outline>
    <contour>
      <point x="493.63636016845703" y="163.63636016845703" type="line"/>
      <point x="493.6363636363636" y="55.26032334545457"/>
      <point x="581.6239597090909" y="-32.72727272727273"/>
      <point x="690.0" y="-32.72727272727273" type="curve"/>
      <point x="788.1818161010742" y="-32.727272033691406" type="line"/>
      <point x="788.1818161010742" y="0" type="line"/>
      <point x="690" y="0" type="line"/>
      <point x="599.686633090909" y="0.0"/>
      <point x="526.3636363636363" y="73.32299672727272"/>
      <point x="526.3636363636363" y="163.63636363636365" type="curve"/>
      <point x="526.363639831543" y="409.0909118652344" type="line"/>
      <point x="526.3636363636363" y="489.55199080388724"/>
      <point x="477.86532384984866" y="558.7750664398952"/>
      <point x="408.53173828125" y="589.086540222168" type="curve"/>
      <point x="477.86532384984866" y="619.4067517419228"/>
      <point x="526.3636363636363" y="688.6298273779308"/>
      <point x="526.3636363636363" y="769.090909090909" type="curve"/>
      <point x="526.363639831543" y="1014.5454559326172" type="line"/>
      <point x="526.3636363636363" y="1104.8588214545453"/>
      <point x="599.686633090909" y="1178.181818181818"/>
      <point x="690.0" y="1178.181818181818" type="curve"/>
      <point x="788.1818161010742" y="1178.1818161010742" type="line"/>
      <point x="788.1818161010742" y="1210.9090881347656" type="line"/>
      <point x="690" y="1210.9090881347656" type="line"/>
      <point x="581.6239597090909" y="1210.9090909090908"/>
      <point x="493.6363636363636" y="1122.9214948363635"/>
      <point x="493.6363636363636" y="1014.5454545454545" type="curve"/>
      <point x="493.63636016845703" y="769.0909118652344" type="line"/>
      <point x="493.6363636363636" y="678.7775421818181"/>
      <point x="420.3133669090909" y="605.4545454545454"/>
      <point x="330.0" y="605.4545454545454" type="curve"/>
      <point x="231.81818389892578" y="605.4545440673828" type="line"/>
      <point x="231.81818389892578" y="572.7272720336914" type="line"/>
      <point x="330" y="572.7272720336914" type="line"/>
      <point x="420.3133669090909" y="572.7272727272726"/>
      <point x="493.6363636363636" y="499.404276"/>
      <point x="493.6363636363636" y="409.09090909090907" type="curve"/>
    </contour>
  </outline>
</glyph>
<glyph name="bar" format="2">
  <advance width="1020"/>
  <unicode hex="007C"/>
  <outline>
    <contour>
      <point x="493.75" y="-16.25" type="line"/>
      <point x="526.25" y="-16.25" type="line"/>
      <point x="526.25" y="1186.25" type="line"/>
      <point x="493.75" y="1186.25" type="line"/>
    </contour>
  </outline>
</glyph>
<glyph name="braceright" format="2">
  <advance width="1020"/>
  <unicode hex="007D"/>
  <outline>
    <contour>
      <point x="288.5" y="-16.25" type="line"/>
      <point x="515.9181726237406" y="-16.25"/>
      <point x="526.25" y="121.60110390523303"/>
      <point x="526.25" y="221.5" type="curve"/>
      <point x="526.25" y="363.5" type="line"/>
      <point x="526.25" y="557.6607529765047"/>
      <point x="636.0971668165287" y="568.75"/>
      <point x="731.5" y="568.75" type="curve"/>
      <point x="786.25" y="568.75" type="line"/>
      <point x="786.25" y="601.25" type="line"/>
      <point x="731.5" y="601.25" type="line"/>
      <point x="537.3392470234953" y="601.25"/>
      <point x="526.25" y="711.0971668165287"/>
      <point x="526.25" y="806.5" type="curve"/>
      <point x="526.25" y="948.5" type="line"/>
      <point x="526.25" y="1175.9181726237405"/>
      <point x="388.398896094767" y="1186.25"/>
      <point x="288.5" y="1186.25" type="curve"/>
      <point x="233.75" y="1186.25" type="line"/>
      <point x="233.75" y="1153.75" type="line"/>
      <point x="288.5" y="1153.75" type="line"/>
      <point x="482.6607529765046" y="1153.75"/>
      <point x="493.75" y="1043.9028331834713"/>
      <point x="493.75" y="948.5" type="curve"/>
      <point x="493.75" y="806.5" type="line"/>
      <point x="493.75" y="741.4626539938157"/>
      <point x="496.19599297740086" y="635.0876334037202"/>
      <point x="610.769889831543" y="585.0001449584961" type="curve"/>
      <point x="496.1959416198133" y="534.9121516466256"/>
      <point x="493.75" y="428.53740270541607"/>
      <point x="493.75" y="363.49999999999994" type="curve"/>
      <point x="493.75" y="221.5" type="line"/>
      <point x="493.75" y="27.339247023495375"/>
      <point x="383.90283318347133" y="16.25"/>
      <point x="288.5" y="16.25" type="curve"/>
      <point x="233.75" y="16.25" type="line"/>
      <point x="233.75" y="-16.25" type="line"/>
    </contour>
  </outline>
</glyph>
<glyph name="tilde" format="2">
  <advance width="1020"/>
  <unicode hex="007E"/>
  <outline>
    <contour>
      <point x="582.246374625306" y="459.1357511034735" type="curve"/>
      <point x="454.0036263292838" y="533.1767414502374" type="line"/>
      <point x="405.8150930995642" y="560.9984059973083"/>
      <point x="370.12309769032794" y="581.07701"/>
      <point x="317.98736" y="581.07701" type="curve"/>
      <point x="208.71516" y="581.07701"/>
      <point x="120.0" y="492.36185"/>
      <point x="120.0" y="383.08965" type="curve"/>
      <point x="152.5" y="383.0896530151367" type="line"/>
      <point x="152.5" y="474.4246100000001"/>
      <point x="226.65239999999994" y="548.57701"/>
      <point x="317.98736" y="548.57701" type="curve"/>
      <point x="361.1669918791834" y="548.57701"/>
      <point x="391.5252508291111" y="531.7208746869023"/>
      <point x="437.75362630610977" y="505.03091050978577" type="curve"/>
      <point x="565.9963727393005" y="430.98992868943293" type="line"/>
      <point x="614.1849072193012" y="403.16826622026605"/>
      <point x="649.8769023096721" y="383.08965"/>
      <point x="702.01264" y="383.08965" type="curve"/>
      <point x="811.28484" y="383.08965"/>
      <point x="900.0" y="471.80482"/>
      <point x="900.0" y="581.07701" type="curve"/>
      <point x="867.5" y="581.0770111083984" type="line"/>
      <point x="867.5" y="489.7420537111816"/>
      <point x="793.3476" y="415.58965"/>
      <point x="702.01264" y="415.58965" type="curve"/>
      <point x="658.8330081208167" y="415.58965"/>
      <point x="628.4747489176386" y="432.4457849244552"/>
    </contour>
  </outline>
</glyph>
<glyph name="invertedexclam" format="2">
  <advance width="1020"/>
  <unicode hex="00A1"/>
  <outline>
    <contour>
      <point x="428.75" y="698.75" type="curve" smooth="yes"/>
      <point x="428.75" y="653.9069"/>
      <point x="465.1569" y="617.5"/>
      <point x="510.0" y="617.5" type="curve" smooth="yes"/>
      <point x="554.8431" y="617.5"/>
      <point x="591.25" y="653.9069"/>
      <point x="591.25" y="698.75" type="curve" smooth="yes"/>
      <point x="591.25" y="743.5931"/>
      <point x="554.8431" y="780.0"/>
      <point x="510.0" y="780.0" type="curve" smooth="yes"/>
      <point x="465.1569" y="780.0"/>
      <point x="428.75" y="743.5931"/>
    </contour>
    <contour>
      <point x="526.25" y="481.0" type="line"/>
      <point x="493.75" y="481.0" type="line"/>
      <point x="493.75" y="-390.0" type="line"/>
      <point x="526.25" y="-390.0" type="line"/>
    </contour>
  </outline>
</glyph>
<glyph name="cent" format="2">
  <advance width="1020"/>
  <unicode hex="00A2"/>
  <outline>
    <contour>
      <point x="511.5635070800781" y="-130.90908813476562" type="line"/>
      <point x="542.654411315918" y="-130.90908813476562" type="line"/>
      <point x="542.654411315918" y="-14.701972961425781" type="line"/>
      <point x="702.8332916642657" y="-8.691598193825076"/>
      <point x="839.4944581703169" y="89.91335655830781"/>
      <point x="900.6183138760653" y="229.09090909090904" type="curve"/>
      <point x="864.5580673217773" y="229.09091186523438" type="line"/>
      <point x="805.8731291161242" y="108.40336905720955"/>
      <point x="684.3475014178109" y="23.833997699515393"/>
      <point x="542.654411315918" y="18.05389404296875" type="curve"/>
      <point x="542.654411315918" y="767.403190612793" type="line"/>
      <point x="684.3502912505004" y="761.6204946192057"/>
      <point x="805.8780303165237" y="677.0480483351058"/>
      <point x="864.5616011186079" y="556.3636363636364" type="curve"/>
      <point x="900.6098327636719" y="556.363639831543" type="line"/>
      <point x="839.4818749193053" y="695.5497062680944"/>
      <point x="702.8258230707836" y="794.1464805016441"/>
      <point x="542.654411315918" y="800.1560363769531" type="curve"/>
      <point x="542.654411315918" y="916.363639831543" type="line"/>
      <point x="511.5635070800781" y="916.363639831543" type="line"/>
      <point x="511.5635070800781" y="800.1569137573242" type="line"/>
      <point x="293.7243564565218" y="791.9803581581267"/>
      <point x="119.38168612393468" y="612.5531160690444"/>
      <point x="119.38168612393477" y="392.72727272727263" type="curve" smooth="yes"/>
      <point x="119.38168612393468" y="172.90142938550102"/>
      <point x="293.7243564565217" y="-6.525812703581266"/>
      <point x="511.5635070800781" y="-14.706039428710938" type="curve"/>
    </contour>
    <contour>
      <point x="152.10895885120738" y="392.7272727272727" type="curve" smooth="yes"/>
      <point x="152.1089588512074" y="594.4882939817052"/>
      <point x="311.79215886089014" y="759.2475995251282"/>
      <point x="511.5635070800781" y="767.4029006958008" type="curve"/>
      <point x="511.5635070800781" y="18.050941467285156" type="line"/>
      <point x="311.79215886089014" y="26.206945929417195"/>
      <point x="152.10895885120746" y="190.96625147284024"/>
    </contour>
  </outline>
</glyph>
<glyph name="pound" format="2">
  <advance width="1020"/>
  <unicode hex="00A3"/>
  <outline>
    <contour>
      <point x="120" y="0" type="line"/>
      <point x="900" y="0" type="line"/>
      <point x="900" y="32.5" type="line"/>
      <point x="282.5" y="32.5" type="line"/>
      <point x="282.5" y="498.3125" type="line"/>
      <point x="672.5" y="498.3125" type="line"/>
      <point x="672.5" y="529.1875" type="line"/>
      <point x="282.5" y="529.1875" type="line"/>
      <point x="282.5" y="865" type="line"/>
      <point x="282.5" y="1026.43514"/>
      <point x="413.56486" y="1157.5"/>
      <point x="575.0" y="1157.5" type="curve" smooth="yes"/>
      <point x="736.43514" y="1157.5"/>
      <point x="867.5" y="1026.43514"/>
      <point x="867.5" y="865.0" type="curve"/>
      <point x="900" y="865" type="line"/>
      <point x="900.0" y="1044.37238"/>
      <point x="754.37238" y="1190.0"/>
      <point x="575.0" y="1190.0" type="curve" smooth="yes"/>
      <point x="395.62762" y="1190.0"/>
      <point x="250.0" y="1044.37238"/>
      <point x="250.0" y="865.0" type="curve"/>
      <point x="250" y="529.1875" type="line"/>
      <point x="120" y="529.1875" type="line"/>
      <point x="120" y="498.3125" type="line"/>
      <point x="250" y="498.3125" type="line"/>
      <point x="250" y="32.5" type="line"/>
      <point x="120" y="32.5" type="line"/>
    </contour>
  </outline>
</glyph>
<glyph name="currency" format="2">
  <advance width="1020"/>
  <unicode hex="00A4"/>
  <outline>
    <contour>
      <point x="782.1875" y="584.9999999999999" type="curve" smooth="yes"/>
      <point x="782.1875" y="654.272663061678"/>
      <point x="756.2533779452855" y="717.5358836057651"/>
      <point x="713.5728988647461" y="765.591926574707" type="curve"/>
      <point x="897.8038787841797" y="949.8229064941406" type="line"/>
      <point x="874.8229064941406" y="972.8038787841797" type="line"/>
      <point x="690.5880966186523" y="788.5690689086914" type="line"/>
      <point x="642.5238106268137" y="831.2583268832353"/>
      <point x="579.2660531894197" y="857.1874999999999"/>
      <point x="510.0" y="857.1875" type="curve" smooth="yes"/>
      <point x="440.73214411814615" y="857.1874999999999"/>
      <point x="377.4728967317109" y="831.2569772197191"/>
      <point x="329.40807342529297" y="788.5728988647461" type="curve"/>
      <point x="145.17709350585938" y="972.8038787841797" type="line"/>
      <point x="122.19612121582031" y="949.8229064941406" type="line"/>
      <point x="306.4309310913086" y="765.5880966186523" type="line"/>
      <point x="263.7481968158236" y="717.5397249852107"/>
      <point x="237.8125" y="654.2747662028512"/>
      <point x="237.8125" y="585.0000000000001" type="curve" smooth="yes"/>
      <point x="237.8125" y="515.727336938322"/>
      <point x="263.7466220547145" y="452.46411639423485"/>
      <point x="306.4271011352539" y="404.40807342529297" type="curve"/>
      <point x="122.19612121582031" y="220.17709350585938" type="line"/>
      <point x="145.17709350585938" y="197.1961212158203" type="line"/>
      <point x="329.41190338134766" y="381.4309310913086" type="line"/>
      <point x="377.4761893731863" y="338.7416731167646"/>
      <point x="440.7339468105802" y="312.8125"/>
      <point x="510.0" y="312.8125" type="curve" smooth="yes"/>
      <point x="579.2678558818538" y="312.8125"/>
      <point x="642.5271032682891" y="338.7430227802807"/>
      <point x="690.591926574707" y="381.4271011352539" type="curve"/>
      <point x="874.8229064941406" y="197.1961212158203" type="line"/>
      <point x="897.8038787841797" y="220.17709350585938" type="line"/>
      <point x="713.5690689086914" y="404.41190338134766" type="line"/>
      <point x="756.2518031841764" y="452.46027501478926"/>
      <point x="782.1875" y="515.7252337971488"/>
    </contour>
    <contour>
      <point x="749.6875" y="585.0" type="curve" smooth="yes"/>
      <point x="749.6875" y="452.7128686437499"/>
      <point x="642.28713135625" y="345.3125"/>
      <point x="510.0" y="345.3125" type="curve" smooth="yes"/>
      <point x="377.71286864374997" y="345.3125"/>
      <point x="270.3125" y="452.71286864375"/>
      <point x="270.3125" y="585.0" type="curve" smooth="yes"/>
      <point x="270.3125" y="717.28713135625"/>
      <point x="377.71286864374997" y="824.6875"/>
      <point x="510.0" y="824.6875" type="curve" smooth="yes"/>
      <point x="642.28713135625" y="824.6875"/>
      <point x="749.6875" y="717.28713135625"/>
    </contour>
  </outline>
</glyph>
<glyph name="yen" format="2">
  <advance width="1020"/>
  <unicode hex="00A5"/>
  <outline>
    <contour>
      <point x="120" y="312.8125" type="line"/>
      <point x="493.75" y="312.8125" type="line"/>
      <point x="493.75" y="0" type="line"/>
      <point x="526.25" y="0" type="line"/>
      <point x="526.25" y="312.8125" type="line"/>
      <point x="900" y="312.8125" type="line"/>
      <point x="900" y="343.6875" type="line"/>
      <point x="526.25" y="343.6875" type="line"/>
      <point x="526.25" y="487.5" type="line"/>
      <point x="545.2083358764648" y="520" type="line"/>
      <point x="900" y="520" type="line"/>
      <point x="900" y="550.875" type="line"/>
      <point x="563.21875" y="550.875" type="line"/>
      <point x="924.375" y="1170" type="line"/>
      <point x="886.7496337890625" y="1170" type="line"/>
      <point x="525.593376159668" y="550.875" type="line"/>
      <point x="494.40662384033203" y="550.875" type="line"/>
      <point x="133.2503662109375" y="1170" type="line"/>
      <point x="95.625" y="1170" type="line"/>
      <point x="456.78125" y="550.875" type="line"/>
      <point x="120" y="550.875" type="line"/>
      <point x="120" y="520" type="line"/>
      <point x="474.79166412353516" y="520" type="line"/>
      <point x="493.75" y="487.5" type="line"/>
      <point x="493.75" y="343.6875" type="line"/>
      <point x="120" y="343.6875" type="line"/>
    </contour>
  </outline>
</glyph>
<glyph name="brokenbar" format="2">
  <advance width="980"/>
  <unicode hex="00A6"/>
  <outline>
    <contour>
      <point x="475.0" y="633.75" type="line"/>
      <point x="505.0" y="633.75" type="line"/>
      <point x="505.0" y="1155.0" type="line"/>
      <point x="475.0" y="1155.0" type="line"/>
    </contour>
    <contour>
      <point x="475.0" y="15.0" type="line"/>
      <point x="505.0" y="15.0" type="line"/>
      <point x="505.0" y="536.25" type="line"/>
      <point x="475.0" y="536.25" type="line"/>
    </contour>
  </outline>
</glyph>
<glyph name="section" format="2">
  <advance width="1020"/>
  <unicode hex="00A7"/>
  <outline>
    <contour>
      <point x="789.5" y="499.79166412353516" type="line"/>
      <point x="789.5" y="379.3132170924999"/>
      <point x="664.2602480899999" y="281.49999999999994"/>
      <point x="509.9999999999999" y="281.49999999999994" type="curve" smooth="yes"/>
      <point x="475.35314827898594" y="281.49999999999994"/>
      <point x="442.17024013105146" y="286.43420338634587"/>
      <point x="411.54138946533203" y="295.46363830566406" type="curve"/>
      <point x="316.5309805884773" y="324.2632011956256"/>
      <point x="245.37545053494364" y="391.4718368944823"/>
      <point x="232.56620025634766" y="473.24752044677734" type="curve"/>
      <point x="232.45509338378906" y="473.96778869628906" type="line"/>
      <point x="231.91441345214844" y="477.8436508178711" type="line"/>
      <point x="231.75298309326172" y="479.12560272216797" type="line"/>
      <point x="231.38130950927734" y="482.50730895996094" type="line"/>
      <point x="231.21514129638672" y="484.20825958251953" type="line"/>
      <point x="230.97109985351562" y="487.2433776855469" type="line"/>
      <point x="230.83211517333984" y="489.2426528930664" type="line"/>
      <point x="230.68859100341797" y="492.058349609375" type="line"/>
      <point x="230.59798431396484" y="494.24778747558594" type="line"/>
      <point x="230.53739166259766" y="497.05391693115234" type="line"/>
      <point x="230.5" y="499.79166412353516" type="line"/>
      <point x="230.5" y="620.2701162408333"/>
      <point x="355.73975191" y="718.0833333333333"/>
      <point x="510.0" y="718.0833333333333" type="curve" smooth="yes"/>
      <point x="545.3158784169804" y="718.0833333333333"/>
      <point x="579.1107302359998" y="712.9567323301308"/>
      <point x="610.2302093505859" y="703.6019897460938" type="curve"/>
      <point x="611.0543670654297" y="703.348258972168" type="line"/>
      <point x="706.3599735076757" y="674.0065632389775"/>
      <point x="776.5561852948852" y="605.614101259211"/>
      <point x="787.8917007446289" y="523.2793121337891" type="curve"/>
      <point x="788.0341186523438" y="522.1483383178711" type="line"/>
      <point x="788.482307434082" y="518.4721069335938" type="line"/>
      <point x="788.6508102416992" y="516.7472457885742" type="line"/>
      <point x="788.9398651123047" y="513.6207885742188" type="line"/>
      <point x="789.0817108154297" y="511.5802536010742" type="line"/>
      <point x="789.2616806030273" y="508.7266540527344" type="line"/>
      <point x="789.3531646728516" y="506.51610565185547" type="line"/>
      <point x="789.4455871582031" y="503.7754821777344" type="line"/>
    </contour>
    <contour>
      <point x="206.66666412353516" y="30.708335876464844" type="line"/>
      <point x="206.66666666666666" y="-88.57430036416669"/>
      <point x="342.5857772666666" y="-185.41666666666666"/>
      <point x="509.9999999999999" y="-185.41666666666666" type="curve" smooth="yes"/>
      <point x="677.4142227333333" y="-185.41666666666666"/>
      <point x="813.3333333333333" y="-88.5743003641668"/>
      <point x="813.3333333333333" y="30.708333333333325" type="curve"/>
      <point x="813.3333333333333" y="120.49929011019597"/>
      <point x="736.1560334779214" y="197.04396093852222"/>
      <point x="626.82171681722" y="230.19123992919918" type="curve"/>
      <point x="555.8554763793945" y="251.70632934570312" type="line"/>
      <point x="706.3462971255555" y="269.54391588626214"/>
      <point x="822.0" y="373.8969236383404"/>
      <point x="822.0" y="499.79166666666663" type="curve"/>
      <point x="822.0" y="501.4957021982388"/>
      <point x="821.978811430217" y="503.1957911327734"/>
      <point x="821.936637878418" y="504.84578704833984" type="curve"/>
      <point x="822.0" y="502.1016419150785"/>
      <point x="821.9609840905246" y="504.4041048609537"/>
      <point x="821.8834609985352" y="506.3125762939453" type="curve"/>
      <point x="821.8470640523063" y="507.78474867068667"/>
      <point x="821.8021767749177" y="508.8616401567464"/>
      <point x="821.7488555908203" y="509.8888244628906" type="curve"/>
      <point x="821.7193202915184" y="510.51982594541255"/>
      <point x="821.6871914769382" y="511.1141210926485"/>
      <point x="821.6524810791016" y="511.48326110839844" type="curve"/>
      <point x="821.5891006819783" y="512.8075098304972"/>
      <point x="821.5171032595852" y="513.8915301911434"/>
      <point x="821.4365386962891" y="514.9238510131836" type="curve"/>
      <point x="821.3962926248327" y="515.4954242695128"/>
      <point x="821.3539165346557" y="516.0348230439342"/>
      <point x="821.3094253540039" y="516.4252548217773" type="curve"/>
      <point x="821.2154795583981" y="517.7335866877381"/>
      <point x="821.1120387759462" y="518.870935972078"/>
      <point x="820.9991683959961" y="519.953987121582" type="curve"/>
      <point x="820.9531293654758" y="520.4428928159704"/>
      <point x="820.9055190065515" y="520.9049475407868"/>
      <point x="820.8563461303711" y="521.2651748657227" type="curve"/>
      <point x="820.7269288372162" y="522.611451592414"/>
      <point x="820.5866699541637" y="523.8260375259381"/>
      <point x="820.435661315918" y="524.9835662841797" type="curve"/>
      <point x="820.3898643114915" y="525.3714106134926"/>
      <point x="820.343077417234" y="525.7381567797764"/>
      <point x="820.2953033447266" y="526.0369262695312" type="curve"/>
      <point x="820.1243313613436" y="527.4538919243302"/>
      <point x="819.9407146206922" y="528.7647231815081"/>
      <point x="819.7445297241211" y="530.0160064697266" type="curve"/>
      <point x="819.7060972203737" y="530.2863882046248"/>
      <point x="819.66719150049" y="530.5419927321184"/>
      <point x="819.6277923583984" y="530.7565765380859" type="curve"/>
      <point x="819.40793523708" y="532.2695397828008"/>
      <point x="819.1730902014377" y="533.6945400598446"/>
      <point x="818.9233856201172" y="535.0575180053711" type="curve"/>
      <point x="818.901019114038" y="535.1919325248366"/>
      <point x="818.8785185234207" y="535.319061088867"/>
      <point x="818.8558883666992" y="535.4281616210938" type="curve"/>
      <point x="802.5801030316838" y="627.1165031907414"/>
      <point x="724.606147246884" y="702.8370342671757"/>
      <point x="619.8915863037109" y="734.5521469116211" type="curve"/>
      <point x="619.6656494140625" y="734.6227798461914" type="line"/>
      <point x="406.46337127685547" y="800.1578216552734" type="line"/>
      <point x="313.34533481285695" y="828.7808480081746"/>
      <point x="247.83333333333331" y="893.2787331354399"/>
      <point x="247.83333333333326" y="968.8749999999999" type="curve"/>
      <point x="247.83333333333331" y="1070.2203955475"/>
      <point x="365.30627892333337" y="1152.4999999999998"/>
      <point x="510.0" y="1152.4999999999998" type="curve" smooth="yes"/>
      <point x="654.6937210766666" y="1152.4999999999998"/>
      <point x="772.1666666666666" y="1070.2203955475"/>
      <point x="772.1666666666666" y="968.8749999999999" type="curve"/>
      <point x="804.6666641235352" y="968.875" type="line"/>
      <point x="804.6666666666666" y="1088.1576336975"/>
      <point x="672.6309592266666" y="1184.9999999999998"/>
      <point x="510.0" y="1184.9999999999998" type="curve" smooth="yes"/>
      <point x="347.3690407733333" y="1184.9999999999998"/>
      <point x="215.33333333333331" y="1088.1576336975"/>
      <point x="215.33333333333331" y="968.8749999999999" type="curve"/>
      <point x="215.33333333333331" y="878.701265251602"/>
      <point x="290.95615481918003" y="801.8967608796837"/>
      <point x="397.878352355957" y="768.9786692301432" type="curve"/>
      <point x="465.79027557373047" y="748.0706481933594" type="line"/>
      <point x="314.49777378148144" y="730.7993425878943"/>
      <point x="197.99999999999994" y="626.1449808684232"/>
      <point x="198.00000000000003" y="499.7916666666667" type="curve"/>
      <point x="198.0" y="498.0886000449086"/>
      <point x="198.02116448111096" y="496.38947553341603"/>
      <point x="198.06329345703125" y="494.73941802978516" type="curve"/>
      <point x="198.0" y="497.476670915162"/>
      <point x="198.03917866964335" y="495.1692008182382"/>
      <point x="198.11702728271484" y="493.25732421875" type="curve"/>
      <point x="198.1532716348291" y="491.7908985480111"/>
      <point x="198.1979008330229" y="490.72073974171826"/>
      <point x="198.2508544921875" y="489.6993179321289" type="curve"/>
      <point x="198.28087850349286" y="489.0580923808783"/>
      <point x="198.31358158943982" y="488.45362831052546"/>
      <point x="198.34896087646484" y="488.0762481689453" type="curve"/>
      <point x="198.41180664402748" y="486.7625777703663"/>
      <point x="198.48306197361566" y="485.69031447629095"/>
      <point x="198.56267547607422" y="484.6688003540039" type="curve"/>
      <point x="198.60403900803053" y="484.08144010420347"/>
      <point x="198.64766518777375" y="483.5265060923325"/>
      <point x="198.69354248046875" y="483.1230697631836" type="curve"/>
      <point x="198.7862243217222" y="481.8315464173848"/>
      <point x="198.8881089804543" y="480.7118758918297"/>
      <point x="198.99913787841797" y="479.64485931396484" type="curve"/>
      <point x="199.04727678462194" y="479.1337278263306"/>
      <point x="199.09713179088942" y="478.650186172512"/>
      <point x="199.14868927001953" y="478.2719192504883" type="curve"/>
      <point x="199.27580159253492" y="476.9489213758927"/>
      <point x="199.41329693745743" y="475.7588152348534"/>
      <point x="199.56110382080078" y="474.6240768432617" type="curve"/>
      <point x="199.61042339838758" y="474.2063550721209"/>
      <point x="199.66089335227892" y="473.81095297615764"/>
      <point x="199.71250915527344" y="473.4878158569336" type="curve"/>
      <point x="199.87962779932403" y="472.1020514169022"/>
      <point x="200.05879547099872" y="470.82349485328217"/>
      <point x="200.24989318847656" y="469.60269927978516" type="curve"/>
      <point x="200.2937215713115" y="469.2942811248656"/>
      <point x="200.3381710031343" y="469.00238367304536"/>
      <point x="200.38323211669922" y="468.7567901611328" type="curve"/>
      <point x="200.59720121856225" y="467.28377533654077"/>
      <point x="200.8253040141166" y="465.90007952977203"/>
      <point x="201.06741333007812" y="464.5763397216797" type="curve"/>
      <point x="201.097837978103" y="464.3934503184917"/>
      <point x="201.1284598591987" y="464.22049503306664"/>
      <point x="201.15929412841797" y="464.07181549072266" type="curve"/>
      <point x="201.42830985029624" y="462.48949830941126"/>
      <point x="201.7140813186711" y="460.9833109308722"/>
      <point x="202.01647186279297" y="459.5390167236328" type="curve"/>
      <point x="202.0239370906182" y="459.4998495569372"/>
      <point x="202.0314298831398" y="459.462756598613"/>
      <point x="202.03892517089844" y="459.4303665161133" type="curve"/>
      <point x="220.20540004934028" y="369.40750056786027"/>
      <point x="298.0009183108653" y="295.43278817214735"/>
      <point x="401.71997833251953" y="264.5433883666992" type="curve"/>
      <point x="401.75205993652344" y="264.53343200683594" type="line"/>
      <point x="616.54443359375" y="199.55097198486328" type="line"/>
      <point x="712.8044738807055" y="170.42882468599208"/>
      <point x="780.8333333333333" y="106.4130397711292"/>
      <point x="780.8333333333333" y="30.708333333333325" type="curve"/>
      <point x="780.8333333333333" y="-70.63706221416676"/>
      <point x="659.4769845833332" y="-152.91666666666666"/>
      <point x="510.0" y="-152.91666666666666" type="curve" smooth="yes"/>
      <point x="360.5230154166666" y="-152.91666666666666"/>
      <point x="239.16666666666666" y="-70.63706221416665"/>
      <point x="239.16666666666666" y="30.708333333333325" type="curve"/>
    </contour>
  </outline>
</glyph>
<glyph name="diaeresis" format="2">
  <advance width="980"/>
  <unicode hex="00A8"/>
  <outline>
    <contour>
      <point x="391.8" y="1016.8" type="curve" smooth="yes"/>
      <point x="391.8" y="1034.350897636"/>
      <point x="377.550897636" y="1048.6"/>
      <point x="360.0" y="1048.6" type="curve" smooth="yes"/>
      <point x="342.449102364" y="1048.6"/>
      <point x="328.2" y="1034.350897636"/>
      <point x="328.2" y="1016.8000000000001" type="curve" smooth="yes"/>
      <point x="328.2" y="999.249102364"/>
      <point x="342.449102364" y="985.0"/>
      <point x="360.0" y="985.0" type="curve" smooth="yes"/>
      <point x="377.550897636" y="985.0"/>
      <point x="391.8" y="999.249102364"/>
    </contour>
    <contour>
      <point x="651.8" y="1016.8" type="curve" smooth="yes"/>
      <point x="651.8" y="1034.350897636"/>
      <point x="637.550897636" y="1048.6"/>
      <point x="620.0" y="1048.6" type="curve" smooth="yes"/>
      <point x="602.449102364" y="1048.6"/>
      <point x="588.2" y="1034.350897636"/>
      <point x="588.2" y="1016.8000000000001" type="curve" smooth="yes"/>
      <point x="588.2" y="999.249102364"/>
      <point x="602.449102364" y="985.0"/>
      <point x="620.0" y="985.0" type="curve" smooth="yes"/>
      <point x="637.550897636" y="985.0"/>
      <point x="651.8" y="999.249102364"/>
    </contour>
  </outline>
</glyph>
<glyph name="copyright" format="2">
  <advance width="1020"/>
  <unicode hex="00A9"/>
  <outline>
    <contour>
      <point x="900.0" y="585.0" type="curve" smooth="yes"/>
      <point x="900.0" y="800.24686"/>
      <point x="725.24686" y="975.0"/>
      <point x="510.0" y="975.0" type="curve" smooth="yes"/>
      <point x="294.75314" y="975.0"/>
      <point x="120.0" y="800.24686"/>
      <point x="120.0" y="585.0" type="curve" smooth="yes"/>
      <point x="120.0" y="369.75314"/>
      <point x="294.75314" y="195.0"/>
      <point x="510.0" y="195.0" type="curve" smooth="yes"/>
      <point x="725.24686" y="195.0"/>
      <point x="900.0" y="369.75314"/>
    </contour>
    <contour>
      <point x="874.8125" y="585.0" type="curve" smooth="yes"/>
      <point x="874.8125" y="383.6545"/>
      <point x="711.3455" y="220.1875"/>
      <point x="510.0" y="220.1875" type="curve" smooth="yes"/>
      <point x="308.6545" y="220.1875"/>
      <point x="145.1875" y="383.6545"/>
      <point x="145.1875" y="585.0" type="curve" smooth="yes"/>
      <point x="145.1875" y="786.3455"/>
      <point x="308.6545" y="949.8125"/>
      <point x="510.0" y="949.8125" type="curve" smooth="yes"/>
      <point x="711.3455" y="949.8125"/>
      <point x="874.8125" y="786.3455"/>
    </contour>
    <contour>
      <point x="510.0" y="402.52778" type="curve" smooth="yes"/>
      <point x="409.29084" y="402.52778"/>
      <point x="327.52778" y="484.29084"/>
      <point x="327.52778" y="585.0" type="curve" smooth="yes"/>
      <point x="327.52778" y="685.70916"/>
      <point x="409.29084" y="767.47222"/>
      <point x="510.0" y="767.47222" type="curve" smooth="yes"/>
      <point x="581.52264" y="767.47222"/>
      <point x="643.48944" y="726.2334"/>
      <point x="673.39943" y="666.25" type="curve"/>
      <point x="705.54172" y="666.25" type="line"/>
      <point x="673.64949" y="742.83485"/>
      <point x="598.06812" y="796.72222"/>
      <point x="510.0" y="796.72222" type="curve" smooth="yes"/>
      <point x="393.14733" y="796.72222"/>
      <point x="298.27778" y="701.85267"/>
      <point x="298.27778" y="585.0" type="curve" smooth="yes"/>
      <point x="298.27778" y="468.14733"/>
      <point x="393.14733" y="373.27778"/>
      <point x="510.0" y="373.27778" type="curve" smooth="yes"/>
      <point x="598.06952" y="373.27778"/>
      <point x="673.65189" y="427.16686"/>
      <point x="705.54328" y="503.75" type="curve"/>
      <point x="673.40064" y="503.75" type="line"/>
      <point x="643.49101" y="443.76765"/>
      <point x="581.52354" y="402.52778"/>
    </contour>
  </outline>
</glyph>
<glyph name="ordinalfeminine" format="2">
  <advance width="1020"/>
  <unicode hex="00AA"/>
  <outline>
    <contour>
      <point x="493.75" y="959.1666666666664" type="curve"/>
      <point x="676.5625" y="959.1666641235352" type="line"/>
      <point x="676.5625" y="860.741821433333"/>
      <point x="587.3655836687501" y="780.8333333333333"/>
      <point x="477.5" y="780.8333333333333" type="curve"/>
      <point x="403.50889263125" y="780.8333333333333"/>
      <point x="343.4375" y="820.7875773833332"/>
      <point x="343.4375" y="869.9999999999999" type="curve"/>
      <point x="343.4375" y="919.2124226166666"/>
      <point x="410.79027355625" y="959.1666666666664"/>
    </contour>
    <contour>
      <point x="310.9375" y="611.8333333333333" type="line"/>
      <point x="709.0625" y="611.8333333333333" type="line"/>
      <point x="709.0625" y="644.3333333333333" type="line"/>
      <point x="310.9375" y="644.3333333333333" type="line"/>
    </contour>
    <contour>
      <point x="676.5625" y="756.0416641235352" type="line"/>
      <point x="709.0625" y="756.0416641235352" type="line"/>
      <point x="709.0625" y="1015.8333358764648" type="line"/>
      <point x="709.0625" y="1100.9202322499998"/>
      <point x="624.0197048375" y="1170.0"/>
      <point x="519.2708333333334" y="1170.0" type="curve"/>
      <point x="408.54288244583336" y="1170.0"/>
      <point x="318.64583333333337" y="1104.5609227124999"/>
      <point x="318.64583333333337" y="1023.9583333333331" type="curve"/>
      <point x="351.14583587646484" y="1023.9583358764648" type="line"/>
      <point x="351.14583333333337" y="1086.6236845624999"/>
      <point x="426.48012059583334" y="1137.5"/>
      <point x="519.2708333333334" y="1137.5" type="curve"/>
      <point x="606.0824666875" y="1137.5"/>
      <point x="676.5625" y="1082.9829940999998"/>
      <point x="676.5625" y="1015.8333333333331" type="curve"/>
      <point x="676.5625" y="991.6666641235352" type="line"/>
      <point x="493.75" y="991.6666641235352" type="line"/>
      <point x="392.85303540625" y="991.6666666666664"/>
      <point x="310.9375" y="937.1496607666664"/>
      <point x="310.9375" y="869.9999999999999" type="curve"/>
      <point x="310.9375" y="802.8503392333332"/>
      <point x="385.57165448125" y="748.3333333333333"/>
      <point x="477.5" y="748.3333333333333" type="curve"/>
      <point x="562.0939657900487" y="748.3333333333333"/>
      <point x="636.1540329260714" y="789.7235353674942"/>
      <point x="676.5625" y="851.482666015625" type="curve"/>
    </contour>
  </outline>
</glyph>
<glyph name="angledblleft" format="2">
  <advance width="1020"/>
  <unicode hex="00AB"/>
  <outline>
    <contour>
      <point x="760.4166717529297" y="222.0833282470703" type="line"/>
      <point x="482.94773864746094" y="482.0833282470703" type="line"/>
      <point x="760.4166717529297" y="742.0833282470703" type="line"/>
      <point x="712.8855895996094" y="742.0833282470703" type="line"/>
      <point x="435.4166717529297" y="482.0833282470703" type="line"/>
      <point x="712.8855895996094" y="222.0833282470703" type="line"/>
    </contour>
    <contour>
      <point x="554.5833282470703" y="222.0833282470703" type="line"/>
      <point x="277.1144104003906" y="482.0833282470703" type="line"/>
      <point x="554.5833282470703" y="742.0833282470703" type="line"/>
      <point x="507.05226135253906" y="742.0833282470703" type="line"/>
      <point x="229.5833282470703" y="482.0833282470703" type="line"/>
      <point x="507.05226135253906" y="222.0833282470703" type="line"/>
    </contour>
  </outline>
</glyph>
<glyph name="logicalnot" format="2">
  <advance width="1020"/>
  <unicode hex="00AC"/>
  <outline>
    <contour>
      <point x="120" y="465.8333282470703" type="line"/>
      <point x="867.5" y="465.8333282470703" type="line"/>
      <point x="867.5" y="0" type="line"/>
      <point x="900" y="0" type="line"/>
      <point x="900" y="498.3333282470703" type="line"/>
      <point x="120" y="498.3333282470703" type="line"/>
    </contour>
  </outline>
</glyph>
<glyph name="registered" format="2">
  <advance width="1020"/>
  <unicode hex="00AE"/>
  <outline>
    <contour>
      <point x="902.7272727272727" y="785.4545454545454" type="curve" smooth="yes"/>
      <point x="902.7272727272727" y="1002.2066260363636"/>
      <point x="726.7520805818183" y="1178.181818181818"/>
      <point x="510.0" y="1178.181818181818" type="curve" smooth="yes"/>
      <point x="293.2479194181819" y="1178.181818181818"/>
      <point x="117.27272727272731" y="1002.2066260363636"/>
      <point x="117.27272727272731" y="785.4545454545454" type="curve" smooth="yes"/>
      <point x="117.27272727272731" y="568.7024648727272"/>
      <point x="293.24791941818177" y="392.7272727272727"/>
      <point x="509.99999999999994" y="392.7272727272727" type="curve" smooth="yes"/>
      <point x="726.7520805818183" y="392.72727272727263"/>
      <point x="902.7272727272727" y="568.7024648727272"/>
    </contour>
    <contour>
      <point x="877.3636363636363" y="785.4545454545454" type="curve" smooth="yes"/>
      <point x="877.3636363636363" y="582.7010367436362"/>
      <point x="712.753508710909" y="418.090909090909"/>
      <point x="509.99999999999994" y="418.09090909090907" type="curve" smooth="yes"/>
      <point x="307.2464912890909" y="418.09090909090907"/>
      <point x="142.63636363636368" y="582.7010367436363"/>
      <point x="142.63636363636368" y="785.4545454545454" type="curve" smooth="yes"/>
      <point x="142.63636363636368" y="988.2080541654545"/>
      <point x="307.24649128909095" y="1152.8181818181818"/>
      <point x="510.0" y="1152.8181818181818" type="curve" smooth="yes"/>
      <point x="712.753508710909" y="1152.8181818181818"/>
      <point x="877.3636363636363" y="988.2080541654544"/>
    </contour>
    <contour>
      <point x="367.44000244140625" y="589.0295486450195" type="line"/>
      <point x="396.89454650878906" y="589.0295486450195" type="line"/>
      <point x="396.89454650878906" y="730.371826171875" type="line"/>
      <point x="532.7127304077148" y="730.371826171875" type="line"/>
      <point x="537.2529907226562" y="730.442741394043" type="line"/>
      <point x="655.5720443725586" y="589.0295486450195" type="line"/>
      <point x="691.4400024414062" y="589.0295486450195" type="line"/>
      <point x="570.0832061767578" y="734.0734024047852" type="line"/>
      <point x="639.6797277394492" y="748.0239592743171"/>
      <point x="691.44" y="800.1316486769958"/>
      <point x="691.44" y="862.2006863941426" type="curve" smooth="yes"/>
      <point x="691.44" y="934.9590137790422"/>
      <point x="620.3166931745454" y="994.0295454545454"/>
      <point x="532.7127272727273" y="994.0295454545454" type="curve"/>
      <point x="367.44000244140625" y="994.0295486450195" type="line"/>
    </contour>
    <contour>
      <point x="532.7127304077148" y="969.5664596557617" type="line"/>
      <point x="604.060287130909" y="969.5664582062234"/>
      <point x="661.9854545454546" y="921.4574684911227"/>
      <point x="661.9854545454546" y="862.2006863941427" type="curve" smooth="yes"/>
      <point x="661.9854545454546" y="802.9439042971629"/>
      <point x="604.060287130909" y="754.8349145820622"/>
      <point x="532.7127272727273" y="754.8349145820622" type="curve"/>
      <point x="396.89454650878906" y="754.8349151611328" type="line"/>
      <point x="396.89454650878906" y="969.5664596557617" type="line"/>
    </contour>
  </outline>
</glyph>
<glyph name="macron" format="2">
  <advance width="1020"/>
  <unicode hex="00AF"/>
  <outline>
    <contour>
      <point x="250.0" y="1018.3333333333333" type="line"/>
      <point x="770.0" y="1018.3333333333333" type="line"/>
      <point x="770.0" y="1050.8333333333333" type="line"/>
      <point x="250.0" y="1050.8333333333333" type="line"/>
    </contour>
  </outline>
</glyph>
<glyph name="degree" format="2">
  <advance width="1020"/>
  <unicode hex="00B0"/>
  <outline>
    <contour>
      <point x="721.25" y="958.75" type="curve" smooth="yes"/>
      <point x="721.25" y="1075.34205"/>
      <point x="626.59205" y="1170.0"/>
      <point x="510.0" y="1170.0" type="curve" smooth="yes"/>
      <point x="393.40795" y="1170.0"/>
      <point x="298.75" y="1075.34205"/>
      <point x="298.75" y="958.75" type="curve" smooth="yes"/>
      <point x="298.75" y="842.15795"/>
      <point x="393.40795" y="747.5"/>
      <point x="510.0" y="747.5" type="curve" smooth="yes"/>
      <point x="626.59205" y="747.5"/>
      <point x="721.25" y="842.15795"/>
    </contour>
    <contour>
      <point x="688.75" y="958.75" type="curve" smooth="yes"/>
      <point x="688.75" y="860.09519"/>
      <point x="608.65481" y="780.0"/>
      <point x="510.0" y="780.0" type="curve" smooth="yes"/>
      <point x="411.34519" y="780.0"/>
      <point x="331.25" y="860.09519"/>
      <point x="331.25" y="958.75" type="curve" smooth="yes"/>
      <point x="331.25" y="1057.40481"/>
      <point x="411.34519" y="1137.5"/>
      <point x="510.0" y="1137.5" type="curve" smooth="yes"/>
      <point x="608.65481" y="1137.5"/>
      <point x="688.75" y="1057.40481"/>
    </contour>
  </outline>
</glyph>
<glyph name="plusminus" format="2">
  <advance width="980"/>
  <unicode hex="00B1"/>
  <outline>
    <contour>
      <point x="475" y="265" type="line"/>
      <point x="505" y="265" type="line"/>
      <point x="505" y="535" type="line"/>
      <point x="775" y="535" type="line"/>
      <point x="775" y="565" type="line"/>
      <point x="505" y="565" type="line"/>
      <point x="505" y="835" type="line"/>
      <point x="475" y="835" type="line"/>
      <point x="475" y="565" type="line"/>
      <point x="205" y="565" type="line"/>
      <point x="205" y="535" type="line"/>
      <point x="475" y="535" type="line"/>
    </contour>
    <contour>
      <point x="205.0" y="145.0" type="line"/>
      <point x="775.0" y="145.0" type="line"/>
      <point x="775.0" y="175.0" type="line"/>
      <point x="205.0" y="175.0" type="line"/>
    </contour>
  </outline>
</glyph>
<glyph name="sup_two" format="2">
  <advance width="1020"/>
  <unicode hex="00B2"/>
  <outline>
    <contour>
      <point x="286.8229217529297" y="427.5" type="line"/>
      <point x="739.53125" y="427.5" type="line"/>
      <point x="739.53125" y="460" type="line"/>
      <point x="333.28780364990234" y="460" type="line"/>
      <point x="670.5463180541992" y="790.0735092163086" type="line"/>
      <point x="714.66505" y="833.25232"/>
      <point x="739.53125" y="892.38232"/>
      <point x="739.53125" y="954.11458" type="curve"/>
      <point x="739.53125" y="1080.79633"/>
      <point x="636.68174" y="1183.64583"/>
      <point x="510.0" y="1183.64583" type="curve" smooth="yes"/>
      <point x="383.31826" y="1183.64583"/>
      <point x="280.46875" y="1080.79633"/>
      <point x="280.46875" y="954.11458" type="curve"/>
      <point x="312.96875" y="954.1145782470703" type="line"/>
      <point x="312.96875" y="1062.85909"/>
      <point x="401.25549" y="1151.14583"/>
      <point x="510.0" y="1151.14583" type="curve" smooth="yes"/>
      <point x="618.74451" y="1151.14583"/>
      <point x="707.03125" y="1062.85909"/>
      <point x="707.03125" y="954.11458" type="curve"/>
      <point x="707.03125" y="901.12317"/>
      <point x="685.68592" y="850.36556"/>
      <point x="647.8141" y="813.30056" type="curve"/>
      <point x="286.8229217529297" y="460" type="line"/>
    </contour>
  </outline>
</glyph>
<glyph name="sup_three" format="2">
  <advance width="980"/>
  <unicode hex="00B3"/>
  <outline>
    <contour>
      <point x="286.875" y="632.5" type="line"/>
      <point x="286.875" y="531.77550885"/>
      <point x="377.8922615625" y="450.0"/>
      <point x="489.99999999999994" y="450.0" type="curve" smooth="yes"/>
      <point x="602.1077384375" y="450.0"/>
      <point x="693.125" y="531.7755088499999"/>
      <point x="693.125" y="632.5" type="curve"/>
      <point x="693.125" y="707.8946990135626"/>
      <point x="642.1291043001715" y="772.6725072483894"/>
      <point x="569.4638748168945" y="800.4711761474609" type="curve"/>
      <point x="635.0442074136681" y="827.3398691542386"/>
      <point x="680.6249999999999" y="886.4603394157466"/>
      <point x="680.6250000000001" y="955.0" type="curve"/>
      <point x="680.625" y="1048.8255534"/>
      <point x="595.2088006875" y="1125.0"/>
      <point x="490.0" y="1125.0" type="curve" smooth="yes"/>
      <point x="384.7911993125" y="1125.0"/>
      <point x="299.375" y="1048.8255534"/>
      <point x="299.375" y="955.0" type="curve"/>
      <point x="329.375" y="955" type="line"/>
      <point x="329.375" y="1032.2681028"/>
      <point x="401.34864991250004" y="1095.0"/>
      <point x="490.0" y="1095.0" type="curve" smooth="yes"/>
      <point x="578.6513500875001" y="1095.0"/>
      <point x="650.625" y="1032.2681028"/>
      <point x="650.625" y="955.0" type="curve"/>
      <point x="650.625" y="877.7318971999999"/>
      <point x="578.6513500875001" y="815.0"/>
      <point x="490.0" y="815.0" type="curve"/>
      <point x="433.75" y="815" type="line"/>
      <point x="433.75" y="785" type="line"/>
      <point x="490" y="785" type="line"/>
      <point x="585.5502878375" y="785.0"/>
      <point x="663.125" y="716.66704055"/>
      <point x="663.125" y="632.5" type="curve"/>
      <point x="663.125" y="548.33295945"/>
      <point x="585.5502878375" y="480.0"/>
      <point x="489.99999999999994" y="480.0" type="curve" smooth="yes"/>
      <point x="394.44971216249996" y="480.0"/>
      <point x="316.875" y="548.3329594500001"/>
      <point x="316.875" y="632.5" type="curve"/>
    </contour>
  </outline>
</glyph>
<glyph name="acute" format="2">
  <advance width="1020"/>
  <unicode hex="00B4"/>
  <outline>
    <contour>
      <point x="410.96204259471114" y="1025.4545454545453" type="line"/>
      <point x="448.5642239556666" y="1025.4545454545453" type="line"/>
      <point x="609.0379574052888" y="1309.090909090909" type="line"/>
      <point x="571.4357760443332" y="1309.090909090909" type="line"/>
    </contour>
  </outline>
</glyph>
<glyph name="mu" format="2">
  <advance width="1020"/>
  <unicode hex="00B5"/>
  <outline>
    <contour>
      <point x="176.25" y="-240" type="line"/>
      <point x="208.75" y="-240" type="line"/>
      <point x="208.75" y="143.46138763427734" type="line"/>
      <point x="257.3954549945517" y="49.37030959460023"/>
      <point x="355.6147986240298" y="-15.000000000000014"/>
      <point x="468.75" y="-14.999999999999986" type="curve" smooth="yes"/>
      <point x="585.577868844958" y="-15.000000000000023"/>
      <point x="686.500299684297" y="53.64090460370664"/>
      <point x="733.3536071777344" y="152.7832489013672" type="curve"/>
      <point x="752.6877855931532" y="65.39653382703062"/>
      <point x="830.6420658260297" y="1.4210854715202004e-14"/>
      <point x="923.75" y="0.0" type="curve"/>
      <point x="923.75" y="32.5" type="line"/>
      <point x="834.06380925" y="32.5"/>
      <point x="761.25" y="105.31380925"/>
      <point x="761.25" y="195.00000000000003" type="curve"/>
      <point x="761.25" y="780" type="line"/>
      <point x="728.75" y="780" type="line"/>
      <point x="728.75" y="277.5" type="line"/>
      <point x="728.75" y="134.0020947999999"/>
      <point x="612.2479051999999" y="17.499999999999943"/>
      <point x="468.74999999999994" y="17.499999999999975" type="curve" smooth="yes"/>
      <point x="325.2520947999999" y="17.500000000000007"/>
      <point x="208.74999999999997" y="134.00209479999998"/>
      <point x="208.75" y="277.5" type="curve"/>
      <point x="208.75" y="780" type="line"/>
      <point x="176.25" y="780" type="line"/>
    </contour>
  </outline>
</glyph>
<glyph name="pilcrow" format="2">
  <advance width="1020"/>
  <unicode hex="00B6"/>
  <outline>
    <contour>
      <point x="526.875" y="-130" type="line"/>
      <point x="559.375" y="-130" type="line"/>
      <point x="559.375" y="1137.5" type="line"/>
      <point x="689.375" y="1137.5" type="line"/>
      <point x="689.375" y="-130" type="line"/>
      <point x="721.875" y="-130" type="line"/>
      <point x="721.875" y="1137.5" type="line"/>
      <point x="803.125" y="1137.5" type="line"/>
      <point x="803.125" y="1170" type="line"/>
      <point x="526.875" y="1170" type="line"/>
      <point x="361.30049" y="1170.0"/>
      <point x="226.875" y="1035.57451"/>
      <point x="226.875" y="870.0" type="curve" smooth="yes"/>
      <point x="226.875" y="704.42549"/>
      <point x="361.30049" y="570.0"/>
      <point x="526.875" y="570.0" type="curve"/>
    </contour>
  </outline>
</glyph>
<glyph name="periodcentered" format="2">
  <advance width="1020"/>
  <unicode hex="00B7"/>
  <outline>
    <contour>
      <point x="591.25" y="400.83333" type="curve" smooth="yes"/>
      <point x="591.25" y="445.67643"/>
      <point x="554.8431" y="482.08333"/>
      <point x="510.0" y="482.08333" type="curve" smooth="yes"/>
      <point x="465.1569" y="482.08333"/>
      <point x="428.75" y="445.67643"/>
      <point x="428.75" y="400.83333" type="curve" smooth="yes"/>
      <point x="428.75" y="355.99024"/>
      <point x="465.1569" y="319.58333"/>
      <point x="510.0" y="319.58333" type="curve" smooth="yes"/>
      <point x="554.8431" y="319.58333"/>
      <point x="591.25" y="355.99024"/>
    </contour>
  </outline>
</glyph>
<glyph name="cedilla" format="2">
  <advance width="1020"/>
  <unicode hex="00B8"/>
  <outline>
    <contour>
      <point x="474.5454559326172" y="-114.54545593261719" type="line"/>
      <point x="490.9090881347656" y="-114.54545593261719" type="line"/>
      <point x="536.0657743636364" y="-114.54545454545453"/>
      <point x="572.7272727272727" y="-151.2069529090909"/>
      <point x="572.7272727272727" y="-196.36363636363635" type="curve" smooth="yes"/>
      <point x="572.7272727272727" y="-241.52031981818178"/>
      <point x="536.0657743636364" y="-278.1818181818182"/>
      <point x="490.90909090909093" y="-278.1818181818182" type="curve"/>
      <point x="414.5454559326172" y="-278.1818161010742" type="line"/>
      <point x="414.5454559326172" y="-310.9090881347656" type="line"/>
      <point x="490.9090881347656" y="-310.9090881347656" type="line"/>
      <point x="554.1284477454547" y="-310.9090909090909"/>
      <point x="605.4545454545455" y="-259.5829932"/>
      <point x="605.4545454545455" y="-196.36363636363635" type="curve" smooth="yes"/>
      <point x="605.4545454545455" y="-138.69955407055448"/>
      <point x="562.7524812258747" y="-90.93037393854365"/>
      <point x="507.2727279663086" y="-82.9883804321289" type="curve"/>
      <point x="507.2727279663086" y="16.36363983154297" type="line"/>
      <point x="474.5454559326172" y="16.36363983154297" type="line"/>
    </contour>
  </outline>
</glyph>
<glyph name="sup_one" format="2">
  <advance width="1020"/>
  <unicode hex="00B9"/>
  <outline>
    <contour>
      <point x="290.625" y="427.5" type="line"/>
      <point x="729.375" y="427.5" type="line"/>
      <point x="729.375" y="460" type="line"/>
      <point x="539.7916717529297" y="460" type="line"/>
      <point x="539.7916717529297" y="1170.9375" type="line"/>
      <point x="507.2916717529297" y="1170.9375" type="line"/>
      <point x="290.625" y="1045.8449401855469" type="line"/>
      <point x="290.625" y="1008.3171691894531" type="line"/>
      <point x="507.2916717529297" y="1133.4097290039062" type="line"/>
      <point x="507.2916717529297" y="460" type="line"/>
      <point x="290.625" y="460" type="line"/>
    </contour>
  </outline>
</glyph>
<glyph name="ordinalmasculine" format="2">
  <advance width="980"/>
  <unicode hex="00BA"/>
  <outline>
    <contour>
      <point x="662.5" y="952.5" type="curve" smooth="yes"/>
      <point x="662.5" y="1047.70534095"/>
      <point x="585.2053409499999" y="1125.0"/>
      <point x="490.0" y="1125.0" type="curve" smooth="yes"/>
      <point x="394.79465905" y="1125.0"/>
      <point x="317.5" y="1047.70534095"/>
      <point x="317.5" y="952.5" type="curve" smooth="yes"/>
      <point x="317.5" y="857.29465905"/>
      <point x="394.79465904999995" y="780.0"/>
      <point x="490.0" y="780.0" type="curve" smooth="yes"/>
      <point x="585.2053409499999" y="780.0"/>
      <point x="662.5" y="857.29465905"/>
    </contour>
    <contour>
      <point x="632.5" y="952.5" type="curve" smooth="yes"/>
      <point x="632.5" y="873.8521096499999"/>
      <point x="568.64789035" y="810.0"/>
      <point x="490.0" y="810.0" type="curve" smooth="yes"/>
      <point x="411.35210965" y="810.0"/>
      <point x="347.5" y="873.85210965"/>
      <point x="347.5" y="952.5" type="curve" smooth="yes"/>
      <point x="347.5" y="1031.1478903500001"/>
      <point x="411.35210965" y="1095.0"/>
      <point x="490.0" y="1095.0" type="curve" smooth="yes"/>
      <point x="568.64789035" y="1095.0"/>
      <point x="632.5" y="1031.1478903500001"/>
    </contour>
    <contour>
      <point x="317.5" y="654.0" type="line"/>
      <point x="662.5" y="654.0" type="line"/>
      <point x="662.5" y="684.0" type="line"/>
      <point x="317.5" y="684.0" type="line"/>
    </contour>
  </outline>
</glyph>
<glyph name="angledblright" format="2">
  <advance width="1020"/>
  <unicode hex="00BB"/>
  <outline>
    <contour>
      <point x="465.41666412353516" y="222.08333587646484" type="line"/>
      <point x="512.9477462768555" y="222.08333587646484" type="line"/>
      <point x="790.4166641235352" y="482.08333587646484" type="line"/>
      <point x="512.9477462768555" y="742.0833358764648" type="line"/>
      <point x="465.41666412353516" y="742.0833358764648" type="line"/>
      <point x="742.8855895996094" y="482.08333587646484" type="line"/>
    </contour>
    <contour>
      <point x="259.58333587646484" y="222.08333587646484" type="line"/>
      <point x="307.1144104003906" y="222.08333587646484" type="line"/>
      <point x="584.5833358764648" y="482.08333587646484" type="line"/>
      <point x="307.1144104003906" y="742.0833358764648" type="line"/>
      <point x="259.58333587646484" y="742.0833358764648" type="line"/>
      <point x="537.0522537231445" y="482.08333587646484" type="line"/>
    </contour>
  </outline>
</glyph>
<glyph name="one_over_four" format="2">
  <advance width="1020"/>
  <unicode hex="00BC"/>
  <outline>
    <contour>
      <point x="127.1875" y="643.5" type="line"/>
      <point x="474.125" y="643.5" type="line"/>
      <point x="474.125" y="676" type="line"/>
      <point x="329.09375" y="676" type="line"/>
      <point x="329.09375" y="1187.875" type="line"/>
      <point x="296.59375" y="1187.875" type="line"/>
      <point x="127.1875" y="1090.0682525634766" type="line"/>
      <point x="127.1875" y="1052.5404891967773" type="line"/>
      <point x="296.59375" y="1150.3472290039062" type="line"/>
      <point x="296.59375" y="676" type="line"/>
      <point x="127.1875" y="676" type="line"/>
    </contour>
    <contour>
      <point x="102.81250000000009" y="373.7500000000592" type="line"/>
      <point x="915.3125" y="760.2600837491449" type="line"/>
      <point x="915.3125" y="796.25" type="line"/>
      <point x="102.81250000000009" y="409.73991625091423" type="line"/>
    </contour>
    <contour>
      <point x="614.7305450439453" y="174.24107360839844" type="line"/>
      <point x="852.4791641235352" y="490.3099136352539" type="line"/>
      <point x="852.4791641235352" y="174.24107360839844" type="line"/>
    </contour>
    <contour>
      <point x="574.0625" y="141.74107360839844" type="line"/>
      <point x="852.4791641235352" y="141.74107360839844" type="line"/>
      <point x="852.4791641235352" y="0" type="line"/>
      <point x="884.9791641235352" y="0" type="line"/>
      <point x="884.9791641235352" y="141.74107360839844" type="line"/>
      <point x="972.1875" y="141.74107360839844" type="line"/>
      <point x="972.1875" y="174.24107360839844" type="line"/>
      <point x="884.9791641235352" y="174.24107360839844" type="line"/>
      <point x="884.9791641235352" y="544.375" type="line"/>
      <point x="852.4791641235352" y="544.375" type="line"/>
      <point x="574.0625" y="174.24107360839844" type="line"/>
    </contour>
  </outline>
</glyph>
<glyph name="one_over_two" format="2">
  <advance width="1020"/>
  <unicode hex="00BD"/>
  <outline>
    <contour>
      <point x="126.36363983154297" y="648" type="line"/>
      <point x="475.7272720336914" y="648" type="line"/>
      <point x="475.7272720336914" y="680.7272720336914" type="line"/>
      <point x="329.6818161010742" y="680.7272720336914" type="line"/>
      <point x="329.6818161010742" y="1196.1818161010742" type="line"/>
      <point x="296.9545440673828" y="1196.1818161010742" type="line"/>
      <point x="126.36363983154297" y="1097.6911087036133" type="line"/>
      <point x="126.36363983154297" y="1059.9009094238281" type="line"/>
      <point x="296.9545440673828" y="1158.391616821289" type="line"/>
      <point x="296.9545440673828" y="680.7272720336914" type="line"/>
      <point x="126.36363983154297" y="680.7272720336914" type="line"/>
    </contour>
    <contour>
      <point x="101.8181818181819" y="376.36363636369595" type="line"/>
      <point x="920.0" y="765.5765878313067" type="line"/>
      <point x="920.0" y="801.8181818181818" type="line"/>
      <point x="101.8181818181819" y="412.60523035057093" type="line"/>
    </contour>
    <contour>
      <point x="576.363639831543" y="0" type="line"/>
      <point x="928.1818161010742" y="0" type="line"/>
      <point x="928.1818161010742" y="32.727272033691406" type="line"/>
      <point x="625.7845764160156" y="32.727272033691406" type="line"/>
      <point x="868.7623138427734" y="247.46156311035156" type="line"/>
      <point x="906.5445578754461" y="280.8520367001582"/>
      <point x="928.1818181818181" y="328.8502939138287"/>
      <point x="928.1818181818181" y="379.27272727272737" type="curve"/>
      <point x="928.1818181818181" y="476.3595967000001"/>
      <point x="849.3595967" y="555.1818181818182"/>
      <point x="752.2727272727273" y="555.1818181818182" type="curve" smooth="yes"/>
      <point x="655.1858578454545" y="555.1818181818182"/>
      <point x="576.3636363636364" y="476.3595967000001"/>
      <point x="576.3636363636364" y="379.27272727272737" type="curve"/>
      <point x="609.0909118652344" y="379.2727279663086" type="line"/>
      <point x="609.0909090909091" y="458.2969233181819"/>
      <point x="673.2485312272727" y="522.4545454545456"/>
      <point x="752.2727272727273" y="522.4545454545456" type="curve" smooth="yes"/>
      <point x="831.2969233181818" y="522.4545454545456"/>
      <point x="895.4545454545455" y="458.2969233181819"/>
      <point x="895.4545454545455" y="379.27272727272737" type="curve"/>
      <point x="895.4545454545455" y="338.23121174804237"/>
      <point x="877.8428219493588" y="299.1628628531943"/>
      <point x="847.0898343238063" y="271.9845673094049" type="curve"/>
      <point x="576.363639831543" y="32.727272033691406" type="line"/>
    </contour>
  </outline>
</glyph>
<glyph name="three_over_four" format="2">
  <advance width="1020"/>
  <unicode hex="00BE"/>
  <outline>
    <contour>
      <point x="132.0625" y="786.2077865600586" type="line"/>
      <point x="132.0625" y="702.37019"/>
      <point x="210.06843" y="634.19444"/>
      <point x="306.30556" y="634.19444" type="curve" smooth="yes"/>
      <point x="402.54268" y="634.19444"/>
      <point x="480.54861" y="702.37019"/>
      <point x="480.54861" y="786.20779" type="curve"/>
      <point x="480.54861" y="845.7975368698401"/>
      <point x="441.13981741931553" y="897.4748826697631"/>
      <point x="383.78658294677734" y="922.3623657226562" type="curve"/>
      <point x="436.96454390129503" y="946.7534517050519"/>
      <point x="473.23611" y="995.45846397106"/>
      <point x="473.23611000000005" y="1051.45084" type="curve"/>
      <point x="473.23611" y="1131.82321"/>
      <point x="398.50145" y="1197.18056"/>
      <point x="306.30556" y="1197.18056" type="curve" smooth="yes"/>
      <point x="214.10966" y="1197.18056"/>
      <point x="139.375" y="1131.82321"/>
      <point x="139.375" y="1051.45084" type="curve"/>
      <point x="171.875" y="1051.4508438110352" type="line"/>
      <point x="171.875" y="1113.88701"/>
      <point x="232.0436" y="1164.68056"/>
      <point x="306.30556" y="1164.68056" type="curve" smooth="yes"/>
      <point x="380.56751" y="1164.68056"/>
      <point x="440.73611" y="1113.88701"/>
      <point x="440.73611" y="1051.45084" type="curve"/>
      <point x="440.73611" y="989.01468"/>
      <point x="380.56751" y="938.22113"/>
      <point x="306.30556" y="938.22113" type="curve"/>
      <point x="276.24305725097656" y="938.2211303710938" type="line"/>
      <point x="276.24305725097656" y="905.7211303710938" type="line"/>
      <point x="306.30555725097656" y="905.7211303710938" type="line"/>
      <point x="384.60664" y="905.72113"/>
      <point x="448.04861" y="852.10918"/>
      <point x="448.04861" y="786.20779" type="curve"/>
      <point x="448.04861" y="720.30639"/>
      <point x="384.60664" y="666.69444"/>
      <point x="306.30556" y="666.69444" type="curve" smooth="yes"/>
      <point x="228.00447" y="666.69444"/>
      <point x="164.5625" y="720.30639"/>
      <point x="164.5625" y="786.20779" type="curve"/>
    </contour>
    <contour>
      <point x="107.6875" y="373.75" type="line"/>
      <point x="920.1875" y="760.26008" type="line"/>
      <point x="920.1875" y="796.25" type="line"/>
      <point x="107.6875" y="409.73992" type="line"/>
    </contour>
    <contour>
      <point x="619.8025131225586" y="179.11607360839844" type="line"/>
      <point x="857.3541717529297" y="490.76358795166016" type="line"/>
      <point x="857.3541717529297" y="179.11607360839844" type="line"/>
    </contour>
    <contour>
      <point x="578.9375" y="146.61607360839844" type="line"/>
      <point x="857.3541717529297" y="146.61607360839844" type="line"/>
      <point x="857.3541717529297" y="0" type="line"/>
      <point x="889.8541717529297" y="0" type="line"/>
      <point x="889.8541717529297" y="146.61607360839844" type="line"/>
      <point x="967.3125" y="146.61607360839844" type="line"/>
      <point x="967.3125" y="179.11607360839844" type="line"/>
      <point x="889.8541717529297" y="179.11607360839844" type="line"/>
      <point x="889.8541717529297" y="544.375" type="line"/>
      <point x="857.3541717529297" y="544.375" type="line"/>
      <point x="578.9375" y="179.11607360839844" type="line"/>
    </contour>
  </outline>
</glyph>
<glyph name="invertedquestion" format="2">
  <advance width="1020"/>
  <unicode hex="00BF"/>
  <outline>
    <contour>
      <point x="443.75000000000006" y="713.7499999999999" type="curve" smooth="yes"/>
      <point x="443.75000000000006" y="668.9069046249999"/>
      <point x="480.1569046250001" y="632.4999999999999"/>
      <point x="525.0" y="632.4999999999999" type="curve" smooth="yes"/>
      <point x="569.8430953750001" y="632.4999999999999"/>
      <point x="606.25" y="668.9069046249999"/>
      <point x="606.25" y="713.7499999999999" type="curve" smooth="yes"/>
      <point x="606.25" y="758.5930953749998"/>
      <point x="569.8430953750001" y="794.9999999999999"/>
      <point x="525.0" y="794.9999999999999" type="curve" smooth="yes"/>
      <point x="480.1569046250001" y="794.9999999999999"/>
      <point x="443.75000000000006" y="758.5930953749998"/>
    </contour>
    <contour>
      <point x="541.25" y="496" type="line"/>
      <point x="508.75" y="496" type="line"/>
      <point x="508.75" y="281.27638244628906" type="line"/>
      <point x="330.9326124607947" y="272.7906167995303"/>
      <point x="189.16666666666666" y="125.73694407838369"/>
      <point x="189.16666666666654" y="-54.166666666666686" type="curve"/>
      <point x="189.16666666666663" y="-239.51812754999986"/>
      <point x="339.6485391166666" y="-390.0"/>
      <point x="525.0" y="-390.0" type="curve" smooth="yes"/>
      <point x="710.3514608833332" y="-390.0"/>
      <point x="860.8333333333333" y="-239.51812755000012"/>
      <point x="860.8333333333333" y="-54.166666666666664" type="curve"/>
      <point x="828.3333358764648" y="-54.166664123535156" type="line"/>
      <point x="828.3333333333333" y="-221.58088940000007"/>
      <point x="692.4142227333332" y="-357.5"/>
      <point x="525.0" y="-357.5" type="curve" smooth="yes"/>
      <point x="357.5857772666666" y="-357.5"/>
      <point x="221.66666666666663" y="-221.58088939999993"/>
      <point x="221.66666666666663" y="-54.166666666666664" type="curve"/>
      <point x="221.66666666666669" y="113.24755606666668"/>
      <point x="357.5857772666667" y="249.16666666666666"/>
      <point x="525.0" y="249.16666666666666" type="curve"/>
      <point x="541.25" y="249.16666412353516" type="line"/>
    </contour>
  </outline>
</glyph>
<glyph name="A_with_grave" format="2">
  <advance width="1020"/>
  <unicode hex="00C0"/>
  <outline>
    <contour>
      <point x="528.67053" y="1300.0" type="line"/>
      <point x="381.56961" y="1560.0" type="line"/>
      <point x="344.22855" y="1560.0" type="line"/>
      <point x="491.32947" y="1300.0" type="line"/>
    </contour>
    <contour>
      <point x="71.25" y="0" type="line"/>
      <point x="105.79447174072266" y="0" type="line"/>
      <point x="254.64971923828125" y="413.2142868041992" type="line"/>
      <point x="765.3502807617188" y="413.2142868041992" type="line"/>
      <point x="914.2055282592773" y="0" type="line"/>
      <point x="948.75" y="0" type="line"/>
      <point x="527.2722396850586" y="1170" type="line"/>
      <point x="492.7277603149414" y="1170" type="line"/>
    </contour>
    <contour>
      <point x="266.35742950439453" y="445.7142868041992" type="line"/>
      <point x="510" y="1122.0531768798828" type="line"/>
      <point x="753.6425704956055" y="445.7142868041992" type="line"/>
    </contour>
  </outline>
</glyph>
<glyph name="A_with_acute" format="2">
  <advance width="1020"/>
  <unicode hex="00C1"/>
  <outline>
    <contour>
      <point x="491.1989093195223" y="1309.090909090909" type="line"/>
      <point x="528.8010906804777" y="1309.090909090909" type="line"/>
      <point x="689.2748241300999" y="1592.7272727272725" type="line"/>
      <point x="651.6726427691444" y="1592.7272727272725" type="line"/>
    </contour>
    <contour>
      <point x="68.18181610107422" y="0" type="line"/>
      <point x="102.96785736083984" y="0" type="line"/>
      <point x="252.86404418945312" y="416.10389709472656" type="line"/>
      <point x="767.1359558105469" y="416.10389709472656" type="line"/>
      <point x="917.0321426391602" y="0" type="line"/>
      <point x="951.8181838989258" y="0" type="line"/>
      <point x="527.3930206298828" y="1178.1818161010742" type="line"/>
      <point x="492.6069793701172" y="1178.1818161010742" type="line"/>
    </contour>
    <contour>
      <point x="264.6536331176758" y="448.83116912841797" type="line"/>
      <point x="510" y="1129.8997116088867" type="line"/>
      <point x="755.3463668823242" y="448.83116912841797" type="line"/>
    </contour>
  </outline>
</glyph>
<glyph name="A_with_circumflex" format="2">
  <advance width="980"/>
  <unicode hex="00C2"/>
  <outline>
    <contour>
      <point x="260" y="1245" type="line"/>
      <point x="299.8684616088867" y="1245" type="line"/>
      <point x="490" y="1462.2251586914062" type="line"/>
      <point x="680.1315383911133" y="1245" type="line"/>
      <point x="720" y="1245" type="line"/>
      <point x="509.9342269897461" y="1485" type="line"/>
      <point x="470.0657730102539" y="1485" type="line"/>
    </contour>
    <contour>
      <point x="115" y="45" type="line"/>
      <point x="146.61568450927734" y="45" type="line"/>
      <point x="273.4732360839844" y="426.42857360839844" type="line"/>
      <point x="706.5267639160156" y="426.42857360839844" type="line"/>
      <point x="833.3843154907227" y="45" type="line"/>
      <point x="865" y="45" type="line"/>
      <point x="505.80784606933594" y="1125" type="line"/>
      <point x="474.19215393066406" y="1125" type="line"/>
    </contour>
    <contour>
      <point x="283.45079803466797" y="456.42857360839844" type="line"/>
      <point x="490" y="1077.4698028564453" type="line"/>
      <point x="696.549201965332" y="456.42857360839844" type="line"/>
    </contour>
  </outline>
</glyph>
<glyph name="A_with_smalltilde" format="2">
  <advance width="980"/>
  <unicode hex="00C3"/>
  <outline>
    <contour>
      <point x="538.5871658106373" y="1292.4015706507741" type="curve"/>
      <point x="458.62012481689453" y="1348.3950958251953" type="line"/>
      <point x="437.4014245771236" y="1363.2525894218174"/>
      <point x="412.1253562264375" y="1371.2221031604113"/>
      <point x="386.2221031604113" y="1371.2221031604113" type="curve"/>
      <point x="316.5582285701908" y="1371.2221031604113"/>
      <point x="260.0" y="1314.6638745902205"/>
      <point x="260.0" y="1245.0" type="curve"/>
      <point x="290" y="1245" type="line"/>
      <point x="290.0" y="1298.1064239902205"/>
      <point x="333.1156791701908" y="1341.2221031604113"/>
      <point x="386.2221031604112" y="1341.2221031604113" type="curve"/>
      <point x="405.9687673840443" y="1341.2221031604113"/>
      <point x="425.23731382268534" y="1335.1467538048494"/>
      <point x="441.4128341893627" y="1323.8205325096371" type="curve"/>
      <point x="521.3798751831055" y="1267.8270111083984" type="line"/>
      <point x="542.5985754228764" y="1252.9695137385936"/>
      <point x="567.8746437735625" y="1245.0"/>
      <point x="593.7778968395887" y="1245.0" type="curve"/>
      <point x="663.4417714298093" y="1245.0"/>
      <point x="720.0" y="1301.5582285701907"/>
      <point x="720.0" y="1371.2221031604113" type="curve"/>
      <point x="690" y="1371.2221069335938" type="line"/>
      <point x="690.0" y="1318.1156791701908"/>
      <point x="646.8843208298092" y="1275.0"/>
      <point x="593.7778968395887" y="1275.0" type="curve"/>
      <point x="574.0312326159557" y="1275.0"/>
      <point x="554.7626861773147" y="1281.075349355562"/>
    </contour>
    <contour>
      <point x="115" y="45" type="line"/>
      <point x="146.61568450927734" y="45" type="line"/>
      <point x="273.4732360839844" y="426.42857360839844" type="line"/>
      <point x="706.5267639160156" y="426.42857360839844" type="line"/>
      <point x="833.3843154907227" y="45" type="line"/>
      <point x="865" y="45" type="line"/>
      <point x="505.80784606933594" y="1125" type="line"/>
      <point x="474.19215393066406" y="1125" type="line"/>
    </contour>
    <contour>
      <point x="283.45079803466797" y="456.42857360839844" type="line"/>
      <point x="490" y="1077.4698028564453" type="line"/>
      <point x="696.549201965332" y="456.42857360839844" type="line"/>
    </contour>
  </outline>
</glyph>
<glyph name="A_with_diaeresis" format="2">
  <advance width="980"/>
  <unicode hex="00C4"/>
  <outline>
    <contour>
      <point x="391.8" y="1276.8" type="curve" smooth="yes"/>
      <point x="391.8" y="1294.3508976360001"/>
      <point x="377.550897636" y="1308.6"/>
      <point x="360.0" y="1308.6" type="curve" smooth="yes"/>
      <point x="342.449102364" y="1308.6"/>
      <point x="328.2" y="1294.3508976360001"/>
      <point x="328.2" y="1276.8" type="curve" smooth="yes"/>
      <point x="328.2" y="1259.249102364"/>
      <point x="342.449102364" y="1245.0"/>
      <point x="360.0" y="1245.0" type="curve" smooth="yes"/>
      <point x="377.550897636" y="1245.0"/>
      <point x="391.8" y="1259.249102364"/>
    </contour>
    <contour>
      <point x="651.8" y="1276.8" type="curve" smooth="yes"/>
      <point x="651.8" y="1294.3508976360001"/>
      <point x="637.550897636" y="1308.6"/>
      <point x="620.0" y="1308.6" type="curve" smooth="yes"/>
      <point x="602.449102364" y="1308.6"/>
      <point x="588.2" y="1294.3508976360001"/>
      <point x="588.2" y="1276.8" type="curve" smooth="yes"/>
      <point x="588.2" y="1259.249102364"/>
      <point x="602.449102364" y="1245.0"/>
      <point x="620.0" y="1245.0" type="curve" smooth="yes"/>
      <point x="637.550897636" y="1245.0"/>
      <point x="651.8" y="1259.249102364"/>
    </contour>
    <contour>
      <point x="115" y="45" type="line"/>
      <point x="146.61568450927734" y="45" type="line"/>
      <point x="273.4732360839844" y="426.42857360839844" type="line"/>
      <point x="706.5267639160156" y="426.42857360839844" type="line"/>
      <point x="833.3843154907227" y="45" type="line"/>
      <point x="865" y="45" type="line"/>
      <point x="505.80784606933594" y="1125" type="line"/>
      <point x="474.19215393066406" y="1125" type="line"/>
    </contour>
    <contour>
      <point x="283.45079803466797" y="456.42857360839844" type="line"/>
      <point x="490" y="1077.4698028564453" type="line"/>
      <point x="696.549201965332" y="456.42857360839844" type="line"/>
    </contour>
  </outline>
</glyph>
<glyph name="A_with_ring" format="2">
  <advance width="1020"/>
  <unicode hex="00C5"/>
  <outline>
    <contour>
      <point x="623.75" y="1413.75" type="curve" smooth="yes"/>
      <point x="623.75" y="1476.5303335249998"/>
      <point x="572.7803335250001" y="1527.5"/>
      <point x="510.0" y="1527.5" type="curve" smooth="yes"/>
      <point x="447.21966647499994" y="1527.5"/>
      <point x="396.25" y="1476.5303335249998"/>
      <point x="396.25" y="1413.75" type="curve" smooth="yes"/>
      <point x="396.25" y="1350.969666475"/>
      <point x="447.21966647499994" y="1300.0"/>
      <point x="510.0" y="1300.0" type="curve" smooth="yes"/>
      <point x="572.7803335250001" y="1300.0"/>
      <point x="623.75" y="1350.969666475"/>
    </contour>
    <contour>
      <point x="591.25" y="1413.75" type="curve" smooth="yes"/>
      <point x="591.25" y="1368.906904625"/>
      <point x="554.843095375" y="1332.5"/>
      <point x="510.0" y="1332.5" type="curve" smooth="yes"/>
      <point x="465.156904625" y="1332.5"/>
      <point x="428.75" y="1368.906904625"/>
      <point x="428.75" y="1413.75" type="curve" smooth="yes"/>
      <point x="428.75" y="1458.5930953749998"/>
      <point x="465.156904625" y="1495.0"/>
      <point x="510.0" y="1495.0" type="curve" smooth="yes"/>
      <point x="554.843095375" y="1495.0"/>
      <point x="591.25" y="1458.5930953749998"/>
    </contour>
    <contour>
      <point x="71.25" y="0" type="line"/>
      <point x="105.79447174072266" y="0" type="line"/>
      <point x="254.64971923828125" y="413.2142868041992" type="line"/>
      <point x="765.3502807617188" y="413.2142868041992" type="line"/>
      <point x="914.2055282592773" y="0" type="line"/>
      <point x="948.75" y="0" type="line"/>
      <point x="527.2722396850586" y="1170" type="line"/>
      <point x="492.7277603149414" y="1170" type="line"/>
    </contour>
    <contour>
      <point x="266.35742950439453" y="445.7142868041992" type="line"/>
      <point x="510" y="1122.0531768798828" type="line"/>
      <point x="753.6425704956055" y="445.7142868041992" type="line"/>
    </contour>
  </outline>
</glyph>
<glyph name="AE" format="2">
  <advance width="980"/>
  <unicode hex="00C6"/>
  <outline>
    <contour>
      <point x="120" y="45" type="line"/>
      <point x="151.55702209472656" y="45" type="line"/>
      <point x="276.0309295654297" y="426.42857360839844" type="line"/>
      <point x="474" y="426.42857360839844" type="line"/>
      <point x="474" y="45" type="line"/>
      <point x="810" y="45" type="line"/>
      <point x="810" y="75" type="line"/>
      <point x="504" y="75" type="line"/>
      <point x="504" y="570" type="line"/>
      <point x="810" y="570" type="line"/>
      <point x="810" y="600" type="line"/>
      <point x="504" y="600" type="line"/>
      <point x="504" y="1095" type="line"/>
      <point x="810" y="1095" type="line"/>
      <point x="810" y="1125" type="line"/>
      <point x="472.44297790527344" y="1125" type="line"/>
    </contour>
    <contour>
      <point x="285.8210144042969" y="456.42857360839844" type="line"/>
      <point x="474" y="1033.0702362060547" type="line"/>
      <point x="474" y="456.42857360839844" type="line"/>
    </contour>
  </outline>
</glyph>
<glyph name="C_with_cedilla" format="2">
  <advance width="980"/>
  <unicode hex="00C7"/>
  <outline>
    <contour>
      <point x="145" y="390" type="line"/>
      <point x="145.0" y="204.61501763806865"/>
      <point x="291.5365507789494" y="53.185415634658426"/>
      <point x="475" y="45.33180236816406" type="curve"/>
      <point x="475" y="-60" type="line"/>
      <point x="490" y="-60" type="line"/>
      <point x="531.3936265" y="-60.0"/>
      <point x="565.0" y="-93.60637349999999"/>
      <point x="565.0" y="-135.0" type="curve" smooth="yes"/>
      <point x="565.0" y="-176.39362649999998"/>
      <point x="531.3936265" y="-210.0"/>
      <point x="490.0" y="-210.0" type="curve"/>
      <point x="420" y="-210" type="line"/>
      <point x="420" y="-240" type="line"/>
      <point x="490" y="-240" type="line"/>
      <point x="547.9510771" y="-240.0"/>
      <point x="595.0" y="-192.9510771"/>
      <point x="595.0" y="-135.0" type="curve" smooth="yes"/>
      <point x="595.0" y="-82.14125789800829"/>
      <point x="555.8564411237184" y="-38.35284277699836"/>
      <point x="505" y="-31.098052978515625" type="curve"/>
      <point x="505" y="45.33020782470703" type="line"/>
      <point x="688.4634492210505" y="53.18541563465836"/>
      <point x="834.9999999999999" y="204.61501763806857"/>
      <point x="835.0" y="390.0" type="curve"/>
      <point x="805" y="390" type="line"/>
      <point x="805.0" y="216.14676869999994"/>
      <point x="663.8532313" y="75.0"/>
      <point x="489.99999999999994" y="75.0" type="curve" smooth="yes"/>
      <point x="316.14676869999994" y="75.0"/>
      <point x="175.0" y="216.14676870000002"/>
      <point x="175.0" y="390.00000000000006" type="curve"/>
      <point x="175" y="780" type="line"/>
      <point x="175.0" y="953.8532313000001"/>
      <point x="316.14676870000005" y="1095.0"/>
      <point x="490.0" y="1095.0" type="curve" smooth="yes"/>
      <point x="663.8532313000001" y="1095.0"/>
      <point x="805.0" y="953.8532313000001"/>
      <point x="805.0" y="780.0" type="curve"/>
      <point x="835" y="780" type="line"/>
      <point x="835.0" y="970.4106819"/>
      <point x="680.4106819" y="1125.0"/>
      <point x="490.0" y="1125.0" type="curve" smooth="yes"/>
      <point x="299.5893181" y="1125.0"/>
      <point x="145.0" y="970.4106819000001"/>
      <point x="145.0" y="780.0" type="curve"/>
    </contour>
  </outline>
</glyph>
<glyph name="E_with_grave" format="2">
  <advance width="1020"/>
  <unicode hex="00C8"/>
  <outline>
    <contour>
      <point x="531.3010906804777" y="1309.090909090909" type="line"/>
      <point x="370.8273572308556" y="1592.7272727272725" type="line"/>
      <point x="333.2251758699001" y="1592.7272727272725" type="line"/>
      <point x="493.69890931952216" y="1309.090909090909" type="line"/>
    </contour>
    <contour>
      <point x="152.5" y="0" type="line"/>
      <point x="872.5" y="0" type="line"/>
      <point x="872.5" y="32.727272033691406" type="line"/>
      <point x="185.2272720336914" y="32.727272033691406" type="line"/>
      <point x="185.2272720336914" y="572.7272720336914" type="line"/>
      <point x="807.0454559326172" y="572.7272720336914" type="line"/>
      <point x="807.0454559326172" y="605.4545440673828" type="line"/>
      <point x="185.2272720336914" y="605.4545440673828" type="line"/>
      <point x="185.2272720336914" y="1145.4545440673828" type="line"/>
      <point x="872.5" y="1145.4545440673828" type="line"/>
      <point x="872.5" y="1178.1818161010742" type="line"/>
      <point x="152.5" y="1178.1818161010742" type="line"/>
    </contour>
  </outline>
</glyph>
<glyph name="E_with_acute" format="2">
  <advance width="1020"/>
  <unicode hex="00C9"/>
  <outline>
    <contour>
      <point x="493.8294724492478" y="1300.0" type="line"/>
      <point x="531.1705275507522" y="1300.0" type="line"/>
      <point x="690.5298600736407" y="1581.6666666666665" type="line"/>
      <point x="653.1888049721363" y="1581.6666666666665" type="line"/>
    </contour>
    <contour>
      <point x="155" y="0" type="line"/>
      <point x="870" y="0" type="line"/>
      <point x="870" y="32.5" type="line"/>
      <point x="187.5" y="32.5" type="line"/>
      <point x="187.5" y="568.75" type="line"/>
      <point x="805" y="568.75" type="line"/>
      <point x="805" y="601.25" type="line"/>
      <point x="187.5" y="601.25" type="line"/>
      <point x="187.5" y="1137.5" type="line"/>
      <point x="870" y="1137.5" type="line"/>
      <point x="870" y="1170" type="line"/>
      <point x="155" y="1170" type="line"/>
    </contour>
  </outline>
</glyph>
<glyph name="E_with_circumflex" format="2">
  <advance width="1020"/>
  <unicode hex="00CA"/>
  <outline>
    <contour>
      <point x="252.5" y="1300" type="line"/>
      <point x="296.5578842163086" y="1300" type="line"/>
      <point x="512.5" y="1535.9318389892578" type="line"/>
      <point x="728.4421157836914" y="1300" type="line"/>
      <point x="772.5" y="1300" type="line"/>
      <point x="534.5289459228516" y="1560" type="line"/>
      <point x="490.47105407714844" y="1560" type="line"/>
    </contour>
    <contour>
      <point x="155" y="0" type="line"/>
      <point x="870" y="0" type="line"/>
      <point x="870" y="32.5" type="line"/>
      <point x="187.5" y="32.5" type="line"/>
      <point x="187.5" y="568.75" type="line"/>
      <point x="805" y="568.75" type="line"/>
      <point x="805" y="601.25" type="line"/>
      <point x="187.5" y="601.25" type="line"/>
      <point x="187.5" y="1137.5" type="line"/>
      <point x="870" y="1137.5" type="line"/>
      <point x="870" y="1170" type="line"/>
      <point x="155" y="1170" type="line"/>
    </contour>
  </outline>
</glyph>
<glyph name="E_with_diaeresis" format="2">
  <advance width="1020"/>
  <unicode hex="00CB"/>
  <outline>
    <contour>
      <point x="459.1" y="1420.0" type="curve" smooth="yes"/>
      <point x="459.1" y="1450.4933"/>
      <point x="434.3433" y="1475.25"/>
      <point x="403.85" y="1475.25" type="curve" smooth="yes"/>
      <point x="373.3567" y="1475.25"/>
      <point x="348.6" y="1450.4933"/>
      <point x="348.6" y="1420.0" type="curve" smooth="yes"/>
      <point x="348.6" y="1389.5067"/>
      <point x="373.3567" y="1364.75"/>
      <point x="403.85" y="1364.75" type="curve" smooth="yes"/>
      <point x="434.3433" y="1364.75"/>
      <point x="459.1" y="1389.5067"/>
    </contour>
    <contour>
      <point x="681.4" y="1420.0" type="curve" smooth="yes"/>
      <point x="681.4" y="1450.4933"/>
      <point x="656.6433" y="1475.25"/>
      <point x="626.15" y="1475.25" type="curve" smooth="yes"/>
      <point x="595.6567" y="1475.25"/>
      <point x="570.9" y="1450.4933"/>
      <point x="570.9" y="1420.0" type="curve" smooth="yes"/>
      <point x="570.9" y="1389.5067"/>
      <point x="595.6567" y="1364.75"/>
      <point x="626.15" y="1364.75" type="curve" smooth="yes"/>
      <point x="656.6433" y="1364.75"/>
      <point x="681.4" y="1389.5067"/>
    </contour>
    <contour>
      <point x="169.4166717529297" y="0" type="line"/>
      <point x="860.5833282470703" y="0" type="line"/>
      <point x="860.5833282470703" y="32.5" type="line"/>
      <point x="201.9166717529297" y="32.5" type="line"/>
      <point x="201.9166717529297" y="568.75" type="line"/>
      <point x="795.5833282470703" y="568.75" type="line"/>
      <point x="795.5833282470703" y="601.25" type="line"/>
      <point x="201.9166717529297" y="601.25" type="line"/>
      <point x="201.9166717529297" y="1137.5" type="line"/>
      <point x="855.1666717529297" y="1137.5" type="line"/>
      <point x="855.1666717529297" y="1170" type="line"/>
      <point x="169.4166717529297" y="1170" type="line"/>
    </contour>
  </outline>
</glyph>
<glyph name="I_with_grave" format="2">
  <advance width="1020"/>
  <unicode hex="00CC"/>
  <outline>
    <contour>
      <point x="528.8010906804777" y="1309.090909090909" type="line"/>
      <point x="368.3273572308556" y="1592.7272727272725" type="line"/>
      <point x="330.7251758699001" y="1592.7272727272725" type="line"/>
      <point x="491.1989093195222" y="1309.090909090909" type="line"/>
    </contour>
    <contour>
      <point x="166.36363983154297" y="0" type="line"/>
      <point x="853.636360168457" y="0" type="line"/>
      <point x="853.636360168457" y="32.727272033691406" type="line"/>
      <point x="526.363639831543" y="32.727272033691406" type="line"/>
      <point x="526.363639831543" y="1145.4545440673828" type="line"/>
      <point x="853.636360168457" y="1145.4545440673828" type="line"/>
      <point x="853.636360168457" y="1178.1818161010742" type="line"/>
      <point x="166.36363983154297" y="1178.1818161010742" type="line"/>
      <point x="166.36363983154297" y="1145.4545440673828" type="line"/>
      <point x="493.63636016845703" y="1145.4545440673828" type="line"/>
      <point x="493.63636016845703" y="32.727272033691406" type="line"/>
      <point x="166.36363983154297" y="32.727272033691406" type="line"/>
    </contour>
  </outline>
</glyph>
<glyph name="I_with_acute" format="2">
  <advance width="980"/>
  <unicode hex="00CD"/>
  <outline>
    <contour>
      <point x="472.76566687622875" y="1245.0" type="line"/>
      <point x="507.23433312377125" y="1245.0" type="line"/>
      <point x="654.3352554525916" y="1505.0" type="line"/>
      <point x="619.866589205049" y="1505.0" type="line"/>
    </contour>
    <contour>
      <point x="175" y="45" type="line"/>
      <point x="805" y="45" type="line"/>
      <point x="805" y="75" type="line"/>
      <point x="505" y="75" type="line"/>
      <point x="505" y="1095" type="line"/>
      <point x="805" y="1095" type="line"/>
      <point x="805" y="1125" type="line"/>
      <point x="175" y="1125" type="line"/>
      <point x="175" y="1095" type="line"/>
      <point x="475" y="1095" type="line"/>
      <point x="475" y="75" type="line"/>
      <point x="175" y="75" type="line"/>
    </contour>
  </outline>
</glyph>
<glyph name="I_with_circumflex" format="2">
  <advance width="1020"/>
  <unicode hex="00CE"/>
  <outline>
    <contour>
      <point x="250" y="1300" type="line"/>
      <point x="294.0578842163086" y="1300" type="line"/>
      <point x="510" y="1535.9318389892578" type="line"/>
      <point x="725.9421157836914" y="1300" type="line"/>
      <point x="770" y="1300" type="line"/>
      <point x="532.0289459228516" y="1560" type="line"/>
      <point x="487.97105407714844" y="1560" type="line"/>
    </contour>
    <contour>
      <point x="168.75" y="0" type="line"/>
      <point x="851.25" y="0" type="line"/>
      <point x="851.25" y="32.5" type="line"/>
      <point x="526.25" y="32.5" type="line"/>
      <point x="526.25" y="1137.5" type="line"/>
      <point x="851.25" y="1137.5" type="line"/>
      <point x="851.25" y="1170" type="line"/>
      <point x="168.75" y="1170" type="line"/>
      <point x="168.75" y="1137.5" type="line"/>
      <point x="493.75" y="1137.5" type="line"/>
      <point x="493.75" y="32.5" type="line"/>
      <point x="168.75" y="32.5" type="line"/>
    </contour>
  </outline>
</glyph>
<glyph name="I_with_diaeresis" format="2">
  <advance width="1020"/>
  <unicode hex="00CF"/>
  <outline>
    <contour>
      <point x="453.7090909090909" y="1364.7272727272725" type="curve" smooth="yes"/>
      <point x="453.7090909090909" y="1395.4338174763636"/>
      <point x="428.7792720218182" y="1420.3636363636363"/>
      <point x="398.07272727272726" y="1420.3636363636363" type="curve" smooth="yes"/>
      <point x="367.3661825236363" y="1420.3636363636363"/>
      <point x="342.43636363636364" y="1395.4338174763636"/>
      <point x="342.43636363636364" y="1364.7272727272725" type="curve" smooth="yes"/>
      <point x="342.43636363636364" y="1334.0207279781816"/>
      <point x="367.3661825236363" y="1309.090909090909"/>
      <point x="398.07272727272726" y="1309.090909090909" type="curve" smooth="yes"/>
      <point x="428.7792720218182" y="1309.090909090909"/>
      <point x="453.7090909090909" y="1334.0207279781816"/>
    </contour>
    <contour>
      <point x="677.5636363636363" y="1364.7272727272725" type="curve" smooth="yes"/>
      <point x="677.5636363636363" y="1395.4338174763636"/>
      <point x="652.6338174763637" y="1420.3636363636363"/>
      <point x="621.9272727272728" y="1420.3636363636363" type="curve" smooth="yes"/>
      <point x="591.2207279781818" y="1420.3636363636363"/>
      <point x="566.290909090909" y="1395.4338174763636"/>
      <point x="566.290909090909" y="1364.7272727272725" type="curve" smooth="yes"/>
      <point x="566.290909090909" y="1334.0207279781816"/>
      <point x="591.2207279781818" y="1309.090909090909"/>
      <point x="621.9272727272728" y="1309.090909090909" type="curve" smooth="yes"/>
      <point x="652.6338174763637" y="1309.090909090909"/>
      <point x="677.5636363636363" y="1334.0207279781816"/>
    </contour>
    <contour>
      <point x="166.36363983154297" y="0" type="line"/>
      <point x="853.636360168457" y="0" type="line"/>
      <point x="853.636360168457" y="32.727272033691406" type="line"/>
      <point x="526.363639831543" y="32.727272033691406" type="line"/>
      <point x="526.363639831543" y="1145.4545440673828" type="line"/>
      <point x="853.636360168457" y="1145.4545440673828" type="line"/>
      <point x="853.636360168457" y="1178.1818161010742" type="line"/>
      <point x="166.36363983154297" y="1178.1818161010742" type="line"/>
      <point x="166.36363983154297" y="1145.4545440673828" type="line"/>
      <point x="493.63636016845703" y="1145.4545440673828" type="line"/>
      <point x="493.63636016845703" y="32.727272033691406" type="line"/>
      <point x="166.36363983154297" y="32.727272033691406" type="line"/>
    </contour>
  </outline>
</glyph>
<glyph name="ETH" format="2">
  <advance width="980"/>
  <unicode hex="00D0"/>
  <outline>
    <contour>
      <point x="165" y="45" type="line"/>
      <point x="510" y="45" type="line"/>
      <point x="700.4106819000001" y="45.0"/>
      <point x="855.0" y="199.5893181"/>
      <point x="855.0" y="390.0" type="curve"/>
      <point x="855" y="780" type="line"/>
      <point x="855.0" y="970.4106819"/>
      <point x="700.4106819" y="1125.0"/>
      <point x="510.0" y="1125.0" type="curve"/>
      <point x="165" y="1125" type="line"/>
      <point x="165" y="600" type="line"/>
      <point x="75" y="600" type="line"/>
      <point x="75" y="570" type="line"/>
      <point x="165" y="570" type="line"/>
    </contour>
    <contour>
      <point x="825" y="390" type="line"/>
      <point x="825.0" y="216.14676870000002"/>
      <point x="683.8532313000001" y="75.0"/>
      <point x="510.0" y="75.0" type="curve"/>
      <point x="195" y="75" type="line"/>
      <point x="195" y="570" type="line"/>
      <point x="487.5" y="570" type="line"/>
      <point x="487.5" y="600" type="line"/>
      <point x="195" y="600" type="line"/>
      <point x="195" y="1095" type="line"/>
      <point x="510" y="1095" type="line"/>
      <point x="683.8532313000001" y="1095.0"/>
      <point x="825.0" y="953.8532313000001"/>
      <point x="825.0" y="780.0" type="curve"/>
    </contour>
  </outline>
</glyph>
<glyph name="N_with_smalltilde" format="2">
  <advance width="1020"/>
  <unicode hex="00D1"/>
  <outline>
    <contour>
      <point x="565.06926" y="1352.31712" type="curve"/>
      <point x="473.57198333740234" y="1416.3842010498047" type="line"/>
      <point x="449.68765" y="1433.10819"/>
      <point x="421.23625" y="1442.07888"/>
      <point x="392.07888" y="1442.07888" type="curve"/>
      <point x="313.66341" y="1442.07888"/>
      <point x="250.0" y="1378.41547"/>
      <point x="250.0" y="1300.0" type="curve"/>
      <point x="282.5" y="1300" type="line"/>
      <point x="282.5" y="1360.47823"/>
      <point x="331.60065" y="1409.57888"/>
      <point x="392.07888" y="1409.57888" type="curve"/>
      <point x="414.56662" y="1409.57888"/>
      <point x="436.50987" y="1402.6602"/>
      <point x="454.93074" y="1389.76176" type="curve"/>
      <point x="546.4280166625977" y="1325.6946716308594" type="line"/>
      <point x="570.31235" y="1308.97069"/>
      <point x="598.76375" y="1300.0"/>
      <point x="627.92112" y="1300.0" type="curve"/>
      <point x="706.33659" y="1300.0"/>
      <point x="770.0" y="1363.66341"/>
      <point x="770.0" y="1442.07888" type="curve"/>
      <point x="737.5" y="1442.0788803100586" type="line"/>
      <point x="737.5" y="1381.60065"/>
      <point x="688.39935" y="1332.5"/>
      <point x="627.92112" y="1332.5" type="curve"/>
      <point x="605.43338" y="1332.5"/>
      <point x="583.49013" y="1339.41868"/>
    </contour>
    <contour>
      <point x="136.25" y="0" type="line"/>
      <point x="168.75" y="0" type="line"/>
      <point x="168.75" y="1108.0304794311523" type="line"/>
      <point x="851.25" y="0" type="line"/>
      <point x="883.75" y="0" type="line"/>
      <point x="883.75" y="1170" type="line"/>
      <point x="851.25" y="1170" type="line"/>
      <point x="851.25" y="61.969520568847656" type="line"/>
      <point x="168.75" y="1170" type="line"/>
      <point x="136.25" y="1170" type="line"/>
    </contour>
  </outline>
</glyph>
